<svg version="1.1" viewBox="0.0 0.0 1002.1391076115485 865.0708661417323" fill="none" stroke="none" stroke-linecap="square" stroke-miterlimit="10" xmlns:xlink="http://www.w3.org/1999/xlink" xmlns="http://www.w3.org/2000/svg"><clipPath id="p.0"><path d="m0 0l1002.1391 0l0 865.07086l-1002.1391 0l0 -865.07086z" clip-rule="nonzero"/></clipPath><g clip-path="url(#p.0)"><path fill="#000000" fill-opacity="0.0" d="m0 0l1002.1391 0l0 865.07086l-1002.1391 0z" fill-rule="evenodd"/><path fill="#000000" fill-opacity="0.0" d="m288.87402 51.614174l684.69293 0l0 168.62991l-684.69293 0z" fill-rule="evenodd"/><path stroke="#000000" stroke-width="3.0" stroke-linejoin="round" stroke-linecap="butt" d="m288.87402 51.614174l684.69293 0l0 168.62991l-684.69293 0z" fill-rule="evenodd"/><path fill="#000000" fill-opacity="0.0" d="m294.93176 270.91077l135.52756 0l0 135.52756l-135.52756 0z" fill-rule="evenodd"/><path stroke="#000000" stroke-width="3.0" stroke-linejoin="round" stroke-linecap="butt" d="m294.93176 270.91077l135.52756 0l0 135.52756l-135.52756 0z" fill-rule="evenodd"/><path fill="#000000" fill-opacity="0.0" d="m21.288713 69.9895l211.11812 0l0 89.732285l-211.11812 0z" fill-rule="evenodd"/><path fill="#000000" d="m32.444965 114.02262l4.296875 -0.375q0.296875 2.578125 1.40625 4.234375q1.125 1.65625 3.46875 2.671875q2.34375 1.015625 5.265625 1.015625q2.609375 0 4.59375 -0.765625q2.0 -0.78125 2.96875 -2.125q0.96875 -1.34375 0.96875 -2.9375q0 -1.625 -0.9375 -2.828125q-0.9375 -1.203125 -3.09375 -2.03125q-1.375 -0.53125 -6.109375 -1.671875q-4.734375 -1.140625 -6.640625 -2.140625q-2.453125 -1.296875 -3.671875 -3.203125q-1.203125 -1.90625 -1.203125 -4.28125q0 -2.59375 1.46875 -4.859375q1.484375 -2.265625 4.3125 -3.4375q2.84375 -1.171875 6.3125 -1.171875q3.828125 0 6.734375 1.234375q2.921875 1.234375 4.484375 3.625q1.578125 2.390625 1.703125 5.40625l-4.359375 0.328125q-0.359375 -3.25 -2.390625 -4.90625q-2.015625 -1.671875 -5.984375 -1.671875q-4.125 0 -6.015625 1.515625q-1.875 1.5 -1.875 3.640625q0 1.84375 1.328125 3.046875q1.3125 1.1875 6.859375 2.453125q5.546875 1.25 7.609375 2.1875q3.0 1.375 4.421875 3.5q1.4375 2.125 1.4375 4.890625q0 2.734375 -1.578125 5.171875q-1.5625 2.421875 -4.515625 3.78125q-2.9375 1.34375 -6.609375 1.34375q-4.671875 0 -7.828125 -1.359375q-3.140625 -1.375 -4.9375 -4.09375q-1.796875 -2.734375 -1.890625 -6.1875zm42.23437 7.265625l0.609375 3.734375q-1.78125 0.375 -3.1875 0.375q-2.296875 0 -3.5625 -0.71875q-1.265625 -0.734375 -1.78125 -1.921875q-0.515625 -1.1875 -0.515625 -4.984375l0 -14.3125l-3.0937462 0l0 -3.28125l3.0937462 0l0 -6.171875l4.203125 -2.53125l0 8.703125l4.234375 0l0 3.28125l-4.234375 0l0 14.546875q0 1.8125 0.21875 2.328125q0.21875 0.515625 0.71875 0.828125q0.515625 0.296875 1.453125 0.296875q0.703125 0 1.84375 -0.171875zm2.5546875 -8.671875q0 -6.90625 3.84375 -10.234375q3.21875 -2.765625 7.828125 -2.765625q5.140625 0 8.390625 3.359375q3.265625 3.359375 3.265625 9.296875q0 4.796875 -1.453125 7.5625q-1.4375 2.75 -4.1875 4.28125q-2.75 1.515625 -6.015625 1.515625q-5.21875 0 -8.453125 -3.34375q-3.21875 -3.359375 -3.21875 -9.671875zm4.34375 0q0 4.78125 2.078125 7.171875q2.09375 2.375 5.25 2.375q3.140625 0 5.21875 -2.390625q2.09375 -2.390625 2.09375 -7.296875q0 -4.609375 -2.09375 -6.984375q-2.09375 -2.390625 -5.21875 -2.390625q-3.15625 0 -5.25 2.375q-2.078125 2.359375 -2.078125 7.140625zm23.882812 12.453125l0 -24.890625l3.796875 0l0 3.765625q1.453125 -2.640625 2.671875 -3.484375q1.234375 -0.84375 2.71875 -0.84375q2.125 0 4.328125 1.359375l-1.453125 3.90625q-1.546875 -0.90625 -3.09375 -0.90625q-1.375 0 -2.484375 0.828125q-1.09375 0.828125 -1.5625 2.3125q-0.703125 2.25 -0.703125 4.921875l0 13.03125l-4.21875 0zm32.265625 -3.078125q-2.34375 2.0 -4.515625 2.828125q-2.15625 0.8125 -4.640625 0.8125q-4.109375 0 -6.3125 -2.0q-2.203125 -2.015625 -2.203125 -5.125q0 -1.828125 0.828125 -3.34375q0.84375 -1.515625 2.1875 -2.421875q1.34375 -0.921875 3.03125 -1.390625q1.25 -0.328125 3.75 -0.625q5.109375 -0.609375 7.53125 -1.453125q0.015625 -0.875 0.015625 -1.109375q0 -2.578125 -1.1875 -3.625q-1.625 -1.4375 -4.8125 -1.4375q-2.96875 0 -4.390625 1.046875q-1.421875 1.046875 -2.09375 3.6875l-4.125 -0.5625q0.5625 -2.640625 1.84375 -4.265625q1.296875 -1.640625 3.734375 -2.515625q2.4375 -0.875 5.640625 -0.875q3.1875 0 5.171875 0.75q2.0 0.75 2.9375 1.890625q0.9375 1.125 1.3125 2.859375q0.21875 1.078125 0.21875 3.890625l0 5.625q0 5.890625 0.265625 7.453125q0.265625 1.546875 1.0625 2.984375l-4.40625 0q-0.65625 -1.3125 -0.84375 -3.078125zm-0.34375 -9.421875q-2.296875 0.9375 -6.890625 1.59375q-2.609375 0.375 -3.6875 0.84375q-1.078125 0.46875 -1.671875 1.375q-0.578125 0.90625 -0.578125 2.0q0 1.6875 1.28125 2.8125q1.28125 1.125 3.734375 1.125q2.4375 0 4.328125 -1.0625q1.90625 -1.0625 2.796875 -2.921875q0.6875 -1.421875 0.6875 -4.21875l0 -1.546875zm10.0234375 14.5625l4.109375 0.609375q0.25 1.9062576 1.421875 2.7656326q1.578125 1.171875 4.296875 1.171875q2.921875 0 4.515625 -1.171875q1.59375 -1.171875 2.15625 -3.2812576q0.328125 -1.28125 0.3125 -5.421875q-2.765625 3.265625 -6.890625 3.265625q-5.140625 0 -7.953125 -3.703125q-2.8125 -3.703125 -2.8125 -8.890625q0 -3.5625 1.28125 -6.5625q1.296875 -3.015625 3.75 -4.65625q2.453125 -1.640625 5.75 -1.640625q4.40625 0 7.265625 3.5625l0 -3.0l3.890625 0l0 21.515625q0 5.8125 -1.1875 8.234383q-1.171875 2.4375 -3.75 3.84375q-2.5625 1.40625 -6.3125 1.40625q-4.453125 0 -7.203125 -2.015625q-2.734375 -2.0 -2.640625 -6.0312576zm3.5 -14.953125q0 4.890625 1.9375 7.140625q1.953125 2.25 4.875 2.25q2.90625 0 4.875 -2.234375q1.96875 -2.234375 1.96875 -7.015625q0 -4.578125 -2.03125 -6.890625q-2.015625 -2.328125 -4.875 -2.328125q-2.8125 0 -4.78125 2.296875q-1.96875 2.28125 -1.96875 6.78125zm41.007812 4.875l4.359375 0.53125q-1.03125 3.828125 -3.828125 5.9375q-2.78125 2.109375 -7.109375 2.109375q-5.46875 0 -8.671875 -3.359375q-3.1875 -3.375 -3.1875 -9.4375q0 -6.28125 3.234375 -9.75q3.234375 -3.46875 8.390625 -3.46875q4.984375 0 8.140625 3.40625q3.171875 3.390625 3.171875 9.546875q0 0.375 -0.015625 1.125l-18.5625 0q0.234375 4.109375 2.3125 6.296875q2.09375 2.171875 5.203125 2.171875q2.328125 0 3.96875 -1.21875q1.640625 -1.21875 2.59375 -3.890625zm-13.84375 -6.828125l13.890625 0q-0.28125 -3.140625 -1.59375 -4.703125q-2.015625 -2.4375 -5.21875 -2.4375q-2.90625 0 -4.890625 1.953125q-1.984375 1.9375 -2.1875 5.1875z" fill-rule="nonzero"/><path fill="#000000" fill-opacity="0.0" d="m21.288713 168.46457l135.52756 0l0 95.62204l-135.52756 0z" fill-rule="evenodd"/><path fill="#000000" d="m33.80434 223.54457l0 -34.359375l4.546875 0l0 30.296875l16.921875 0l0 4.0625l-21.46875 0zm24.773438 -12.453125q0 -6.90625 3.84375 -10.234375q3.2187462 -2.765625 7.828121 -2.765625q5.140625 0 8.390625 3.359375q3.265625 3.359375 3.265625 9.296875q0 4.796875 -1.453125 7.5625q-1.4375 2.75 -4.1875 4.28125q-2.75 1.515625 -6.015625 1.515625q-5.21875 0 -8.453121 -3.34375q-3.21875 -3.359375 -3.21875 -9.671875zm4.34375 0q0 4.78125 2.0781212 7.171875q2.09375 2.375 5.25 2.375q3.140625 0 5.21875 -2.390625q2.09375 -2.390625 2.09375 -7.296875q0 -4.609375 -2.09375 -6.984375q-2.09375 -2.390625 -5.21875 -2.390625q-3.15625 0 -5.25 2.375q-2.0781212 2.359375 -2.0781212 7.140625zm40.16406 9.375q-2.34375 2.0 -4.515625 2.828125q-2.15625 0.8125 -4.640625 0.8125q-4.109375 0 -6.3125 -2.0q-2.203125 -2.015625 -2.203125 -5.125q0 -1.828125 0.828125 -3.34375q0.84375 -1.515625 2.1875 -2.421875q1.34375 -0.921875 3.03125 -1.390625q1.25 -0.328125 3.75 -0.625q5.109375 -0.609375 7.53125 -1.453125q0.015625 -0.875 0.015625 -1.109375q0 -2.578125 -1.1875 -3.625q-1.625 -1.4375 -4.8125 -1.4375q-2.96875 0 -4.390625 1.046875q-1.421875 1.046875 -2.09375 3.6875l-4.125 -0.5625q0.5625 -2.640625 1.84375 -4.265625q1.296875 -1.640625 3.734375 -2.515625q2.4375 -0.875 5.640625 -0.875q3.1875 0 5.171875 0.75q2.0 0.75 2.9375 1.890625q0.9375 1.125 1.3125 2.859375q0.21875 1.078125 0.21875 3.890625l0 5.625q0 5.890625 0.265625 7.453125q0.265625 1.546875 1.0625 2.984375l-4.40625 0q-0.65625 -1.3125 -0.84375 -3.078125zm-0.34375 -9.421875q-2.296875 0.9375 -6.890625 1.59375q-2.609375 0.375 -3.6875 0.84375q-1.078125 0.46875 -1.671875 1.375q-0.578125 0.90625 -0.578125 2.0q0 1.6875 1.28125 2.8125q1.28125 1.125 3.734375 1.125q2.4375 0 4.328125 -1.0625q1.90625 -1.0625 2.796875 -2.921875q0.6875 -1.421875 0.6875 -4.21875l0 -1.546875zm26.945312 12.5l0 -3.140625q-2.359375 3.703125 -6.953125 3.703125q-2.984375 0 -5.484375 -1.640625q-2.484375 -1.640625 -3.859375 -4.578125q-1.375 -2.953125 -1.375 -6.765625q0 -3.734375 1.234375 -6.765625q1.25 -3.03125 3.734375 -4.640625q2.484375 -1.625 5.5625 -1.625q2.25 0 4.0 0.953125q1.765625 0.9375 2.859375 2.46875l0 -12.328125l4.203125 0l0 34.359375l-3.921875 0zm-13.328125 -12.421875q0 4.78125 2.015625 7.15625q2.015625 2.359375 4.75 2.359375q2.765625 0 4.703125 -2.265625q1.9375 -2.265625 1.9375 -6.90625q0 -5.109375 -1.96875 -7.5q-1.96875 -2.390625 -4.859375 -2.390625q-2.8125 0 -4.703125 2.296875q-1.875 2.296875 -1.875 7.25z" fill-rule="nonzero"/><path fill="#ea9999" d="m306.3386 63.204723l75.40155 0l0 58.330708l-75.40155 0z" fill-rule="evenodd"/><path stroke="#000000" stroke-width="1.0" stroke-linejoin="round" stroke-linecap="butt" d="m306.3386 63.204723l75.40155 0l0 58.330708l-75.40155 0z" fill-rule="evenodd"/><path fill="#000000" d="m338.75266 109.45008l-9.46875 -24.890625l4.453125 0l5.34375 14.90625q0.875 2.40625 1.59375 5.015625q0.5625 -1.96875 1.578125 -4.734375l5.53125 -15.1875l4.328125 0l-9.421875 24.890625l-3.9375 0z" fill-rule="nonzero"/><path fill="#f9cb9c" d="m401.8714 63.204723l75.40158 0l0 89.732285l-75.40158 0z" fill-rule="evenodd"/><path stroke="#000000" stroke-width="1.0" stroke-linejoin="round" stroke-linecap="butt" d="m401.8714 63.204723l75.40158 0l0 89.732285l-75.40158 0z" fill-rule="evenodd"/><path fill="#000000" d="m428.0042 125.15086l0 -34.359375l24.84375 0l0 4.046875l-20.296875 0l0 10.53125l19.015625 0l0 4.03125l-19.015625 0l0 11.6875l21.09375 0l0 4.0625l-25.640625 0z" fill-rule="nonzero"/><path fill="#b6d7a8" d="m497.4042 63.204723l75.40158 0l0 142.80315l-75.40158 0z" fill-rule="evenodd"/><path stroke="#000000" stroke-width="1.0" stroke-linejoin="round" stroke-linecap="butt" d="m497.4042 63.204723l75.40158 0l0 142.80315l-75.40158 0z" fill-rule="evenodd"/><path fill="#000000" d="m523.44324 151.6863l0 -34.359375l12.96875 0q3.421875 0 5.21875 0.328125q2.53125 0.421875 4.234375 1.609375q1.71875 1.171875 2.765625 3.3125q1.046875 2.125 1.046875 4.6875q0 4.375 -2.796875 7.421875q-2.78125 3.03125 -10.078125 3.03125l-8.8125 0l0 13.96875l-4.546875 0zm4.546875 -18.03125l8.890625 0q4.40625 0 6.25 -1.640625q1.859375 -1.640625 1.859375 -4.609375q0 -2.15625 -1.09375 -3.6875q-1.09375 -1.546875 -2.875 -2.03125q-1.140625 -0.3125 -4.234375 -0.3125l-8.796875 0l0 12.28125z" fill-rule="nonzero"/><path fill="#000000" fill-opacity="0.0" d="m631.22046 220.2441l-268.53543 50.67717" fill-rule="evenodd"/><path stroke="#000000" stroke-width="3.0" stroke-linejoin="round" stroke-linecap="butt" d="m631.22046 220.2441l-250.84763 47.339188" fill-rule="evenodd"/><path fill="#000000" stroke="#000000" stroke-width="3.0" stroke-linecap="butt" d="m379.45392 262.71402l-12.4592285 7.3939514l14.297058 2.3445435z" fill-rule="evenodd"/><path fill="#b6d7a8" d="m306.3386 288.50656l46.80313 0l0 49.826782l-46.80313 0z" fill-rule="evenodd"/><path stroke="#000000" stroke-width="1.0" stroke-linejoin="round" stroke-linecap="butt" d="m306.3386 288.50656l46.80313 0l0 49.826782l-46.80313 0z" fill-rule="evenodd"/><path fill="#ea9999" d="m306.3386 348.1076l46.80313 0l0 18.70868l-46.80313 0z" fill-rule="evenodd"/><path stroke="#000000" stroke-width="1.0" stroke-linejoin="round" stroke-linecap="butt" d="m306.3386 348.1076l46.80313 0l0 18.70868l-46.80313 0z" fill-rule="evenodd"/><path fill="#f9cb9c" d="m367.65616 288.50656l46.80316 0l0 29.921265l-46.80316 0z" fill-rule="evenodd"/><path stroke="#000000" stroke-width="1.0" stroke-linejoin="round" stroke-linecap="butt" d="m367.65616 288.50656l46.80316 0l0 29.921265l-46.80316 0z" fill-rule="evenodd"/><path fill="#000000" fill-opacity="0.0" d="m468.7454 270.91077l135.52756 0l0 135.52756l-135.52756 0z" fill-rule="evenodd"/><path stroke="#000000" stroke-width="3.0" stroke-linejoin="round" stroke-linecap="butt" d="m468.7454 270.91077l135.52756 0l0 135.52756l-135.52756 0z" fill-rule="evenodd"/><path fill="#000000" fill-opacity="0.0" d="m631.22046 220.2441l-94.70862 50.67717" fill-rule="evenodd"/><path stroke="#000000" stroke-width="3.0" stroke-linejoin="round" stroke-linecap="butt" d="m631.22046 220.2441l-78.83789 42.18492" fill-rule="evenodd"/><path fill="#000000" stroke="#000000" stroke-width="3.0" stroke-linecap="butt" d="m550.0448 258.06l-9.666077 10.792114l14.341675 -2.054016z" fill-rule="evenodd"/><path fill="#b6d7a8" d="m480.15222 288.50656l46.80316 0l0 49.826782l-46.80316 0z" fill-rule="evenodd"/><path stroke="#000000" stroke-width="1.0" stroke-linejoin="round" stroke-linecap="butt" d="m480.15222 288.50656l46.80316 0l0 49.826782l-46.80316 0z" fill-rule="evenodd"/><path fill="#ea9999" d="m480.15222 348.1076l46.80316 0l0 18.70868l-46.80316 0z" fill-rule="evenodd"/><path stroke="#000000" stroke-width="1.0" stroke-linejoin="round" stroke-linecap="butt" d="m480.15222 348.1076l46.80316 0l0 18.70868l-46.80316 0z" fill-rule="evenodd"/><path fill="#f9cb9c" d="m541.4698 288.50656l46.80316 0l0 29.921265l-46.80316 0z" fill-rule="evenodd"/><path stroke="#000000" stroke-width="1.0" stroke-linejoin="round" stroke-linecap="butt" d="m541.4698 288.50656l46.80316 0l0 29.921265l-46.80316 0z" fill-rule="evenodd"/><path fill="#000000" fill-opacity="0.0" d="m838.03937 270.91077l135.52759 0l0 135.52756l-135.52759 0z" fill-rule="evenodd"/><path stroke="#000000" stroke-width="3.0" stroke-linejoin="round" stroke-linecap="butt" d="m838.03937 270.91077l135.52759 0l0 135.52756l-135.52759 0z" fill-rule="evenodd"/><path fill="#000000" fill-opacity="0.0" d="m631.22046 220.2441l274.5827 50.67717" fill-rule="evenodd"/><path stroke="#000000" stroke-width="3.0" stroke-linejoin="round" stroke-linecap="butt" d="m631.22046 220.2441l256.88165 47.410263" fill-rule="evenodd"/><path fill="#000000" stroke="#000000" stroke-width="3.0" stroke-linecap="butt" d="m887.20276 272.52725l14.287537 -2.4019775l-12.488831 -7.3438416z" fill-rule="evenodd"/><path fill="#b6d7a8" d="m849.44617 288.50656l46.80316 0l0 49.826782l-46.80316 0z" fill-rule="evenodd"/><path stroke="#000000" stroke-width="1.0" stroke-linejoin="round" stroke-linecap="butt" d="m849.44617 288.50656l46.80316 0l0 49.826782l-46.80316 0z" fill-rule="evenodd"/><path fill="#ea9999" d="m849.44617 348.1076l46.80316 0l0 18.70868l-46.80316 0z" fill-rule="evenodd"/><path stroke="#000000" stroke-width="1.0" stroke-linejoin="round" stroke-linecap="butt" d="m849.44617 348.1076l46.80316 0l0 18.70868l-46.80316 0z" fill-rule="evenodd"/><path fill="#f9cb9c" d="m910.7638 288.50656l46.80316 0l0 29.921265l-46.80316 0z" fill-rule="evenodd"/><path stroke="#000000" stroke-width="1.0" stroke-linejoin="round" stroke-linecap="butt" d="m910.7638 288.50656l46.80316 0l0 29.921265l-46.80316 0z" fill-rule="evenodd"/><path fill="#000000" fill-opacity="0.0" d="m642.55774 270.91077l135.52759 0l0 135.52756l-135.52759 0z" fill-rule="evenodd"/><path stroke="#000000" stroke-width="3.0" stroke-linejoin="round" stroke-linecap="butt" d="m642.55774 270.91077l135.52759 0l0 135.52756l-135.52759 0z" fill-rule="evenodd"/><path fill="#000000" fill-opacity="0.0" d="m631.22046 220.2441l79.08661 50.67717" fill-rule="evenodd"/><path stroke="#000000" stroke-width="3.0" stroke-linejoin="round" stroke-linecap="butt" d="m631.22046 220.2441l63.93109 40.965805" fill-rule="evenodd"/><path fill="#000000" stroke="#000000" stroke-width="3.0" stroke-linecap="butt" d="m692.47815 265.38205l14.1362915 3.1730347l-8.789429 -11.517334z" fill-rule="evenodd"/><path fill="#b6d7a8" d="m653.96454 288.50656l46.80316 0l0 49.826782l-46.80316 0z" fill-rule="evenodd"/><path stroke="#000000" stroke-width="1.0" stroke-linejoin="round" stroke-linecap="butt" d="m653.96454 288.50656l46.80316 0l0 49.826782l-46.80316 0z" fill-rule="evenodd"/><path fill="#ea9999" d="m653.96454 348.1076l46.80316 0l0 18.70868l-46.80316 0z" fill-rule="evenodd"/><path stroke="#000000" stroke-width="1.0" stroke-linejoin="round" stroke-linecap="butt" d="m653.96454 348.1076l46.80316 0l0 18.70868l-46.80316 0z" fill-rule="evenodd"/><path fill="#f9cb9c" d="m715.28217 288.50656l46.80316 0l0 29.921265l-46.80316 0z" fill-rule="evenodd"/><path stroke="#000000" stroke-width="1.0" stroke-linejoin="round" stroke-linecap="butt" d="m715.28217 288.50656l46.80316 0l0 29.921265l-46.80316 0z" fill-rule="evenodd"/><path fill="#000000" fill-opacity="0.0" d="m291.9029 494.67978l135.52756 0l0 135.52756l-135.52756 0z" fill-rule="evenodd"/><path stroke="#000000" stroke-width="3.0" stroke-linejoin="round" stroke-linecap="butt" d="m291.9029 494.67978l135.52756 0l0 135.52756l-135.52756 0z" fill-rule="evenodd"/><path fill="#b6d7a8" d="m303.30972 512.2756l46.80313 0l0 49.826782l-46.80313 0z" fill-rule="evenodd"/><path stroke="#000000" stroke-width="1.0" stroke-linejoin="round" stroke-linecap="butt" d="m303.30972 512.2756l46.80313 0l0 49.826782l-46.80313 0z" fill-rule="evenodd"/><path fill="#ea9999" d="m303.30972 571.87665l46.80313 0l0 18.70868l-46.80313 0z" fill-rule="evenodd"/><path stroke="#000000" stroke-width="1.0" stroke-linejoin="round" stroke-linecap="butt" d="m303.30972 571.87665l46.80313 0l0 18.70868l-46.80313 0z" fill-rule="evenodd"/><path fill="#f9cb9c" d="m364.6273 512.2756l46.80316 0l0 18.70868l-46.80316 0z" fill-rule="evenodd"/><path stroke="#000000" stroke-width="1.0" stroke-linejoin="round" stroke-linecap="butt" d="m364.6273 512.2756l46.80316 0l0 18.70868l-46.80316 0z" fill-rule="evenodd"/><path fill="#000000" fill-opacity="0.0" d="m465.71652 494.67978l135.52756 0l0 135.52756l-135.52756 0z" fill-rule="evenodd"/><path stroke="#000000" stroke-width="3.0" stroke-linejoin="round" stroke-linecap="butt" d="m465.71652 494.67978l135.52756 0l0 135.52756l-135.52756 0z" fill-rule="evenodd"/><path fill="#b6d7a8" d="m477.12335 512.2756l46.80316 0l0 49.826782l-46.80316 0z" fill-rule="evenodd"/><path stroke="#000000" stroke-width="1.0" stroke-linejoin="round" stroke-linecap="butt" d="m477.12335 512.2756l46.80316 0l0 49.826782l-46.80316 0z" fill-rule="evenodd"/><path fill="#ea9999" d="m477.12335 571.87665l46.80316 0l0 18.70868l-46.80316 0z" fill-rule="evenodd"/><path stroke="#000000" stroke-width="1.0" stroke-linejoin="round" stroke-linecap="butt" d="m477.12335 571.87665l46.80316 0l0 18.70868l-46.80316 0z" fill-rule="evenodd"/><path fill="#f9cb9c" d="m538.4409 512.2756l46.80316 0l0 71.275635l-46.80316 0z" fill-rule="evenodd"/><path stroke="#000000" stroke-width="1.0" stroke-linejoin="round" stroke-linecap="butt" d="m538.4409 512.2756l46.80316 0l0 71.275635l-46.80316 0z" fill-rule="evenodd"/><path fill="#000000" fill-opacity="0.0" d="m835.0105 494.67978l135.52759 0l0 135.52756l-135.52759 0z" fill-rule="evenodd"/><path stroke="#000000" stroke-width="3.0" stroke-linejoin="round" stroke-linecap="butt" d="m835.0105 494.67978l135.52759 0l0 135.52756l-135.52759 0z" fill-rule="evenodd"/><path fill="#b6d7a8" d="m846.4173 512.2756l46.80316 0l0 49.826782l-46.80316 0z" fill-rule="evenodd"/><path stroke="#000000" stroke-width="1.0" stroke-linejoin="round" stroke-linecap="butt" d="m846.4173 512.2756l46.80316 0l0 49.826782l-46.80316 0z" fill-rule="evenodd"/><path fill="#ea9999" d="m846.4173 571.87665l46.80316 0l0 18.70868l-46.80316 0z" fill-rule="evenodd"/><path stroke="#000000" stroke-width="1.0" stroke-linejoin="round" stroke-linecap="butt" d="m846.4173 571.87665l46.80316 0l0 18.70868l-46.80316 0z" fill-rule="evenodd"/><path fill="#f9cb9c" d="m907.7349 512.2756l46.80316 0l0 18.70868l-46.80316 0z" fill-rule="evenodd"/><path stroke="#000000" stroke-width="1.0" stroke-linejoin="round" stroke-linecap="butt" d="m907.7349 512.2756l46.80316 0l0 18.70868l-46.80316 0z" fill-rule="evenodd"/><path fill="#000000" fill-opacity="0.0" d="m639.5289 494.67978l135.52759 0l0 135.52756l-135.52759 0z" fill-rule="evenodd"/><path stroke="#000000" stroke-width="3.0" stroke-linejoin="round" stroke-linecap="butt" d="m639.5289 494.67978l135.52759 0l0 135.52756l-135.52759 0z" fill-rule="evenodd"/><path fill="#b6d7a8" d="m650.93567 512.2756l46.80316 0l0 49.826782l-46.80316 0z" fill-rule="evenodd"/><path stroke="#000000" stroke-width="1.0" stroke-linejoin="round" stroke-linecap="butt" d="m650.93567 512.2756l46.80316 0l0 49.826782l-46.80316 0z" fill-rule="evenodd"/><path fill="#ea9999" d="m650.93567 571.87665l46.80316 0l0 18.70868l-46.80316 0z" fill-rule="evenodd"/><path stroke="#000000" stroke-width="1.0" stroke-linejoin="round" stroke-linecap="butt" d="m650.93567 571.87665l46.80316 0l0 18.70868l-46.80316 0z" fill-rule="evenodd"/><path fill="#f9cb9c" d="m712.2546 512.2756l46.80316 0l0 49.826782l-46.80316 0z" fill-rule="evenodd"/><path stroke="#000000" stroke-width="1.0" stroke-linejoin="round" stroke-linecap="butt" d="m712.2546 512.2756l46.80316 0l0 49.826782l-46.80316 0z" fill-rule="evenodd"/><path fill="#000000" fill-opacity="0.0" d="m291.9029 726.3307l135.52756 0l0 135.52759l-135.52756 0z" fill-rule="evenodd"/><path stroke="#000000" stroke-width="3.0" stroke-linejoin="round" stroke-linecap="butt" d="m291.9029 726.3307l135.52756 0l0 135.52759l-135.52756 0z" fill-rule="evenodd"/><path fill="#b6d7a8" d="m303.30972 743.9265l46.80313 0l0 49.826782l-46.80313 0z" fill-rule="evenodd"/><path stroke="#000000" stroke-width="1.0" stroke-linejoin="round" stroke-linecap="butt" d="m303.30972 743.9265l46.80313 0l0 49.826782l-46.80313 0z" fill-rule="evenodd"/><path fill="#ea9999" d="m303.30972 803.5276l46.80313 0l0 18.708618l-46.80313 0z" fill-rule="evenodd"/><path stroke="#000000" stroke-width="1.0" stroke-linejoin="round" stroke-linecap="butt" d="m303.30972 803.5276l46.80313 0l0 18.708618l-46.80313 0z" fill-rule="evenodd"/><path fill="#f9cb9c" d="m364.6273 743.9265l46.80316 0l0 71.27557l-46.80316 0z" fill-rule="evenodd"/><path stroke="#000000" stroke-width="1.0" stroke-linejoin="round" stroke-linecap="butt" d="m364.6273 743.9265l46.80316 0l0 71.27557l-46.80316 0z" fill-rule="evenodd"/><path fill="#000000" fill-opacity="0.0" d="m465.71652 726.3307l135.52756 0l0 135.52759l-135.52756 0z" fill-rule="evenodd"/><path stroke="#000000" stroke-width="3.0" stroke-linejoin="round" stroke-linecap="butt" d="m465.71652 726.3307l135.52756 0l0 135.52759l-135.52756 0z" fill-rule="evenodd"/><path fill="#b6d7a8" d="m477.12335 743.9265l46.80316 0l0 49.826782l-46.80316 0z" fill-rule="evenodd"/><path stroke="#000000" stroke-width="1.0" stroke-linejoin="round" stroke-linecap="butt" d="m477.12335 743.9265l46.80316 0l0 49.826782l-46.80316 0z" fill-rule="evenodd"/><path fill="#ea9999" d="m477.12335 803.5276l46.80316 0l0 18.708618l-46.80316 0z" fill-rule="evenodd"/><path stroke="#000000" stroke-width="1.0" stroke-linejoin="round" stroke-linecap="butt" d="m477.12335 803.5276l46.80316 0l0 18.708618l-46.80316 0z" fill-rule="evenodd"/><path fill="#f9cb9c" d="m538.4409 743.9265l46.80316 0l0 49.826782l-46.80316 0z" fill-rule="evenodd"/><path stroke="#000000" stroke-width="1.0" stroke-linejoin="round" stroke-linecap="butt" d="m538.4409 743.9265l46.80316 0l0 49.826782l-46.80316 0z" fill-rule="evenodd"/><path fill="#000000" fill-opacity="0.0" d="m835.0105 726.3307l135.52759 0l0 135.52759l-135.52759 0z" fill-rule="evenodd"/><path stroke="#000000" stroke-width="3.0" stroke-linejoin="round" stroke-linecap="butt" d="m835.0105 726.3307l135.52759 0l0 135.52759l-135.52759 0z" fill-rule="evenodd"/><path fill="#b6d7a8" d="m846.4173 743.9265l46.80316 0l0 49.826782l-46.80316 0z" fill-rule="evenodd"/><path stroke="#000000" stroke-width="1.0" stroke-linejoin="round" stroke-linecap="butt" d="m846.4173 743.9265l46.80316 0l0 49.826782l-46.80316 0z" fill-rule="evenodd"/><path fill="#ea9999" d="m846.4173 803.5276l46.80316 0l0 18.708618l-46.80316 0z" fill-rule="evenodd"/><path stroke="#000000" stroke-width="1.0" stroke-linejoin="round" stroke-linecap="butt" d="m846.4173 803.5276l46.80316 0l0 18.708618l-46.80316 0z" fill-rule="evenodd"/><path fill="#f9cb9c" d="m907.7349 743.9265l46.80316 0l0 58.33069l-46.80316 0z" fill-rule="evenodd"/><path stroke="#000000" stroke-width="1.0" stroke-linejoin="round" stroke-linecap="butt" d="m907.7349 743.9265l46.80316 0l0 58.33069l-46.80316 0z" fill-rule="evenodd"/><path fill="#000000" fill-opacity="0.0" d="m639.5289 726.3307l135.52759 0l0 135.52759l-135.52759 0z" fill-rule="evenodd"/><path stroke="#000000" stroke-width="3.0" stroke-linejoin="round" stroke-linecap="butt" d="m639.5289 726.3307l135.52759 0l0 135.52759l-135.52759 0z" fill-rule="evenodd"/><path fill="#b6d7a8" d="m650.93567 743.9265l46.80316 0l0 49.826782l-46.80316 0z" fill-rule="evenodd"/><path stroke="#000000" stroke-width="1.0" stroke-linejoin="round" stroke-linecap="butt" d="m650.93567 743.9265l46.80316 0l0 49.826782l-46.80316 0z" fill-rule="evenodd"/><path fill="#ea9999" d="m650.93567 803.5276l46.80316 0l0 18.708618l-46.80316 0z" fill-rule="evenodd"/><path stroke="#000000" stroke-width="1.0" stroke-linejoin="round" stroke-linecap="butt" d="m650.93567 803.5276l46.80316 0l0 18.708618l-46.80316 0z" fill-rule="evenodd"/><path fill="#f9cb9c" d="m712.2546 743.9265l46.80316 0l0 50.677185l-46.80316 0z" fill-rule="evenodd"/><path stroke="#000000" stroke-width="1.0" stroke-linejoin="round" stroke-linecap="butt" d="m712.2546 743.9265l46.80316 0l0 50.677185l-46.80316 0z" fill-rule="evenodd"/><path fill="#000000" fill-opacity="0.0" d="m21.288713 385.82416l284.6929 0l0 95.62204l-284.6929 0z" fill-rule="evenodd"/><path fill="#000000" d="m34.132465 440.90414l0 -34.359375l4.546875 0l0 14.109375l17.859375 0l0 -14.109375l4.546875 0l0 34.359375l-4.546875 0l0 -16.203125l-17.859375 0l0 16.203125l-4.546875 0zm59.03906 -12.046875l4.546875 1.140625q-1.421875 5.609375 -5.140625 8.5625q-3.71875 2.9375 -9.078125 2.9375q-5.5625 0 -9.046875 -2.265625q-3.46875 -2.265625 -5.296875 -6.546875q-1.8125 -4.296875 -1.8125 -9.21875q0 -5.375 2.046875 -9.359375q2.0625 -4.0 5.84375 -6.078125q3.78125 -2.078125 8.328125 -2.078125q5.15625 0 8.671875 2.625q3.515625 2.625 4.90625 7.390625l-4.484375 1.046875q-1.1875 -3.75 -3.46875 -5.453125q-2.265625 -1.71875 -5.71875 -1.71875q-3.953125 0 -6.625 1.90625q-2.65625 1.890625 -3.734375 5.09375q-1.078125 3.203125 -1.078125 6.59375q0 4.390625 1.28125 7.65625q1.28125 3.265625 3.96875 4.890625q2.703125 1.609375 5.84375 1.609375q3.8125 0 6.453125 -2.203125q2.65625 -2.203125 3.59375 -6.53125zm21.9375 1.0l4.296875 -0.375q0.296875 2.578125 1.40625 4.234375q1.125 1.65625 3.46875 2.671875q2.34375 1.015625 5.265625 1.015625q2.609375 0 4.59375 -0.765625q2.0 -0.78125 2.96875 -2.125q0.96875 -1.34375 0.96875 -2.9375q0 -1.625 -0.9375 -2.828125q-0.9375 -1.203125 -3.09375 -2.03125q-1.375 -0.53125 -6.109375 -1.671875q-4.734375 -1.140625 -6.640625 -2.140625q-2.453125 -1.296875 -3.671875 -3.203125q-1.203125 -1.90625 -1.203125 -4.28125q0 -2.59375 1.46875 -4.859375q1.484375 -2.265625 4.3125 -3.4375q2.84375 -1.171875 6.3125 -1.171875q3.828125 0 6.734375 1.234375q2.921875 1.234375 4.484375 3.625q1.578125 2.390625 1.703125 5.40625l-4.359375 0.328125q-0.359375 -3.25 -2.390625 -4.90625q-2.015625 -1.671875 -5.984375 -1.671875q-4.125 0 -6.015625 1.515625q-1.875 1.5 -1.875 3.640625q0 1.84375 1.328125 3.046875q1.3125 1.1875 6.859375 2.453125q5.546875 1.25 7.609375 2.1875q3.0 1.375 4.421875 3.5q1.4375 2.125 1.4375 4.890625q0 2.734375 -1.578125 5.171875q-1.5625 2.421875 -4.515625 3.78125q-2.9375 1.34375 -6.609375 1.34375q-4.671875 0 -7.828125 -1.359375q-3.140625 -1.375 -4.9375 -4.09375q-1.796875 -2.734375 -1.890625 -6.1875zm33.03125 11.046875l0 -34.359375l4.21875 0l0 12.328125q2.953125 -3.421875 7.453125 -3.421875q2.765625 0 4.796875 1.09375q2.046875 1.078125 2.921875 3.0q0.875 1.921875 0.875 5.578125l0 15.78125l-4.21875 0l0 -15.78125q0 -3.15625 -1.375 -4.59375q-1.359375 -1.453125 -3.875 -1.453125q-1.875 0 -3.53125 0.984375q-1.640625 0.96875 -2.34375 2.640625q-0.703125 1.65625 -0.703125 4.578125l0 13.625l-4.21875 0zm43.007812 0l0 -3.65625q-2.90625 4.21875 -7.90625 4.21875q-2.203125 0 -4.109375 -0.84375q-1.90625 -0.84375 -2.84375 -2.125q-0.921875 -1.28125 -1.296875 -3.125q-0.25 -1.25 -0.25 -3.9375l0 -15.421875l4.21875 0l0 13.796875q0 3.3125 0.25 4.453125q0.40625 1.671875 1.6875 2.625q1.296875 0.9375 3.1875 0.9375q1.90625 0 3.5625 -0.96875q1.671875 -0.96875 2.359375 -2.640625q0.6875 -1.6875 0.6875 -4.875l0 -13.328125l4.21875 0l0 24.890625l-3.765625 0zm11.3828125 0l0 -21.609375l-3.71875 0l0 -3.28125l3.71875 0l0 -2.65625q0 -2.5 0.453125 -3.71875q0.609375 -1.640625 2.140625 -2.65625q1.53125 -1.03125 4.296875 -1.03125q1.78125 0 3.9375 0.421875l-0.625 3.6875q-1.3125 -0.234375 -2.484375 -0.234375q-1.921875 0 -2.71875 0.828125q-0.796875 0.8125 -0.796875 3.0625l0 2.296875l4.84375 0l0 3.28125l-4.84375 0l0 21.609375l-4.203125 0zm12.46875 0l0 -21.609375l-3.71875 0l0 -3.28125l3.71875 0l0 -2.65625q0 -2.5 0.453125 -3.71875q0.609375 -1.640625 2.140625 -2.65625q1.53125 -1.03125 4.296875 -1.03125q1.78125 0 3.9375 0.421875l-0.625 3.6875q-1.3125 -0.234375 -2.484375 -0.234375q-1.921875 0 -2.71875 0.828125q-0.796875 0.8125 -0.796875 3.0625l0 2.296875l4.84375 0l0 3.28125l-4.84375 0l0 21.609375l-4.203125 0zm12.2421875 0l0 -34.359375l4.21875 0l0 34.359375l-4.21875 0zm27.789062 -8.015625l4.3593903 0.53125q-1.03125 3.828125 -3.8281403 5.9375q-2.78125 2.109375 -7.109375 2.109375q-5.46875 0 -8.671875 -3.359375q-3.1875 -3.375 -3.1875 -9.4375q0 -6.28125 3.234375 -9.75q3.234375 -3.46875 8.390625 -3.46875q4.984375 0 8.14064 3.40625q3.171875 3.390625 3.171875 9.546875q0 0.375 -0.015625 1.125l-18.562515 0q0.234375 4.109375 2.3125 6.296875q2.09375 2.171875 5.203125 2.171875q2.328125 0 3.96875 -1.21875q1.640625 -1.21875 2.59375 -3.890625zm-13.84375 -6.828125l13.890625 0q-0.28125 -3.140625 -1.59375 -4.703125q-2.015625 -2.4375 -5.21875 -2.4375q-2.90625 0 -4.890625 1.953125q-1.984375 1.9375 -2.1875 5.1875z" fill-rule="nonzero"/><path fill="#000000" fill-opacity="0.0" d="m24.671917 633.2047l284.69293 0l0 95.62207l-284.69293 0z" fill-rule="evenodd"/><path fill="#000000" d="m37.515667 688.2847l0 -34.359375l4.546875 0l0 14.109375l17.859375 0l0 -14.109375l4.546871 0l0 34.359375l-4.546871 0l0 -16.203125l-17.859375 0l0 16.203125l-4.546875 0zm59.03906 -12.046875l4.546875 1.140625q-1.421875 5.609375 -5.140625 8.5625q-3.71875 2.9375 -9.078125 2.9375q-5.5625 0 -9.046875 -2.265625q-3.46875 -2.265625 -5.296875 -6.546875q-1.8125 -4.296875 -1.8125 -9.21875q0 -5.375 2.046875 -9.359375q2.0625 -4.0 5.84375 -6.078125q3.78125 -2.078125 8.328125 -2.078125q5.15625 0 8.671875 2.625q3.515625 2.625 4.90625 7.390625l-4.484375 1.046875q-1.1875 -3.75 -3.46875 -5.453125q-2.265625 -1.71875 -5.71875 -1.71875q-3.953125 0 -6.625 1.90625q-2.65625 1.890625 -3.734375 5.09375q-1.078125 3.203125 -1.078125 6.59375q0 4.390625 1.28125 7.65625q1.28125 3.265625 3.96875 4.890625q2.703125 1.609375 5.84375 1.609375q3.8125 0 6.453125 -2.203125q2.65625 -2.203125 3.59375 -6.53125zm21.9375 1.0l4.296875 -0.375q0.296875 2.578125 1.40625 4.234375q1.125 1.65625 3.46875 2.671875q2.3437576 1.015625 5.2656326 1.015625q2.609375 0 4.59375 -0.765625q2.0 -0.78125 2.96875 -2.125q0.96875 -1.34375 0.96875 -2.9375q0 -1.625 -0.9375 -2.828125q-0.9375 -1.203125 -3.09375 -2.03125q-1.375 -0.53125 -6.109375 -1.671875q-4.7343826 -1.140625 -6.6406326 -2.140625q-2.453125 -1.296875 -3.671875 -3.203125q-1.203125 -1.90625 -1.203125 -4.28125q0 -2.59375 1.46875 -4.859375q1.484375 -2.265625 4.3125 -3.4375q2.8437576 -1.171875 6.3125076 -1.171875q3.828125 0 6.734375 1.234375q2.921875 1.234375 4.484375 3.625q1.578125 2.390625 1.703125 5.40625l-4.359375 0.328125q-0.359375 -3.25 -2.390625 -4.90625q-2.015625 -1.671875 -5.984375 -1.671875q-4.1250076 0 -6.0156326 1.515625q-1.875 1.5 -1.875 3.640625q0 1.84375 1.328125 3.046875q1.3125 1.1875 6.8593826 2.453125q5.546875 1.25 7.609375 2.1875q3.0 1.375 4.421875 3.5q1.4375 2.125 1.4375 4.890625q0 2.734375 -1.578125 5.171875q-1.5625 2.421875 -4.515625 3.78125q-2.9375 1.34375 -6.609375 1.34375q-4.671875 0 -7.8281326 -1.359375q-3.140625 -1.375 -4.9375 -4.09375q-1.796875 -2.734375 -1.890625 -6.1875zm33.031258 11.046875l0 -34.359375l4.21875 0l0 12.328125q2.953125 -3.421875 7.453125 -3.421875q2.765625 0 4.796875 1.09375q2.046875 1.078125 2.921875 3.0q0.875 1.921875 0.875 5.578125l0 15.78125l-4.21875 0l0 -15.78125q0 -3.15625 -1.375 -4.59375q-1.359375 -1.453125 -3.875 -1.453125q-1.875 0 -3.53125 0.984375q-1.640625 0.96875 -2.34375 2.640625q-0.703125 1.65625 -0.703125 4.578125l0 13.625l-4.21875 0zm43.007812 0l0 -3.65625q-2.90625 4.21875 -7.90625 4.21875q-2.203125 0 -4.109375 -0.84375q-1.90625 -0.84375 -2.84375 -2.125q-0.921875 -1.28125 -1.296875 -3.125q-0.25 -1.25 -0.25 -3.9375l0 -15.421875l4.21875 0l0 13.796875q0 3.3125 0.25 4.453125q0.40625 1.671875 1.6875 2.625q1.296875 0.9375 3.1875 0.9375q1.90625 0 3.5625 -0.96875q1.671875 -0.96875 2.359375 -2.640625q0.6875 -1.6875 0.6875 -4.875l0 -13.328125l4.21875 0l0 24.890625l-3.765625 0zm11.3828125 0l0 -21.609375l-3.71875 0l0 -3.28125l3.71875 0l0 -2.65625q0 -2.5 0.453125 -3.71875q0.609375 -1.640625 2.140625 -2.65625q1.53125 -1.03125 4.296875 -1.03125q1.78125 0 3.9375 0.421875l-0.625 3.6875q-1.3125 -0.234375 -2.484375 -0.234375q-1.921875 0 -2.71875 0.828125q-0.796875 0.8125 -0.796875 3.0625l0 2.296875l4.84375 0l0 3.28125l-4.84375 0l0 21.609375l-4.203125 0zm12.46875 0l0 -21.609375l-3.71875 0l0 -3.28125l3.71875 0l0 -2.65625q0 -2.5 0.453125 -3.71875q0.609375 -1.640625 2.140625 -2.65625q1.53125 -1.03125 4.296875 -1.03125q1.78125 0 3.9375 0.421875l-0.625 3.6875q-1.3125 -0.234375 -2.484375 -0.234375q-1.921875 0 -2.71875 0.828125q-0.796875 0.8125 -0.796875 3.0625l0 2.296875l4.84375 0l0 3.28125l-4.84375 0l0 21.609375l-4.203125 0zm12.2421875 0l0 -34.359375l4.21875 0l0 34.359375l-4.21875 0zm27.789047 -8.015625l4.359375 0.53125q-1.03125 3.828125 -3.828125 5.9375q-2.78125 2.109375 -7.1093597 2.109375q-5.46875 0 -8.671875 -3.359375q-3.1875 -3.375 -3.1875 -9.4375q0 -6.28125 3.234375 -9.75q3.234375 -3.46875 8.390625 -3.46875q4.9843597 0 8.14061 3.40625q3.171875 3.390625 3.171875 9.546875q0 0.375 -0.015625 1.125l-18.562485 0q0.234375 4.109375 2.3125 6.296875q2.09375 2.171875 5.203125 2.171875q2.328125 0 3.96875 -1.21875q1.6406097 -1.21875 2.5937347 -3.890625zm-13.843735 -6.828125l13.89061 0q-0.28125 -3.140625 -1.59375 -4.703125q-2.0156097 -2.4375 -5.2187347 -2.4375q-2.90625 0 -4.890625 1.953125q-1.984375 1.9375 -2.1875 5.1875z" fill-rule="nonzero"/><path fill="#000000" fill-opacity="0.0" d="m24.671917 509.51312l284.69293 0l0 95.62207l-284.69293 0z" fill-rule="evenodd"/><path fill="#000000" d="m46.046917 560.8119l0.609375 3.734375q-1.78125 0.375 -3.1875 0.375q-2.296875 0 -3.5625 -0.71875q-1.265625 -0.734375 -1.78125 -1.921875q-0.515625 -1.1875 -0.515625 -4.984375l0 -14.3125l-3.09375 0l0 -3.28125l3.09375 0l0 -6.171875l4.203125 -2.53125l0 8.703125l4.234375 0l0 3.28125l-4.234375 0l0 14.546875q0 1.8125 0.21875 2.328125q0.21875 0.515625 0.71875 0.828125q0.515625 0.296875 1.453125 0.296875q0.703125 0 1.84375 -0.171875zm4.0859375 3.78125l0 -24.890625l3.796875 0l0 3.765625q1.453125 -2.640625 2.671875 -3.484375q1.234375 -0.84375 2.71875 -0.84375q2.125 0 4.328125 1.359375l-1.453125 3.90625q-1.546875 -0.90625 -3.09375 -0.90625q-1.375 0 -2.484375 0.828125q-1.09375 0.828125 -1.5625 2.3125q-0.703125 2.25 -0.703125 4.921875l0 13.03125l-4.21875 0zm16.046871 -29.515625l0 -4.84375l4.21875 0l0 4.84375l-4.21875 0zm0 29.515625l0 -24.890625l4.21875 0l0 24.890625l-4.21875 0zm26.882812 -3.078125q-2.34375 2.0 -4.515625 2.828125q-2.15625 0.8125 -4.640625 0.8125q-4.109375 0 -6.3125 -2.0q-2.203125 -2.015625 -2.203125 -5.125q0 -1.828125 0.828125 -3.34375q0.84375 -1.515625 2.1875 -2.421875q1.34375 -0.921875 3.03125 -1.390625q1.25 -0.328125 3.75 -0.625q5.109375 -0.609375 7.53125 -1.453125q0.015625 -0.875 0.015625 -1.109375q0 -2.578125 -1.1875 -3.625q-1.625 -1.4375 -4.8125 -1.4375q-2.96875 0 -4.390625 1.046875q-1.421875 1.046875 -2.09375 3.6875l-4.125 -0.5625q0.5625 -2.640625 1.84375 -4.265625q1.296875 -1.640625 3.734375 -2.515625q2.4375 -0.875 5.640625 -0.875q3.1875 0 5.171875 0.75q2.0 0.75 2.9375 1.890625q0.9375 1.125 1.3125 2.859375q0.21875 1.078125 0.21875 3.890625l0 5.625q0 5.890625 0.265625 7.453125q0.265625 1.546875 1.0625 2.984375l-4.40625 0q-0.65625 -1.3125 -0.84375 -3.078125zm-0.34375 -9.421875q-2.296875 0.9375 -6.890625 1.59375q-2.609375 0.375 -3.6875 0.84375q-1.078125 0.46875 -1.671875 1.375q-0.578125 0.90625 -0.578125 2.0q0 1.6875 1.28125 2.8125q1.28125 1.125 3.734375 1.125q2.4375 0 4.328125 -1.0625q1.90625 -1.0625 2.796875 -2.921875q0.6875 -1.421875 0.6875 -4.21875l0 -1.546875zm10.8046875 12.5l0 -24.890625l3.796875 0l0 3.53125q2.734375 -4.09375 7.921875 -4.09375q2.25 0 4.125 0.8125q1.890625 0.796875 2.828125 2.109375q0.9375 1.3125 1.3125 3.125q0.234375 1.171875 0.234375 4.09375l0 15.3125l-4.21875 0l0 -15.140625q0 -2.578125 -0.5 -3.859375q-0.484375 -1.28125 -1.734375 -2.03125q-1.25 -0.765625 -2.9375 -0.765625q-2.703125 0 -4.65625 1.71875q-1.953125 1.703125 -1.953125 6.484375l0 13.59375l-4.21875 0zm25.91407 2.0625l4.109375 0.609375q0.25 1.90625 1.421875 2.765625q1.578125 1.171875 4.296875 1.171875q2.921875 0 4.515625 -1.171875q1.59375 -1.171875 2.15625 -3.28125q0.328125 -1.28125 0.3125 -5.421875q-2.765625 3.265625 -6.890625 3.265625q-5.140625 0 -7.953125 -3.703125q-2.8125 -3.703125 -2.8125 -8.890625q0 -3.5625 1.28125 -6.5625q1.296875 -3.015625 3.75 -4.65625q2.453125 -1.640625 5.75 -1.640625q4.40625 0 7.265625 3.5625l0 -3.0l3.890625 0l0 21.515625q0 5.8125 -1.1875 8.234375q-1.171875 2.4375 -3.75 3.84375q-2.5625 1.40625 -6.3125 1.40625q-4.453125 0 -7.203125 -2.015625q-2.734375 -2.0 -2.640625 -6.03125zm3.5 -14.953125q0 4.890625 1.9375 7.140625q1.953125 2.25 4.875 2.25q2.90625 0 4.875 -2.234375q1.96875 -2.234375 1.96875 -7.015625q0 -4.578125 -2.03125 -6.890625q-2.015625 -2.328125 -4.875 -2.328125q-2.8125 0 -4.78125 2.296875q-1.96875 2.28125 -1.96875 6.78125zm23.882812 12.890625l0 -34.359375l4.21875 0l0 34.359375l-4.21875 0zm27.789062 -8.015625l4.359375 0.53125q-1.03125 3.828125 -3.828125 5.9375q-2.78125 2.109375 -7.109375 2.109375q-5.46875 0 -8.671875 -3.359375q-3.1875 -3.375 -3.1875 -9.4375q0 -6.28125 3.234375 -9.75q3.234375 -3.46875 8.390625 -3.46875q4.984375 0 8.140625 3.40625q3.171875 3.390625 3.171875 9.546875q0 0.375 -0.015625 1.125l-18.5625 0q0.234375 4.109375 2.3125 6.296875q2.09375 2.171875 5.203125 2.171875q2.328125 0 3.96875 -1.21875q1.640625 -1.21875 2.59375 -3.890625zm-13.84375 -6.828125l13.890625 0q-0.28125 -3.140625 -1.59375 -4.703125q-2.015625 -2.4375 -5.21875 -2.4375q-2.90625 0 -4.890625 1.953125q-1.984375 1.9375 -2.1875 5.1875zm21.820312 7.40625l4.171875 -0.65625q0.34375 2.515625 1.953125 3.859375q1.609375 1.328125 4.484375 1.328125q2.90625 0 4.3125 -1.1875q1.40625 -1.1875 1.40625 -2.78125q0 -1.421875 -1.234375 -2.25q-0.875 -0.5625 -4.3125 -1.421875q-4.640625 -1.171875 -6.4375 -2.03125q-1.796875 -0.859375 -2.71875 -2.359375q-0.921875 -1.515625 -0.921875 -3.34375q0 -1.671875 0.75 -3.078125q0.765625 -1.421875 2.078125 -2.359375q0.984375 -0.734375 2.6875 -1.234375q1.703125 -0.5 3.640625 -0.5q2.9375 0 5.140625 0.84375q2.21875 0.84375 3.265625 2.28125q1.0625 1.4375 1.46875 3.859375l-4.125 0.5625q-0.28125 -1.921875 -1.640625 -3.0q-1.34375 -1.078125 -3.796875 -1.078125q-2.90625 0 -4.15625 0.96875q-1.234375 0.953125 -1.234375 2.234375q0 0.828125 0.515625 1.484375q0.515625 0.671875 1.609375 1.125q0.640625 0.234375 3.734375 1.078125q4.46875 1.1875 6.234375 1.953125q1.78125 0.765625 2.78125 2.21875q1.015625 1.453125 1.015625 3.609375q0 2.109375 -1.234375 3.96875q-1.234375 1.859375 -3.5625 2.890625q-2.3125 1.015625 -5.234375 1.015625q-4.859375 0 -7.40625 -2.015625q-2.53125 -2.015625 -3.234375 -5.984375z" fill-rule="nonzero"/><path fill="#000000" fill-opacity="0.0" d="m24.671917 741.16406l284.69293 0l0 95.62201l-284.69293 0z" fill-rule="evenodd"/><path fill="#000000" d="m35.671917 787.244l4.421875 -0.375q0.5 3.234375 2.28125 4.859375q1.796875 1.625 4.328125 1.625q3.046875 0 5.15625 -2.296875q2.109375 -2.296875 2.109375 -6.09375q0 -3.609375 -2.03125 -5.6875q-2.015625 -2.09375 -5.296875 -2.09375q-2.046875 0 -3.6875 0.9375q-1.640625 0.921875 -2.578125 2.390625l-3.953125 -0.515625l3.328125 -17.640625l17.078125 0l0 4.03125l-13.703125 0l-1.859375 9.234375q3.09375 -2.15625 6.5 -2.15625q4.5 0 7.59375 3.125q3.09375 3.109375 3.09375 8.0q0 4.671875 -2.71875 8.0625q-3.3125 4.1875 -9.03125 4.1875q-4.6875 0 -7.65625 -2.625q-2.953125 -2.640625 -3.375 -6.96875zm26.226562 -1.3125l0 -4.25l12.953121 0l0 4.25l-12.953121 0zm33.85937 1.1875l4.15625 0.546875q-0.6875 4.28125 -3.484375 6.71875q-2.796875 2.421875 -6.875 2.421875q-5.109375 0 -8.21875 -3.34375q-3.109375 -3.34375 -3.109375 -9.578125q0 -4.03125 1.328125 -7.046875q1.34375 -3.03125 4.078125 -4.53125q2.734375 -1.515625 5.9375 -1.515625q4.0625 0 6.640625 2.046875q2.578125 2.046875 3.296875 5.828125l-4.09375 0.625q-0.59375 -2.5 -2.078125 -3.765625q-1.484375 -1.265625 -3.59375 -1.265625q-3.1875 0 -5.1875 2.28125q-1.984375 2.28125 -1.984375 7.234375q0 5.015625 1.921875 7.296875q1.921875 2.265625 5.015625 2.265625q2.484375 0 4.140625 -1.515625q1.671875 -1.53125 2.109375 -4.703125zm7.671875 9.125l0 -34.359375l4.21875 0l0 34.359375l-4.21875 0zm10.7734375 -29.515625l0 -4.84375l4.21875 0l0 4.84375l-4.21875 0zm0 29.515625l0 -24.890625l4.21875 0l0 24.890625l-4.21875 0zm26.50782 9.546875l0 -12.203125q-0.984375 1.390625 -2.75 2.3125q-1.765625 0.90625 -3.765625 0.90625q-4.421875 0 -7.6250076 -3.53125q-3.203125 -3.546875 -3.203125 -9.71875q0 -3.75 1.296875 -6.71875q1.3125 -2.984375 3.7812576 -4.515625q2.46875 -1.53125 5.421875 -1.53125q4.625 0 7.265625 3.890625l0 -3.328125l3.796875 0l0 34.4375l-4.21875 0zm-13.000008 -22.0625q0 4.796875 2.0156326 7.203125q2.015625 2.40625 4.828125 2.40625q2.6875 0 4.625 -2.28125q1.953125 -2.296875 1.953125 -6.953125q0 -4.96875 -2.046875 -7.46875q-2.046875 -2.515625 -4.8125 -2.515625q-2.75 0 -4.65625 2.328125q-1.9062576 2.328125 -1.9062576 7.28125zm40.148445 12.515625l0 -3.65625q-2.90625 4.21875 -7.90625 4.21875q-2.203125 0 -4.109375 -0.84375q-1.90625 -0.84375 -2.84375 -2.125q-0.921875 -1.28125 -1.296875 -3.125q-0.25 -1.25 -0.25 -3.9375l0 -15.421875l4.21875 0l0 13.796875q0 3.3125 0.25 4.453125q0.40625 1.671875 1.6875 2.625q1.296875 0.9375 3.1875 0.9375q1.90625 0 3.5625 -0.96875q1.671875 -0.96875 2.359375 -2.640625q0.6875 -1.6875 0.6875 -4.875l0 -13.328125l4.21875 0l0 24.890625l-3.765625 0zm27.414062 -8.015625l4.359375 0.53125q-1.03125 3.828125 -3.828125 5.9375q-2.78125 2.109375 -7.109375 2.109375q-5.46875 0 -8.671875 -3.359375q-3.1875 -3.375 -3.1875 -9.4375q0 -6.28125 3.234375 -9.75q3.234375 -3.46875 8.390625 -3.46875q4.984375 0 8.140625 3.40625q3.171875 3.390625 3.171875 9.546875q0 0.375 -0.015625 1.125l-18.5625 0q0.234375 4.109375 2.3125 6.296875q2.09375 2.171875 5.203125 2.171875q2.328125 0 3.96875 -1.21875q1.640625 -1.21875 2.59375 -3.890625zm-13.84375 -6.828125l13.890625 0q-0.28125 -3.140625 -1.59375 -4.703125q-2.015625 -2.4375 -5.21875 -2.4375q-2.90625 0 -4.890625 1.953125q-1.984375 1.9375 -2.1875 5.1875z" fill-rule="nonzero"/><path fill="#000000" fill-opacity="0.0" d="m362.69553 406.43832l-3.0236206 88.25195" fill-rule="evenodd"/><path stroke="#000000" stroke-width="3.0" stroke-linejoin="round" stroke-linecap="butt" d="m362.69553 406.43832l-2.407257 70.26251" fill-rule="evenodd"/><path fill="#000000" stroke="#000000" stroke-width="3.0" stroke-linecap="butt" d="m355.33597 476.53116l4.4861145 13.776001l5.418457 -13.4366455z" fill-rule="evenodd"/><path fill="#000000" fill-opacity="0.0" d="m362.69553 406.43832l170.77164 88.25195" fill-rule="evenodd"/><path stroke="#000000" stroke-width="3.0" stroke-linejoin="round" stroke-linecap="butt" d="m362.69553 406.43832l154.78079 79.98816" fill-rule="evenodd"/><path fill="#000000" stroke="#000000" stroke-width="3.0" stroke-linecap="butt" d="m515.20135 490.82858l14.369629 1.8482056l-9.819763 -10.652435z" fill-rule="evenodd"/><path fill="#000000" fill-opacity="0.0" d="m362.69553 406.43832l344.59842 88.25195" fill-rule="evenodd"/><path stroke="#000000" stroke-width="3.0" stroke-linejoin="round" stroke-linecap="butt" d="m362.69553 406.43832l327.16116 83.786285" fill-rule="evenodd"/><path fill="#000000" stroke="#000000" stroke-width="3.0" stroke-linecap="butt" d="m688.6274 495.02487l14.417969 -1.4226379l-11.95929 -8.1779175z" fill-rule="evenodd"/><path fill="#000000" fill-opacity="0.0" d="m362.69553 406.43832l540.0945 88.25195" fill-rule="evenodd"/><path stroke="#000000" stroke-width="3.0" stroke-linejoin="round" stroke-linecap="butt" d="m362.69553 406.43832l522.3301 85.34924" fill-rule="evenodd"/><path fill="#000000" stroke="#000000" stroke-width="3.0" stroke-linecap="butt" d="m884.2265 496.67792l14.2352295 -2.6948853l-12.637024 -7.0858154z" fill-rule="evenodd"/><path fill="#000000" fill-opacity="0.0" d="m536.5092 406.43832l-3.0236816 88.25195" fill-rule="evenodd"/><path stroke="#000000" stroke-width="3.0" stroke-linejoin="round" stroke-linecap="butt" d="m536.5092 406.43832l-2.4072876 70.26251" fill-rule="evenodd"/><path fill="#000000" stroke="#000000" stroke-width="3.0" stroke-linecap="butt" d="m529.1496 476.53116l4.486145 13.776001l5.418457 -13.4366455z" fill-rule="evenodd"/><path fill="#000000" fill-opacity="0.0" d="m536.5092 406.43832l-176.85043 88.25195" fill-rule="evenodd"/><path stroke="#000000" stroke-width="3.0" stroke-linejoin="round" stroke-linecap="butt" d="m536.5092 406.43832l-160.74442 80.21472" fill-rule="evenodd"/><path fill="#000000" stroke="#000000" stroke-width="3.0" stroke-linecap="butt" d="m373.55222 482.21927l-9.969177 10.512756l14.394318 -1.6451721z" fill-rule="evenodd"/><path fill="#000000" fill-opacity="0.0" d="m536.5092 406.43832l163.62201 83.24408" fill-rule="evenodd"/><path stroke="#000000" stroke-width="3.0" stroke-linejoin="round" stroke-linecap="butt" d="m536.5092 406.43832l147.57892 75.08203" fill-rule="evenodd"/><path fill="#000000" stroke="#000000" stroke-width="3.0" stroke-linecap="butt" d="m681.84125 485.93683l14.3811035 1.756897l-9.887268 -10.589844z" fill-rule="evenodd"/><path fill="#000000" fill-opacity="0.0" d="m536.5092 406.43832l366.2677 88.25195" fill-rule="evenodd"/><path stroke="#000000" stroke-width="3.0" stroke-linejoin="round" stroke-linecap="butt" d="m536.5092 406.43832l348.7685 84.03555" fill-rule="evenodd"/><path fill="#000000" stroke="#000000" stroke-width="3.0" stroke-linecap="butt" d="m884.117 495.2912l14.39624 -1.6282349l-12.074829 -8.006439z" fill-rule="evenodd"/><path fill="#000000" fill-opacity="0.0" d="m710.32153 406.43832l-176.8504 88.25195" fill-rule="evenodd"/><path stroke="#000000" stroke-width="3.0" stroke-linejoin="round" stroke-linecap="butt" d="m710.32153 406.43832l-160.74438 80.21472" fill-rule="evenodd"/><path fill="#000000" stroke="#000000" stroke-width="3.0" stroke-linecap="butt" d="m547.36456 482.21927l-9.969177 10.512756l14.394287 -1.6451721z" fill-rule="evenodd"/><path fill="#000000" fill-opacity="0.0" d="m710.32153 406.43832l-3.0236206 88.25195" fill-rule="evenodd"/><path stroke="#000000" stroke-width="3.0" stroke-linejoin="round" stroke-linecap="butt" d="m710.32153 406.43832l-2.4073486 70.26251" fill-rule="evenodd"/><path fill="#000000" stroke="#000000" stroke-width="3.0" stroke-linecap="butt" d="m702.962 476.53116l4.486084 13.776001l5.418457 -13.4366455z" fill-rule="evenodd"/><path fill="#000000" fill-opacity="0.0" d="m710.32153 406.43832l-350.6457 88.25195" fill-rule="evenodd"/><path stroke="#000000" stroke-width="3.0" stroke-linejoin="round" stroke-linecap="butt" d="m710.32153 406.43832l-333.19006 83.85867" fill-rule="evenodd"/><path fill="#000000" stroke="#000000" stroke-width="3.0" stroke-linecap="butt" d="m375.92206 485.49164l-11.993134 8.128235l14.411987 1.4824524z" fill-rule="evenodd"/><path fill="#000000" fill-opacity="0.0" d="m905.80316 406.43832l-3.0236206 88.25195" fill-rule="evenodd"/><path stroke="#000000" stroke-width="3.0" stroke-linejoin="round" stroke-linecap="butt" d="m905.80316 406.43832l-2.4073486 70.26251" fill-rule="evenodd"/><path fill="#000000" stroke="#000000" stroke-width="3.0" stroke-linecap="butt" d="m898.4436 476.53116l4.486084 13.776001l5.418457 -13.4366455z" fill-rule="evenodd"/><path fill="#000000" fill-opacity="0.0" d="m710.32153 406.43832l192.44092 88.25195" fill-rule="evenodd"/><path stroke="#000000" stroke-width="3.0" stroke-linejoin="round" stroke-linecap="butt" d="m710.32153 406.43832l176.0794 80.74869" fill-rule="evenodd"/><path fill="#000000" stroke="#000000" stroke-width="3.0" stroke-linecap="butt" d="m884.3353 491.69116l14.440613 1.1709595l-10.309448 -10.17926z" fill-rule="evenodd"/><path fill="#000000" fill-opacity="0.0" d="m905.80316 406.43832l-198.51971 88.25195" fill-rule="evenodd"/><path stroke="#000000" stroke-width="3.0" stroke-linejoin="round" stroke-linecap="butt" d="m905.80316 406.43832l-182.07172 80.94003" fill-rule="evenodd"/><path fill="#000000" stroke="#000000" stroke-width="3.0" stroke-linecap="butt" d="m721.7185 482.8504l-10.42749 10.058319l14.453308 -1.0024414z" fill-rule="evenodd"/><path fill="#000000" fill-opacity="0.0" d="m905.80316 406.43832l-372.315 88.25195" fill-rule="evenodd"/><path stroke="#000000" stroke-width="3.0" stroke-linejoin="round" stroke-linecap="butt" d="m905.80316 406.43832l-354.8003 84.10034" fill-rule="evenodd"/><path fill="#000000" stroke="#000000" stroke-width="3.0" stroke-linecap="butt" d="m549.86 485.71707l-12.104309 7.96167l14.390076 1.6815491z" fill-rule="evenodd"/><path fill="#000000" fill-opacity="0.0" d="m905.80316 406.43832l-546.1417 88.25195" fill-rule="evenodd"/><path stroke="#000000" stroke-width="3.0" stroke-linejoin="round" stroke-linecap="butt" d="m905.80316 406.43832l-528.37225 85.380585" fill-rule="evenodd"/><path fill="#000000" stroke="#000000" stroke-width="3.0" stroke-linecap="butt" d="m376.64044 486.92715l-12.649475 7.063507l14.230408 2.7199707z" fill-rule="evenodd"/><path fill="#000000" fill-opacity="0.0" d="m359.66666 630.20734l0 96.12598" fill-rule="evenodd"/><path stroke="#000000" stroke-width="3.0" stroke-linejoin="round" stroke-linecap="butt" d="m359.66666 630.20734l0 78.12598" fill-rule="evenodd"/><path fill="#000000" stroke="#000000" stroke-width="3.0" stroke-linecap="butt" d="m354.71146 708.3333l4.9552 13.614319l4.9552 -13.614319z" fill-rule="evenodd"/><path fill="#000000" fill-opacity="0.0" d="m359.66666 630.20734l173.82675 96.12598" fill-rule="evenodd"/><path stroke="#000000" stroke-width="3.0" stroke-linejoin="round" stroke-linecap="butt" d="m359.66666 630.20734l158.07492 87.41522" fill-rule="evenodd"/><path fill="#000000" stroke="#000000" stroke-width="3.0" stroke-linecap="butt" d="m515.34357 721.95886l14.31189 2.2520752l-9.51593 -10.924683z" fill-rule="evenodd"/><path fill="#000000" fill-opacity="0.0" d="m359.66666 630.20734l347.62204 96.12598" fill-rule="evenodd"/><path stroke="#000000" stroke-width="3.0" stroke-linejoin="round" stroke-linecap="butt" d="m359.66666 630.20734l330.27316 91.32861" fill-rule="evenodd"/><path fill="#000000" stroke="#000000" stroke-width="3.0" stroke-linecap="butt" d="m688.61914 726.3119l14.442505 -1.1474609l-11.8012085 -8.40448z" fill-rule="evenodd"/><path fill="#000000" fill-opacity="0.0" d="m359.66666 630.20734l543.11816 96.12598" fill-rule="evenodd"/><path stroke="#000000" stroke-width="3.0" stroke-linejoin="round" stroke-linecap="butt" d="m359.66666 630.20734l525.3937 92.98895" fill-rule="evenodd"/><path fill="#000000" stroke="#000000" stroke-width="3.0" stroke-linecap="butt" d="m884.19666 728.0756l14.269531 -2.5066528l-12.542358 -7.252075z" fill-rule="evenodd"/><path fill="#000000" fill-opacity="0.0" d="m902.7743 630.20734l0 96.12598" fill-rule="evenodd"/><path stroke="#000000" stroke-width="3.0" stroke-linejoin="round" stroke-linecap="butt" d="m902.7743 630.20734l0 78.12598" fill-rule="evenodd"/><path fill="#000000" stroke="#000000" stroke-width="3.0" stroke-linecap="butt" d="m897.8191 708.3333l4.9552 13.614319l4.9552 -13.614319z" fill-rule="evenodd"/><path fill="#000000" fill-opacity="0.0" d="m902.7743 630.20734l-195.4961 96.12598" fill-rule="evenodd"/><path stroke="#000000" stroke-width="3.0" stroke-linejoin="round" stroke-linecap="butt" d="m902.7743 630.20734l-179.34308 88.18359" fill-rule="evenodd"/><path fill="#000000" stroke="#000000" stroke-width="3.0" stroke-linecap="butt" d="m721.2447 713.94415l-10.030823 10.4539795l14.403748 -1.5605469z" fill-rule="evenodd"/><path fill="#000000" fill-opacity="0.0" d="m902.7743 630.20734l-369.29138 96.12598" fill-rule="evenodd"/><path stroke="#000000" stroke-width="3.0" stroke-linejoin="round" stroke-linecap="butt" d="m902.7743 630.20734l-351.87183 91.591736" fill-rule="evenodd"/><path fill="#000000" stroke="#000000" stroke-width="3.0" stroke-linecap="butt" d="m549.65424 717.00366l-11.927002 8.224915l14.423462 1.3659058z" fill-rule="evenodd"/><path fill="#000000" fill-opacity="0.0" d="m902.7743 630.20734l-543.11816 96.12598" fill-rule="evenodd"/><path stroke="#000000" stroke-width="3.0" stroke-linejoin="round" stroke-linecap="butt" d="m902.7743 630.20734l-525.39355 92.98895" fill-rule="evenodd"/><path fill="#000000" stroke="#000000" stroke-width="3.0" stroke-linecap="butt" d="m376.5171 718.3169l-12.542328 7.252075l14.269531 2.5066528z" fill-rule="evenodd"/><path fill="#000000" fill-opacity="0.0" d="m533.4803 630.20734l0 96.12598" fill-rule="evenodd"/><path stroke="#000000" stroke-width="3.0" stroke-linejoin="round" stroke-linecap="butt" d="m533.4803 630.20734l0 78.12598" fill-rule="evenodd"/><path fill="#000000" stroke="#000000" stroke-width="3.0" stroke-linecap="butt" d="m528.52515 708.3333l4.955139 13.614319l4.9552 -13.614319z" fill-rule="evenodd"/><path fill="#000000" fill-opacity="0.0" d="m533.4803 630.20734l173.82678 96.12598" fill-rule="evenodd"/><path stroke="#000000" stroke-width="3.0" stroke-linejoin="round" stroke-linecap="butt" d="m533.4803 630.20734l158.07489 87.41522" fill-rule="evenodd"/><path fill="#000000" stroke="#000000" stroke-width="3.0" stroke-linecap="butt" d="m689.1572 721.95886l14.31189 2.2520752l-9.51593 -10.924683z" fill-rule="evenodd"/><path fill="#000000" fill-opacity="0.0" d="m533.4803 630.20734l-173.82675 96.12598" fill-rule="evenodd"/><path stroke="#000000" stroke-width="3.0" stroke-linejoin="round" stroke-linecap="butt" d="m533.4803 630.20734l-158.07486 87.41522" fill-rule="evenodd"/><path fill="#000000" stroke="#000000" stroke-width="3.0" stroke-linecap="butt" d="m373.00748 713.28625l-9.515991 10.924683l14.31192 -2.2520752z" fill-rule="evenodd"/><path fill="#000000" fill-opacity="0.0" d="m533.4803 630.20734l369.29138 96.12598" fill-rule="evenodd"/><path stroke="#000000" stroke-width="3.0" stroke-linejoin="round" stroke-linecap="butt" d="m533.4803 630.20734l351.87183 91.591736" fill-rule="evenodd"/><path fill="#000000" stroke="#000000" stroke-width="3.0" stroke-linecap="butt" d="m884.1039 726.5945l14.423523 -1.3659058l-11.927063 -8.224915z" fill-rule="evenodd"/><path fill="#000000" fill-opacity="0.0" d="m707.29266 630.20734l-3.7480469 91.52759" fill-rule="evenodd"/><path stroke="#000000" stroke-width="3.0" stroke-linejoin="round" stroke-linecap="butt" d="m707.29266 630.20734l-3.0115967 73.54266" fill-rule="evenodd"/><path fill="#000000" stroke="#000000" stroke-width="3.0" stroke-linecap="butt" d="m699.3301 703.54724l4.393982 13.805603l5.5080566 -13.4001465z" fill-rule="evenodd"/><path fill="#000000" fill-opacity="0.0" d="m707.29266 630.20734l195.49603 96.12598" fill-rule="evenodd"/><path stroke="#000000" stroke-width="3.0" stroke-linejoin="round" stroke-linecap="butt" d="m707.29266 630.20734l179.34308 88.18359" fill-rule="evenodd"/><path fill="#000000" stroke="#000000" stroke-width="3.0" stroke-linecap="butt" d="m884.4493 722.8376l14.403748 1.5605469l-10.030762 -10.4539795z" fill-rule="evenodd"/><path fill="#000000" fill-opacity="0.0" d="m707.29266 630.20734l-173.82678 96.12598" fill-rule="evenodd"/><path stroke="#000000" stroke-width="3.0" stroke-linejoin="round" stroke-linecap="butt" d="m707.29266 630.20734l-158.07489 87.41522" fill-rule="evenodd"/><path fill="#000000" stroke="#000000" stroke-width="3.0" stroke-linecap="butt" d="m546.8198 713.28625l-9.515991 10.924683l14.311951 -2.2520752z" fill-rule="evenodd"/><path fill="#000000" fill-opacity="0.0" d="m707.29266 630.20734l-347.62207 96.12598" fill-rule="evenodd"/><path stroke="#000000" stroke-width="3.0" stroke-linejoin="round" stroke-linecap="butt" d="m707.29266 630.20734l-330.27313 91.32861" fill-rule="evenodd"/><path fill="#000000" stroke="#000000" stroke-width="3.0" stroke-linecap="butt" d="m375.69885 716.75995l-11.801178 8.40448l14.442505 1.1474609z" fill-rule="evenodd"/></g></svg>