<svg version="1.1" viewBox="0.0 0.0 364.29396325459317 252.87926509186352" fill="none" stroke="none" stroke-linecap="square" stroke-miterlimit="10" xmlns:xlink="http://www.w3.org/1999/xlink" xmlns="http://www.w3.org/2000/svg"><clipPath id="p.0"><path d="m0 0l364.29398 0l0 252.87927l-364.29398 0l0 -252.87927z" clip-rule="nonzero"/></clipPath><g clip-path="url(#p.0)"><path fill="#000000" fill-opacity="0.0" d="m0 0l364.29398 0l0 252.87927l-364.29398 0z" fill-rule="evenodd"/><path fill="#cfe2f3" d="m291.12598 125.44357l0 0c0 -15.994514 12.902679 -28.960632 28.818909 -28.960632l0 0c7.6432495 0 14.97345 3.0512009 20.378021 8.482368c5.404602 5.431175 8.440887 12.797424 8.440887 20.478264l0 0c0 15.994507 -12.902679 28.960632 -28.818909 28.960632l0 0c-15.916229 0 -28.818909 -12.9661255 -28.818909 -28.960632z" fill-rule="evenodd"/><path stroke="#000000" stroke-width="1.0" stroke-linejoin="round" stroke-linecap="butt" d="m291.12598 125.44357l0 0c0 -15.994514 12.902679 -28.960632 28.818909 -28.960632l0 0c7.6432495 0 14.97345 3.0512009 20.378021 8.482368c5.404602 5.431175 8.440887 12.797424 8.440887 20.478264l0 0c0 15.994507 -12.902679 28.960632 -28.818909 28.960632l0 0c-15.916229 0 -28.818909 -12.9661255 -28.818909 -28.960632z" fill-rule="evenodd"/><path fill="#000000" d="m315.18765 132.36357l0 -13.359375l4.609375 0q1.546875 0 2.375 0.203125q1.140625 0.25 1.953125 0.953125q1.0625 0.890625 1.578125 2.28125q0.53125 1.390625 0.53125 3.171875q0 1.515625 -0.359375 2.703125q-0.359375 1.171875 -0.921875 1.9375q-0.546875 0.765625 -1.203125 1.21875q-0.65625 0.4375 -1.59375 0.671875q-0.9375 0.21875 -2.140625 0.21875l-4.828125 0zm1.765625 -1.578125l2.859375 0q1.3125 0 2.0625 -0.234375q0.75 -0.25 1.203125 -0.703125q0.625 -0.625 0.96875 -1.6875q0.359375 -1.0625 0.359375 -2.578125q0 -2.09375 -0.6875 -3.21875q-0.6875 -1.125 -1.671875 -1.5q-0.703125 -0.28125 -2.28125 -0.28125l-2.8125 0l0 10.203125z" fill-rule="nonzero"/><path fill="#cfe2f3" d="m151.02887 210.62993l0 0c0 -15.994522 12.902664 -28.960632 28.818893 -28.960632l0 0c7.6432495 0 14.97345 3.0511932 20.378036 8.482361c5.404602 5.431183 8.440872 12.797424 8.440872 20.478271l0 0c0 15.994507 -12.902664 28.960617 -28.818909 28.960617l0 0c-15.916229 0 -28.818893 -12.96611 -28.818893 -28.960617z" fill-rule="evenodd"/><path stroke="#000000" stroke-width="1.0" stroke-linejoin="round" stroke-linecap="butt" d="m151.02887 210.62993l0 0c0 -15.994522 12.902664 -28.960632 28.818893 -28.960632l0 0c7.6432495 0 14.97345 3.0511932 20.378036 8.482361c5.404602 5.431183 8.440872 12.797424 8.440872 20.478271l0 0c0 15.994507 -12.902664 28.960617 -28.818909 28.960617l0 0c-15.916229 0 -28.818893 -12.96611 -28.818893 -28.960617z" fill-rule="evenodd"/><path fill="#000000" d="m184.62178 212.86243l1.765625 0.453125q-0.5625 2.171875 -2.0 3.328125q-1.4375 1.140625 -3.53125 1.140625q-2.15625 0 -3.515625 -0.875q-1.34375 -0.890625 -2.0625 -2.546875q-0.703125 -1.671875 -0.703125 -3.59375q0 -2.078125 0.796875 -3.625q0.796875 -1.5625 2.265625 -2.359375q1.484375 -0.8125 3.25 -0.8125q2.0 0 3.359375 1.015625q1.375 1.015625 1.90625 2.875l-1.734375 0.40625q-0.46875 -1.453125 -1.359375 -2.109375q-0.875 -0.671875 -2.203125 -0.671875q-1.546875 0 -2.578125 0.734375q-1.03125 0.734375 -1.453125 1.984375q-0.421875 1.234375 -0.421875 2.5625q0 1.703125 0.5 2.96875q0.5 1.265625 1.546875 1.90625q1.046875 0.625 2.265625 0.625q1.484375 0 2.515625 -0.859375q1.03125 -0.859375 1.390625 -2.546875z" fill-rule="nonzero"/><path fill="#cfe2f3" d="m151.02887 49.262466l0 0c0 -15.994514 12.902664 -28.960629 28.818893 -28.960629l0 0c7.6432495 0 14.97345 3.051199 20.378036 8.482372c5.404602 5.4311714 8.440872 12.7974205 8.440872 20.478256l0 0c0 15.994514 -12.902664 28.960632 -28.818909 28.960632l0 0c-15.916229 0 -28.818893 -12.966118 -28.818893 -28.960632z" fill-rule="evenodd"/><path stroke="#000000" stroke-width="1.0" stroke-linejoin="round" stroke-linecap="butt" d="m151.02887 49.262466l0 0c0 -15.994514 12.902664 -28.960629 28.818893 -28.960629l0 0c7.6432495 0 14.97345 3.051199 20.378036 8.482372c5.404602 5.4311714 8.440872 12.7974205 8.440872 20.478256l0 0c0 15.994514 -12.902664 28.960632 -28.818909 28.960632l0 0c-15.916229 0 -28.818893 -12.966118 -28.818893 -28.960632z" fill-rule="evenodd"/><path fill="#000000" d="m175.0124 56.182465l0 -13.359375l5.015625 0q1.53125 0 2.453125 0.40625q0.921875 0.40625 1.4375 1.25q0.53125 0.84375 0.53125 1.765625q0 0.859375 -0.46875 1.625q-0.453125 0.75 -1.390625 1.203125q1.203125 0.359375 1.859375 1.21875q0.65625 0.859375 0.65625 2.015625q0 0.9375 -0.40625 1.75q-0.390625 0.796875 -0.984375 1.234375q-0.578125 0.4375 -1.453125 0.671875q-0.875 0.21875 -2.15625 0.21875l-5.09375 0zm1.78125 -7.75l2.875 0q1.1875 0 1.6875 -0.140625q0.671875 -0.203125 1.015625 -0.671875q0.34375 -0.46875 0.34375 -1.171875q0 -0.65625 -0.328125 -1.15625q-0.3125 -0.515625 -0.90625 -0.703125q-0.59375 -0.1875 -2.03125 -0.1875l-2.65625 0l0 4.03125zm0 6.171875l3.3125 0q0.859375 0 1.203125 -0.0625q0.609375 -0.109375 1.015625 -0.359375q0.421875 -0.265625 0.6875 -0.75q0.265625 -0.484375 0.265625 -1.125q0 -0.75 -0.390625 -1.296875q-0.375 -0.546875 -1.0625 -0.765625q-0.671875 -0.234375 -1.953125 -0.234375l-3.078125 0l0 4.59375z" fill-rule="nonzero"/><path fill="#cfe2f3" d="m8.784777 125.44357l0 0c0 -15.994514 12.90266 -28.960632 28.8189 -28.960632l0 0c7.6432457 0 14.973446 3.0512009 20.378036 8.482368c5.4045906 5.431175 8.440857 12.797424 8.440857 20.478264l0 0c0 15.994507 -12.902657 28.960632 -28.818893 28.960632l0 0c-15.916239 0 -28.8189 -12.9661255 -28.8189 -28.960632z" fill-rule="evenodd"/><path stroke="#000000" stroke-width="1.0" stroke-linejoin="round" stroke-linecap="butt" d="m8.784777 125.44357l0 0c0 -15.994514 12.90266 -28.960632 28.8189 -28.960632l0 0c7.6432457 0 14.973446 3.0512009 20.378036 8.482368c5.4045906 5.431175 8.440857 12.797424 8.440857 20.478264l0 0c0 15.994507 -12.902657 28.960632 -28.818893 28.960632l0 0c-15.916239 0 -28.8189 -12.9661255 -28.8189 -28.960632z" fill-rule="evenodd"/><path fill="#000000" d="m30.347738 132.36357l5.124998 -13.359375l1.90625 0l5.46875 13.359375l-2.015625 0l-1.546875 -4.046875l-5.59375 0l-1.46875 4.046875l-1.8749981 0zm3.859373 -5.484375l4.53125 0l-1.40625 -3.703125q-0.625 -1.6875 -0.9375 -2.765625q-0.265625 1.28125 -0.71875 2.546875l-1.46875 3.921875z" fill-rule="nonzero"/><path fill="#000000" fill-opacity="0.0" d="m299.56683 145.92183l-90.89763 64.69292" fill-rule="evenodd"/><path stroke="#000000" stroke-width="4.0" stroke-linejoin="round" stroke-linecap="butt" d="m299.56683 145.92183l-90.89763 64.69292" fill-rule="evenodd"/><path fill="#000000" fill-opacity="0.0" d="m208.66667 49.262466l90.89763 55.716537" fill-rule="evenodd"/><path stroke="#000000" stroke-width="4.0" stroke-linejoin="round" stroke-linecap="butt" d="m208.66667 49.262466l90.89763 55.716537" fill-rule="evenodd"/><path fill="#000000" fill-opacity="0.0" d="m57.981712 104.96531l93.039375 -55.716534" fill-rule="evenodd"/><path stroke="#000000" stroke-width="4.0" stroke-linejoin="round" stroke-linecap="butt" d="m57.981712 104.96531l93.039375 -55.716534" fill-rule="evenodd"/><path fill="#000000" fill-opacity="0.0" d="m179.84776 181.6693l0 -103.433075" fill-rule="evenodd"/><path stroke="#000000" stroke-width="4.0" stroke-linejoin="round" stroke-linecap="butt" d="m179.84776 181.6693l0 -103.433075" fill-rule="evenodd"/><path fill="#000000" fill-opacity="0.0" d="m151.02887 210.62993l-93.03937 -64.69292" fill-rule="evenodd"/><path stroke="#000000" stroke-width="4.0" stroke-linejoin="round" stroke-linecap="butt" d="m151.02887 210.62993l-93.03937 -64.69292" fill-rule="evenodd"/></g></svg>