<svg version="1.1" viewBox="0.0 0.0 731.8818897637796 690.1942257217847" fill="none" stroke="none" stroke-linecap="square" stroke-miterlimit="10" xmlns:xlink="http://www.w3.org/1999/xlink" xmlns="http://www.w3.org/2000/svg"><clipPath id="p.0"><path d="m0 0l731.8819 0l0 690.1942l-731.8819 0l0 -690.1942z" clip-rule="nonzero"/></clipPath><g clip-path="url(#p.0)"><path fill="#000000" fill-opacity="0.0" d="m0 0l731.8819 0l0 690.1942l-731.8819 0z" fill-rule="evenodd"/><path fill="#cfe2f3" d="m244.34776 534.95013l-76.28346 -72.06299l76.28346 -72.06299z" fill-rule="evenodd"/><path stroke="#000000" stroke-width="1.0" stroke-linejoin="round" stroke-linecap="butt" d="m244.34776 534.95013l-76.28346 -72.06299l76.28346 -72.06299z" fill-rule="evenodd"/><path fill="#cfe2f3" d="m91.78084 390.82416l76.28346 72.06299l-76.28346 72.06299z" fill-rule="evenodd"/><path stroke="#000000" stroke-width="1.0" stroke-linejoin="round" stroke-linecap="butt" d="m91.78084 390.82416l76.28346 72.06299l-76.28346 72.06299z" fill-rule="evenodd"/><path fill="#cfe2f3" d="m426.54724 274.54855l-76.28345 -72.06299l76.28345 -72.06299z" fill-rule="evenodd"/><path stroke="#000000" stroke-width="1.0" stroke-linejoin="round" stroke-linecap="butt" d="m426.54724 274.54855l-76.28345 -72.06299l76.28345 -72.06299z" fill-rule="evenodd"/><path fill="#cfe2f3" d="m273.98032 130.41208l76.28348 72.06299l-76.28348 72.06299z" fill-rule="evenodd"/><path stroke="#000000" stroke-width="1.0" stroke-linejoin="round" stroke-linecap="butt" d="m273.98032 130.41208l76.28348 72.06299l-76.28348 72.06299z" fill-rule="evenodd"/><path fill="#cfe2f3" d="m587.3058 536.7047l-76.28348 -72.06299l76.28348 -72.06299z" fill-rule="evenodd"/><path stroke="#000000" stroke-width="1.0" stroke-linejoin="round" stroke-linecap="butt" d="m587.3058 536.7047l-76.28348 -72.06299l76.28348 -72.06299z" fill-rule="evenodd"/><path fill="#cfe2f3" d="m434.73883 392.57874l76.28348 72.06299l-76.28348 72.06299z" fill-rule="evenodd"/><path stroke="#000000" stroke-width="1.0" stroke-linejoin="round" stroke-linecap="butt" d="m434.73883 392.57874l76.28348 72.06299l-76.28348 72.06299z" fill-rule="evenodd"/><path fill="#000000" fill-opacity="0.0" d="m10.706037 613.53284l175.9055 0l0 89.700745l-175.9055 0z" fill-rule="evenodd"/><path fill="#000000" d="m23.487288 668.6128l0 -34.359375l15.234373 0q4.59375 0 6.984375 0.921875q2.390625 0.921875 3.8125 3.265625q1.4375 2.34375 1.4375 5.1875q0 3.65625 -2.375 6.171875q-2.359375 2.5 -7.3125 3.171875q1.8125 0.875 2.75 1.71875q1.984375 1.828125 3.765625 4.5625l5.984375 9.359375l-5.71875 0l-4.546875 -7.15625q-2.0 -3.09375 -3.296875 -4.734375q-1.28125 -1.640625 -2.296875 -2.296875q-1.015625 -0.65625 -2.078125 -0.90625q-0.765625 -0.171875 -2.53125 -0.171875l-5.265623 0l0 15.265625l-4.546875 0zm4.546875 -19.203125l9.765623 0q3.125 0 4.875 -0.640625q1.765625 -0.640625 2.671875 -2.0625q0.921875 -1.421875 0.921875 -3.078125q0 -2.4375 -1.78125 -4.0q-1.765625 -1.578125 -5.578125 -1.578125l-10.874998 0l0 11.359375zm37.570312 29.3125q-3.5000038 -4.40625 -5.921879 -10.3125q-2.40625 -5.921875 -2.40625 -12.25q0 -5.578125 1.8125 -10.6875q2.109375 -5.921875 6.515629 -11.8125l3.015625 0q-2.828125 4.875 -3.75 6.96875q-1.4218788 3.234375 -2.2500038 6.75q-1.0 4.375 -1.0 8.8125q0 11.265625 7.000004 22.53125l-3.015625 0zm24.15625 -13.1875q-2.34375 2.0 -4.515625 2.828125q-2.15625 0.8125 -4.640625 0.8125q-4.109375 0 -6.3125 -2.0q-2.203125 -2.015625 -2.203125 -5.125q0 -1.828125 0.828125 -3.34375q0.84375 -1.515625 2.1875 -2.421875q1.34375 -0.921875 3.03125 -1.390625q1.25 -0.328125 3.75 -0.625q5.109375 -0.609375 7.53125 -1.453125q0.015625 -0.875 0.015625 -1.109375q0 -2.578125 -1.1875 -3.625q-1.625 -1.4375 -4.8125 -1.4375q-2.96875 0 -4.390625 1.046875q-1.421875 1.046875 -2.09375 3.6875l-4.125 -0.5625q0.5625 -2.640625 1.84375 -4.265625q1.296875 -1.640625 3.734375 -2.515625q2.4375 -0.875 5.640625 -0.875q3.1875 0 5.171875 0.75q2.0 0.75 2.9375 1.890625q0.9375 1.125 1.3125 2.859375q0.21875 1.078125 0.21875 3.890625l0 5.625q0 5.890625 0.265625 7.453125q0.265625 1.546875 1.0625 2.984375l-4.40625 0q-0.65625 -1.3125 -0.84375 -3.078125zm-0.34375 -9.421875q-2.296875 0.9375 -6.890625 1.59375q-2.609375 0.375 -3.6875 0.84375q-1.078125 0.46875 -1.671875 1.375q-0.578125 0.90625 -0.578125 2.0q0 1.6875 1.28125 2.8125q1.28125 1.125 3.734375 1.125q2.4375 0 4.328125 -1.0625q1.90625 -1.0625 2.796875 -2.921875q0.6875 -1.421875 0.6875 -4.21875l0 -1.546875zm11.8984375 12.5l0 -4.8125l4.8125 0l0 4.8125q0 2.65625 -0.9375 4.28125q-0.9375 1.625 -2.984375 2.515625l-1.171875 -1.796875q1.34375 -0.59375 1.96875 -1.734375q0.640625 -1.125 0.703125 -3.265625l-2.390625 0zm29.46875 0l-3.921875 0l0 -34.359375l4.21875 0l0 12.25q2.671875 -3.34375 6.828125 -3.34375q2.296875 0 4.34375 0.921875q2.046875 0.921875 3.375 2.609375q1.328125 1.671875 2.078125 4.046875q0.75 2.359375 0.75 5.046875q0 6.40625 -3.171875 9.90625q-3.15625 3.484375 -7.59375 3.484375q-4.40625 0 -6.90625 -3.6875l0 3.125zm-0.046875 -12.640625q0 4.484375 1.21875 6.46875q1.984375 3.265625 5.390625 3.265625q2.765625 0 4.78125 -2.40625q2.015625 -2.40625 2.015625 -7.15625q0 -4.875 -1.9375 -7.1875q-1.9375 -2.328125 -4.671875 -2.328125q-2.765625 0 -4.78125 2.40625q-2.015625 2.390625 -2.015625 6.9375zm25.617188 22.75l-3.03125 0q7.015625 -11.265625 7.015625 -22.53125q0 -4.40625 -1.015625 -8.75q-0.796875 -3.515625 -2.21875 -6.75q-0.921875 -2.109375 -3.78125 -7.03125l3.03125 0q4.40625 5.890625 6.515625 11.8125q1.796875 5.109375 1.796875 10.6875q0 6.328125 -2.421875 12.25q-2.421875 5.90625 -5.890625 10.3125z" fill-rule="nonzero"/><path fill="#000000" fill-opacity="0.0" d="m186.61154 613.53284l163.65356 0l0 89.700745l-163.65356 0z" fill-rule="evenodd"/><path fill="#000000" d="m197.76779 657.5659l4.296875 -0.375q0.296875 2.578125 1.40625 4.234375q1.125 1.65625 3.46875 2.671875q2.34375 1.015625 5.265625 1.015625q2.609375 0 4.59375 -0.765625q2.0 -0.78125 2.96875 -2.125q0.96875 -1.34375 0.96875 -2.9375q0 -1.625 -0.9375 -2.828125q-0.9375 -1.203125 -3.09375 -2.03125q-1.375 -0.53125 -6.109375 -1.671875q-4.734375 -1.140625 -6.640625 -2.140625q-2.453125 -1.296875 -3.671875 -3.203125q-1.203125 -1.90625 -1.203125 -4.28125q0 -2.59375 1.46875 -4.859375q1.484375 -2.265625 4.3125 -3.4375q2.84375 -1.171875 6.3125 -1.171875q3.828125 0 6.734375 1.234375q2.921875 1.234375 4.484375 3.625q1.578125 2.390625 1.703125 5.40625l-4.359375 0.328125q-0.359375 -3.25 -2.390625 -4.90625q-2.015625 -1.671875 -5.984375 -1.671875q-4.125 0 -6.015625 1.515625q-1.875 1.5 -1.875 3.640625q0 1.84375 1.328125 3.046875q1.3125 1.1875 6.859375 2.453125q5.546875 1.25 7.609375 2.1875q3.0 1.375 4.421875 3.5q1.4375 2.125 1.4375 4.890625q0 2.734375 -1.578125 5.171875q-1.5625 2.421875 -4.515625 3.78125q-2.9375 1.34375 -6.609375 1.34375q-4.671875 0 -7.828125 -1.359375q-3.140625 -1.375 -4.9375 -4.09375q-1.796875 -2.734375 -1.890625 -6.1875zm41.09375 21.15625q-3.5 -4.40625 -5.921875 -10.3125q-2.40625 -5.921875 -2.40625 -12.25q0 -5.578125 1.8125 -10.6875q2.109375 -5.921875 6.515625 -11.8125l3.015625 0q-2.828125 4.875 -3.75 6.96875q-1.421875 3.234375 -2.25 6.75q-1.0 4.375 -1.0 8.8125q0 11.265625 7.0 22.53125l-3.015625 0zm11.8125 -10.109375l-3.921875 0l0 -34.359375l4.21875 0l0 12.25q2.671875 -3.34375 6.828125 -3.34375q2.296875 0 4.34375 0.921875q2.046875 0.921875 3.375 2.609375q1.328125 1.671875 2.078125 4.046875q0.75 2.359375 0.75 5.046875q0 6.40625 -3.171875 9.90625q-3.15625 3.484375 -7.59375 3.484375q-4.40625 0 -6.90625 -3.6875l0 3.125zm-0.046875 -12.640625q0 4.484375 1.21875 6.46875q1.984375 3.265625 5.390625 3.265625q2.765625 0 4.78125 -2.40625q2.015625 -2.40625 2.015625 -7.15625q0 -4.875 -1.9375 -7.1875q-1.9375 -2.328125 -4.671875 -2.328125q-2.765625 0 -4.78125 2.40625q-2.015625 2.390625 -2.015625 6.9375zm23.945312 12.640625l0 -4.8125l4.8125 0l0 4.8125q0 2.65625 -0.9375 4.28125q-0.9375 1.625 -2.984375 2.515625l-1.171875 -1.796875q1.34375 -0.59375 1.96875 -1.734375q0.640625 -1.125 0.703125 -3.265625l-2.390625 0zm41.8125 -9.125l4.15625 0.546875q-0.6875 4.28125 -3.484375 6.71875q-2.796875 2.421875 -6.875 2.421875q-5.109375 0 -8.21875 -3.34375q-3.109375 -3.34375 -3.109375 -9.578125q0 -4.03125 1.328125 -7.046875q1.34375 -3.03125 4.078125 -4.53125q2.734375 -1.515625 5.9375 -1.515625q4.0625 0 6.640625 2.046875q2.578125 2.046875 3.296875 5.828125l-4.09375 0.625q-0.59375 -2.5 -2.078125 -3.765625q-1.484375 -1.265625 -3.59375 -1.265625q-3.1875 0 -5.1875 2.28125q-1.984375 2.28125 -1.984375 7.234375q0 5.015625 1.921875 7.296875q1.921875 2.265625 5.015625 2.265625q2.484375 0 4.140625 -1.515625q1.671875 -1.53125 2.109375 -4.703125zm10.53125 19.234375l-3.03125 0q7.015625 -11.265625 7.015625 -22.53125q0 -4.40625 -1.015625 -8.75q-0.796875 -3.515625 -2.21875 -6.75q-0.921875 -2.109375 -3.78125 -7.03125l3.03125 0q4.40625 5.890625 6.515625 11.8125q1.796875 5.109375 1.796875 10.6875q0 6.328125 -2.421875 12.25q-2.421875 5.90625 -5.890625 10.3125z" fill-rule="nonzero"/><path fill="#000000" fill-opacity="0.0" d="m389.41733 617.0945l166.55118 0l0 89.700806l-166.55118 0z" fill-rule="evenodd"/><path fill="#000000" d="m410.87045 672.1745l0 -30.3125l-11.328125 0l0 -4.046875l27.234375 0l0 4.046875l-11.359375 0l0 30.3125l-4.546875 0zm28.101562 10.109375q-3.5 -4.40625 -5.921875 -10.3125q-2.40625 -5.921875 -2.40625 -12.25q0 -5.578125 1.8125 -10.6875q2.109375 -5.921875 6.515625 -11.8125l3.015625 0q-2.828125 4.875 -3.75 6.96875q-1.421875 3.234375 -2.25 6.75q-1.0 4.375 -1.0 8.8125q0 11.265625 7.0 22.53125l-3.015625 0zm24.15625 -19.234375l4.15625 0.546875q-0.6875 4.28125 -3.484375 6.71875q-2.796875 2.421875 -6.875 2.421875q-5.109375 0 -8.21875 -3.34375q-3.109375 -3.34375 -3.109375 -9.578125q0 -4.03125 1.328125 -7.046875q1.34375 -3.03125 4.078125 -4.53125q2.734375 -1.515625 5.9375 -1.515625q4.0625 0 6.640625 2.046875q2.578125 2.046875 3.296875 5.828125l-4.09375 0.625q-0.59375 -2.5 -2.078125 -3.765625q-1.484375 -1.265625 -3.59375 -1.265625q-3.1875 0 -5.1875 2.28125q-1.984375 2.28125 -1.984375 7.234375q0 5.015625 1.921875 7.296875q1.921875 2.265625 5.015625 2.265625q2.484375 0 4.140625 -1.515625q1.671875 -1.53125 2.109375 -4.703125zm8.859375 9.125l0 -4.8125l4.8125 0l0 4.8125q0 2.65625 -0.9375 4.28125q-0.9375 1.625 -2.984375 2.515625l-1.171875 -1.796875q1.34375 -0.59375 1.96875 -1.734375q0.640625 -1.125 0.703125 -3.265625l-2.390625 0zm41.81247 -3.078125q-2.3437195 2.0 -4.5155945 2.828125q-2.15625 0.8125 -4.640625 0.8125q-4.109375 0 -6.3125 -2.0q-2.203125 -2.015625 -2.203125 -5.125q0 -1.828125 0.828125 -3.34375q0.84375 -1.515625 2.1875 -2.421875q1.34375 -0.921875 3.03125 -1.390625q1.25 -0.328125 3.75 -0.625q5.109375 -0.609375 7.5312195 -1.453125q0.015625 -0.875 0.015625 -1.109375q0 -2.578125 -1.1875 -3.625q-1.6249695 -1.4375 -4.8124695 -1.4375q-2.96875 0 -4.390625 1.046875q-1.421875 1.046875 -2.09375 3.6875l-4.125 -0.5625q0.5625 -2.640625 1.84375 -4.265625q1.296875 -1.640625 3.734375 -2.515625q2.4375 -0.875 5.640625 -0.875q3.1875 0 5.1718445 0.75q2.0 0.75 2.9375 1.890625q0.9375 1.125 1.3125 2.859375q0.21875 1.078125 0.21875 3.890625l0 5.625q0 5.890625 0.265625 7.453125q0.265625 1.546875 1.0625 2.984375l-4.40625 0q-0.65625 -1.3125 -0.84375 -3.078125zm-0.34375 -9.421875q-2.2968445 0.9375 -6.8905945 1.59375q-2.609375 0.375 -3.6875 0.84375q-1.078125 0.46875 -1.671875 1.375q-0.578125 0.90625 -0.578125 2.0q0 1.6875 1.28125 2.8125q1.28125 1.125 3.734375 1.125q2.4375 0 4.328125 -1.0625q1.90625 -1.0625 2.7968445 -2.921875q0.6875 -1.421875 0.6875 -4.21875l0 -1.546875zm13.5703125 22.609375l-3.03125 0q7.015625 -11.265625 7.015625 -22.53125q0 -4.40625 -1.015625 -8.75q-0.796875 -3.515625 -2.21875 -6.75q-0.921875 -2.109375 -3.78125 -7.03125l3.03125 0q4.40625 5.890625 6.515625 11.8125q1.796875 5.109375 1.796875 10.6875q0 6.328125 -2.421875 12.25q-2.421875 5.90625 -5.890625 10.3125z" fill-rule="nonzero"/><path fill="#000000" fill-opacity="0.0" d="m560.1732 615.2887l195.08661 0l0 89.700806l-195.08661 0z" fill-rule="evenodd"/><path fill="#000000" d="m572.95447 670.3687l0 -34.359375l15.234375 0q4.59375 0 6.984375 0.921875q2.390625 0.921875 3.8125 3.265625q1.4375 2.34375 1.4375 5.1875q0 3.65625 -2.375 6.171875q-2.359375 2.5 -7.3125 3.171875q1.8125 0.875 2.75 1.71875q1.984375 1.828125 3.765625 4.5625l5.984375 9.359375l-5.71875 0l-4.546875 -7.15625q-2.0 -3.09375 -3.296875 -4.734375q-1.28125 -1.640625 -2.296875 -2.296875q-1.015625 -0.65625 -2.078125 -0.90625q-0.765625 -0.171875 -2.53125 -0.171875l-5.265625 0l0 15.265625l-4.546875 0zm4.546875 -19.203125l9.765625 0q3.125 0 4.875 -0.640625q1.765625 -0.640625 2.671875 -2.0625q0.921875 -1.421875 0.921875 -3.078125q0 -2.4375 -1.78125 -4.0q-1.765625 -1.578125 -5.578125 -1.578125l-10.875 0l0 11.359375zm37.570312 29.3125q-3.5 -4.40625 -5.921875 -10.3125q-2.40625 -5.921875 -2.40625 -12.25q0 -5.578125 1.8125 -10.6875q2.109375 -5.921875 6.515625 -11.8125l3.015625 0q-2.828125 4.875 -3.75 6.96875q-1.421875 3.234375 -2.25 6.75q-1.0 4.375 -1.0 8.8125q0 11.265625 7.0 22.53125l-3.015625 0zm24.15625 -13.1875q-2.34375 2.0 -4.515625 2.828125q-2.15625 0.8125 -4.640625 0.8125q-4.109375 0 -6.3125 -2.0q-2.203125 -2.015625 -2.203125 -5.125q0 -1.828125 0.828125 -3.34375q0.84375 -1.515625 2.1875 -2.421875q1.34375 -0.921875 3.03125 -1.390625q1.25 -0.328125 3.75 -0.625q5.109375 -0.609375 7.53125 -1.453125q0.015625 -0.875 0.015625 -1.109375q0 -2.578125 -1.1875 -3.625q-1.625 -1.4375 -4.8125 -1.4375q-2.96875 0 -4.390625 1.046875q-1.421875 1.046875 -2.09375 3.6875l-4.125 -0.5625q0.5625 -2.640625 1.84375 -4.265625q1.296875 -1.640625 3.734375 -2.515625q2.4375 -0.875 5.640625 -0.875q3.1875 0 5.171875 0.75q2.0 0.75 2.9375 1.890625q0.9375 1.125 1.3125 2.859375q0.21875 1.078125 0.21875 3.890625l0 5.625q0 5.890625 0.265625 7.453125q0.265625 1.546875 1.0625 2.984375l-4.40625 0q-0.65625 -1.3125 -0.84375 -3.078125zm-0.34375 -9.421875q-2.296875 0.9375 -6.890625 1.59375q-2.609375 0.375 -3.6875 0.84375q-1.078125 0.46875 -1.671875 1.375q-0.578125 0.90625 -0.578125 2.0q0 1.6875 1.28125 2.8125q1.28125 1.125 3.734375 1.125q2.4375 0 4.328125 -1.0625q1.90625 -1.0625 2.796875 -2.921875q0.6875 -1.421875 0.6875 -4.21875l0 -1.546875zm11.8984375 12.5l0 -4.8125l4.8125 0l0 4.8125q0 2.65625 -0.9375 4.28125q-0.9375 1.625 -2.984375 2.515625l-1.171875 -1.796875q1.34375 -0.59375 1.96875 -1.734375q0.640625 -1.125 0.703125 -3.265625l-2.390625 0zm29.46875 0l-3.921875 0l0 -34.359375l4.21875 0l0 12.25q2.671875 -3.34375 6.828125 -3.34375q2.296875 0 4.34375 0.921875q2.046875 0.921875 3.375 2.609375q1.328125 1.671875 2.078125 4.046875q0.75 2.359375 0.75 5.046875q0 6.40625 -3.171875 9.90625q-3.15625 3.484375 -7.59375 3.484375q-4.40625 0 -6.90625 -3.6875l0 3.125zm-0.046875 -12.640625q0 4.484375 1.21875 6.46875q1.984375 3.265625 5.390625 3.265625q2.765625 0 4.78125 -2.40625q2.015625 -2.40625 2.015625 -7.15625q0 -4.875 -1.9375 -7.1875q-1.9375 -2.328125 -4.671875 -2.328125q-2.765625 0 -4.78125 2.40625q-2.015625 2.390625 -2.015625 6.9375zm25.617188 22.75l-3.03125 0q7.015625 -11.265625 7.015625 -22.53125q0 -4.40625 -1.015625 -8.75q-0.796875 -3.515625 -2.21875 -6.75q-0.921875 -2.109375 -3.78125 -7.03125l3.03125 0q4.40625 5.890625 6.515625 11.8125q1.796875 5.109375 1.796875 10.6875q0 6.328125 -2.421875 12.25q-2.421875 5.90625 -5.890625 10.3125z" fill-rule="nonzero"/><path fill="#000000" fill-opacity="0.0" d="m176.10498 379.86877l96.44095 -91.74805" fill-rule="evenodd"/><path stroke="#000000" stroke-width="4.0" stroke-linejoin="round" stroke-linecap="butt" d="m176.10498 379.86877l79.0526 -75.20581" fill-rule="evenodd"/><path fill="#000000" stroke="#000000" stroke-width="4.0" stroke-linecap="butt" d="m259.71146 309.44977l8.597809 -17.298523l-17.705582 7.724884z" fill-rule="evenodd"/><path fill="#000000" fill-opacity="0.0" d="m510.97375 383.96326l-73.03937 -97.60629" fill-rule="evenodd"/><path stroke="#000000" stroke-width="4.0" stroke-linejoin="round" stroke-linecap="butt" d="m510.97375 383.96326l-58.660217 -78.390686" fill-rule="evenodd"/><path fill="#000000" stroke="#000000" stroke-width="4.0" stroke-linecap="butt" d="m457.6034 301.61414l-16.165527 -10.575287l5.585846 18.492126z" fill-rule="evenodd"/><path fill="#000000" fill-opacity="0.0" d="m244.04199 616.08923l0.28346252 -68.28345" fill-rule="evenodd"/><path stroke="#000000" stroke-width="4.0" stroke-linejoin="round" stroke-linecap="butt" d="m244.04199 616.08923l0.18383789 -44.28369" fill-rule="evenodd"/><path fill="#000000" stroke="#000000" stroke-width="4.0" stroke-linecap="butt" d="m250.8327 571.833l-6.5315247 -18.179688l-6.6822205 18.124817z" fill-rule="evenodd"/><path fill="#000000" fill-opacity="0.0" d="m91.78215 616.08923l0.28347015 -68.28345" fill-rule="evenodd"/><path stroke="#000000" stroke-width="4.0" stroke-linejoin="round" stroke-linecap="butt" d="m91.78215 616.08923l0.18383026 -44.28369" fill-rule="evenodd"/><path fill="#000000" stroke="#000000" stroke-width="4.0" stroke-linecap="butt" d="m98.57286 571.833l-6.531517 -18.179688l-6.682228 18.124817z" fill-rule="evenodd"/><path fill="#000000" fill-opacity="0.0" d="m434.66666 617.84515l0.28347778 -68.28345" fill-rule="evenodd"/><path stroke="#000000" stroke-width="4.0" stroke-linejoin="round" stroke-linecap="butt" d="m434.66666 617.84515l0.18386841 -44.28369" fill-rule="evenodd"/><path fill="#000000" stroke="#000000" stroke-width="4.0" stroke-linecap="butt" d="m441.45737 573.5889l-6.5315247 -18.179688l-6.6822205 18.124817z" fill-rule="evenodd"/><path fill="#000000" fill-opacity="0.0" d="m587.30707 617.84515l0.2835083 -68.28345" fill-rule="evenodd"/><path stroke="#000000" stroke-width="4.0" stroke-linejoin="round" stroke-linecap="butt" d="m587.30707 617.84515l0.18389893 -44.28369" fill-rule="evenodd"/><path fill="#000000" stroke="#000000" stroke-width="4.0" stroke-linecap="butt" d="m594.0978 573.5889l-6.531494 -18.179688l-6.682251 18.124817z" fill-rule="evenodd"/><path fill="#000000" fill-opacity="0.0" d="m176.10498 48.50656l377.54333 0l0 68.28346l-377.54333 0z" fill-rule="evenodd"/><path fill="#000000" d="m197.47998 99.80531l0.609375 3.734375q-1.78125 0.375 -3.1875 0.375q-2.296875 0 -3.5625 -0.71875q-1.265625 -0.734375 -1.78125 -1.921875q-0.515625 -1.1875 -0.515625 -4.984375l0 -14.3125l-3.09375 0l0 -3.28125l3.09375 0l0 -6.171875l4.203125 -2.53125l0 8.703125l4.234375 0l0 3.28125l-4.234375 0l0 14.546875q0 1.8125 0.21875 2.328125q0.21875 0.515625 0.71875 0.828125q0.515625 0.296875 1.453125 0.296875q0.703125 0 1.84375 -0.171875zm4.0859375 3.78125l0 -24.890625l3.796875 0l0 3.765625q1.453125 -2.640625 2.671875 -3.484375q1.234375 -0.84375 2.71875 -0.84375q2.125 0 4.328125 1.359375l-1.453125 3.90625q-1.546875 -0.90625 -3.09375 -0.90625q-1.375 0 -2.484375 0.828125q-1.09375 0.828125 -1.5625 2.3125q-0.703125 2.25 -0.703125 4.921875l0 13.03125l-4.21875 0zm16.046875 -29.515625l0 -4.84375l4.21875 0l0 4.84375l-4.21875 0zm0 29.515625l0 -24.890625l4.21875 0l0 24.890625l-4.21875 0zm26.882812 -3.078125q-2.34375 2.0 -4.515625 2.828125q-2.15625 0.8125 -4.640625 0.8125q-4.109375 0 -6.3125 -2.0q-2.203125 -2.015625 -2.203125 -5.125q0 -1.828125 0.828125 -3.34375q0.84375 -1.515625 2.1875 -2.421875q1.34375 -0.921875 3.03125 -1.390625q1.25 -0.328125 3.75 -0.625q5.109375 -0.609375 7.53125 -1.453125q0.015625 -0.875 0.015625 -1.109375q0 -2.578125 -1.1875 -3.625q-1.625 -1.4375 -4.8125 -1.4375q-2.96875 0 -4.390625 1.046875q-1.421875 1.046875 -2.09375 3.6875l-4.125 -0.5625q0.5625 -2.640625 1.84375 -4.265625q1.296875 -1.640625 3.734375 -2.515625q2.4375 -0.875 5.640625 -0.875q3.1875 0 5.171875 0.75q2.0 0.75 2.9375 1.890625q0.9375 1.125 1.3125 2.859375q0.21875 1.078125 0.21875 3.890625l0 5.625q0 5.890625 0.265625 7.453125q0.265625 1.546875 1.0625 2.984375l-4.40625 0q-0.65625 -1.3125 -0.84375 -3.078125zm-0.34375 -9.421875q-2.296875 0.9375 -6.890625 1.59375q-2.609375 0.375 -3.6875 0.84375q-1.078125 0.46875 -1.671875 1.375q-0.578125 0.90625 -0.578125 2.0q0 1.6875 1.28125 2.8125q1.28125 1.125 3.734375 1.125q2.4375 0 4.328125 -1.0625q1.90625 -1.0625 2.796875 -2.921875q0.6875 -1.421875 0.6875 -4.21875l0 -1.546875zm10.8046875 12.5l0 -24.890625l3.796875 0l0 3.53125q2.734375 -4.09375 7.921875 -4.09375q2.25 0 4.125 0.8125q1.890625 0.796875 2.828125 2.109375q0.9375 1.3125 1.3125 3.125q0.234375 1.171875 0.234375 4.09375l0 15.3125l-4.21875 0l0 -15.140625q0 -2.578125 -0.5 -3.859375q-0.484375 -1.28125 -1.734375 -2.03125q-1.25 -0.765625 -2.9375 -0.765625q-2.703125 0 -4.65625 1.71875q-1.953125 1.703125 -1.953125 6.484375l0 13.59375l-4.21875 0zm25.914062 2.0625l4.109375 0.609375q0.25 1.90625 1.421875 2.765625q1.578125 1.171875 4.296875 1.171875q2.921875 0 4.515625 -1.171875q1.59375 -1.171875 2.15625 -3.28125q0.328125 -1.28125 0.3125 -5.421875q-2.765625 3.265625 -6.890625 3.265625q-5.140625 0 -7.953125 -3.703125q-2.8125 -3.703125 -2.8125 -8.890625q0 -3.5625 1.28125 -6.5625q1.296875 -3.015625 3.75 -4.65625q2.453125 -1.640625 5.75 -1.640625q4.40625 0 7.265625 3.5625l0 -3.0l3.890625 0l0 21.515625q0 5.8125 -1.1875 8.234375q-1.171875 2.4375 -3.75 3.84375q-2.5625 1.40625 -6.3125 1.40625q-4.453125 0 -7.203125 -2.015625q-2.734375 -2.0 -2.640625 -6.03125zm3.5 -14.953125q0 4.890625 1.9375 7.140625q1.953125 2.25 4.875 2.25q2.90625 0 4.875 -2.234375q1.96875 -2.234375 1.96875 -7.015625q0 -4.578125 -2.03125 -6.890625q-2.015625 -2.328125 -4.875 -2.328125q-2.8125 0 -4.78125 2.296875q-1.96875 2.28125 -1.96875 6.78125zm23.882812 12.890625l0 -34.359375l4.21875 0l0 34.359375l-4.21875 0zm27.789062 -8.015625l4.359375 0.53125q-1.03125 3.828125 -3.828125 5.9375q-2.78125 2.109375 -7.109375 2.109375q-5.46875 0 -8.671875 -3.359375q-3.1875 -3.375 -3.1875 -9.4375q0 -6.28125 3.234375 -9.75q3.234375 -3.46875 8.390625 -3.46875q4.984375 0 8.140625 3.40625q3.171875 3.390625 3.171875 9.546875q0 0.375 -0.015625 1.125l-18.5625 0q0.234375 4.109375 2.3125 6.296875q2.09375 2.171875 5.203125 2.171875q2.328125 0 3.96875 -1.21875q1.640625 -1.21875 2.59375 -3.890625zm-13.84375 -6.828125l13.890625 0q-0.28125 -3.140625 -1.59375 -4.703125q-2.015625 -2.4375 -5.21875 -2.4375q-2.90625 0 -4.890625 1.953125q-1.984375 1.9375 -2.1875 5.1875zm21.820312 7.40625l4.171875 -0.65625q0.34375 2.515625 1.953125 3.859375q1.609375 1.328125 4.484375 1.328125q2.90625 0 4.3125 -1.1875q1.40625 -1.1875 1.40625 -2.78125q0 -1.421875 -1.234375 -2.25q-0.875 -0.5625 -4.3125 -1.421875q-4.640625 -1.171875 -6.4375 -2.03125q-1.796875 -0.859375 -2.71875 -2.359375q-0.921875 -1.515625 -0.921875 -3.34375q0 -1.671875 0.75 -3.078125q0.765625 -1.421875 2.078125 -2.359375q0.984375 -0.734375 2.6875 -1.234375q1.703125 -0.5 3.640625 -0.5q2.9375 0 5.140625 0.84375q2.21875 0.84375 3.265625 2.28125q1.0625 1.4375 1.46875 3.859375l-4.125 0.5625q-0.28125 -1.921875 -1.640625 -3.0q-1.34375 -1.078125 -3.796875 -1.078125q-2.90625 0 -4.15625 0.96875q-1.234375 0.953125 -1.234375 2.234375q0 0.828125 0.515625 1.484375q0.515625 0.671875 1.609375 1.125q0.640625 0.234375 3.734375 1.078125q4.46875 1.1875 6.234375 1.953125q1.78125 0.765625 2.78125 2.21875q1.015625 1.453125 1.015625 3.609375q0 2.109375 -1.234375 3.96875q-1.234375 1.859375 -3.5625 2.890625q-2.3125 1.015625 -5.234375 1.015625q-4.859375 0 -7.40625 -2.015625q-2.53125 -2.015625 -3.234375 -5.984375zm33.75 17.546875q-3.5 -4.40625 -5.921875 -10.3125q-2.40625 -5.921875 -2.40625 -12.25q0 -5.578125 1.8125 -10.6875q2.109375 -5.921875 6.515625 -11.8125l3.015625 0q-2.828125 4.875 -3.75 6.96875q-1.421875 3.234375 -2.25 6.75q-1.0 4.375 -1.0 8.8125q0 11.265625 7.0 22.53125l-3.015625 0zm24.15625 -13.1875q-2.34375 2.0 -4.515625 2.828125q-2.15625 0.8125 -4.640625 0.8125q-4.109375 0 -6.3125 -2.0q-2.203125 -2.015625 -2.203125 -5.125q0 -1.828125 0.828125 -3.34375q0.84375 -1.515625 2.1875 -2.421875q1.34375 -0.921875 3.03125 -1.390625q1.25 -0.328125 3.75 -0.625q5.109375 -0.609375 7.53125 -1.453125q0.015625 -0.875 0.015625 -1.109375q0 -2.578125 -1.1875 -3.625q-1.625 -1.4375 -4.8125 -1.4375q-2.96875 0 -4.390625 1.046875q-1.421875 1.046875 -2.09375 3.6875l-4.125 -0.5625q0.5625 -2.640625 1.84375 -4.265625q1.296875 -1.640625 3.734375 -2.515625q2.4375 -0.875 5.640625 -0.875q3.1875 0 5.171875 0.75q2.0 0.75 2.9375 1.890625q0.9375 1.125 1.3125 2.859375q0.21875 1.078125 0.21875 3.890625l0 5.625q0 5.890625 0.265625 7.453125q0.265625 1.546875 1.0625 2.984375l-4.40625 0q-0.65625 -1.3125 -0.84375 -3.078125zm-0.34375 -9.421875q-2.296875 0.9375 -6.890625 1.59375q-2.609375 0.375 -3.6875 0.84375q-1.078125 0.46875 -1.671875 1.375q-0.578125 0.90625 -0.578125 2.0q0 1.6875 1.28125 2.8125q1.28125 1.125 3.734375 1.125q2.4375 0 4.328125 -1.0625q1.90625 -1.0625 2.796875 -2.921875q0.6875 -1.421875 0.6875 -4.21875l0 -1.546875zm11.8984375 12.5l0 -4.8125l4.8125 0l0 4.8125q0 2.65625 -0.9375 4.28125q-0.9375 1.625 -2.984375 2.515625l-1.171875 -1.796875q1.34375 -0.59375 1.96875 -1.734375q0.640625 -1.125 0.703125 -3.265625l-2.390625 0zm29.46875 0l-3.921875 0l0 -34.359375l4.21875 0l0 12.25q2.671875 -3.34375 6.828125 -3.34375q2.296875 0 4.34375 0.921875q2.046875 0.921875 3.375 2.609375q1.328125 1.671875 2.078125 4.046875q0.75 2.359375 0.75 5.046875q0 6.40625 -3.171875 9.90625q-3.15625 3.484375 -7.59375 3.484375q-4.40625 0 -6.90625 -3.6875l0 3.125zm-0.046875 -12.640625q0 4.484375 1.21875 6.46875q1.984375 3.265625 5.390625 3.265625q2.765625 0 4.78125 -2.40625q2.015625 -2.40625 2.015625 -7.15625q0 -4.875 -1.9375 -7.1875q-1.9375 -2.328125 -4.671875 -2.328125q-2.765625 0 -4.78125 2.40625q-2.015625 2.390625 -2.015625 6.9375zm23.945312 12.640625l0 -4.8125l4.8125 0l0 4.8125q0 2.65625 -0.9375 4.28125q-0.9375 1.625 -2.984375 2.515625l-1.171875 -1.796875q1.34375 -0.59375 1.96875 -1.734375q0.640625 -1.125 0.703125 -3.265625l-2.390625 0zm41.8125 -9.125l4.15625 0.546875q-0.6875 4.28125 -3.484375 6.71875q-2.796875 2.421875 -6.875 2.421875q-5.109375 0 -8.21875 -3.34375q-3.109375 -3.34375 -3.109375 -9.578125q0 -4.03125 1.328125 -7.046875q1.34375 -3.03125 4.078125 -4.53125q2.734375 -1.515625 5.9375 -1.515625q4.0625 0 6.640625 2.046875q2.578125 2.046875 3.296875 5.828125l-4.09375 0.625q-0.59375 -2.5 -2.078125 -3.765625q-1.484375 -1.265625 -3.59375 -1.265625q-3.1875 0 -5.1875 2.28125q-1.984375 2.28125 -1.984375 7.234375q0 5.015625 1.921875 7.296875q1.921875 2.265625 5.015625 2.265625q2.484375 0 4.140625 -1.515625q1.671875 -1.53125 2.109375 -4.703125zm10.53125 19.234375l-3.03125 0q7.015625 -11.265625 7.015625 -22.53125q0 -4.40625 -1.015625 -8.75q-0.796875 -3.515625 -2.21875 -6.75q-0.921875 -2.109375 -3.78125 -7.03125l3.03125 0q4.40625 5.890625 6.515625 11.8125q1.796875 5.109375 1.796875 10.6875q0 6.328125 -2.421875 12.25q-2.421875 5.90625 -5.890625 10.3125z" fill-rule="nonzero"/><path fill="#000000" fill-opacity="0.0" d="m448.0866 167.35432l184.69293 0l0 68.44095l-184.69293 0z" fill-rule="evenodd"/><path fill="#000000" d="m459.41473 205.69995q0 -8.5625 4.59375 -13.390625q4.59375 -4.84375 11.859375 -4.84375q4.75 0 8.5625 2.28125q3.828125 2.265625 5.828125 6.328125q2.015625 4.0625 2.015625 9.21875q0 5.234375 -2.109375 9.359375q-2.109375 4.125 -5.984375 6.25q-3.859375 2.125 -8.34375 2.125q-4.84375 0 -8.671875 -2.34375q-3.8125 -2.359375 -5.78125 -6.40625q-1.96875 -4.0625 -1.96875 -8.578125zm4.6875 0.0625q0 6.21875 3.328125 9.796875q3.34375 3.5625 8.390625 3.5625q5.125 0 8.4375 -3.609375q3.328125 -3.609375 3.328125 -10.234375q0 -4.203125 -1.421875 -7.328125q-1.421875 -3.125 -4.15625 -4.84375q-2.71875 -1.734375 -6.125 -1.734375q-4.828125 0 -8.3125 3.328125q-3.46875 3.3125 -3.46875 11.0625zm41.554688 26.78125q-3.5 -4.40625 -5.921875 -10.3125q-2.40625 -5.921875 -2.40625 -12.25q0 -5.578125 1.8125 -10.6875q2.109375 -5.921875 6.515625 -11.8125l3.015625 0q-2.828125 4.875 -3.75 6.96875q-1.421875 3.234375 -2.25 6.75q-1.0 4.375 -1.0 8.8125q0 11.265625 7.0 22.53125l-3.015625 0zm8.40625 -10.109375l0 -34.359375l4.671875 0l18.046875 26.96875l0 -26.96875l4.359375 0l0 34.359375l-4.671875 0l-18.046875 -27.0l0 27.0l-4.359375 0z" fill-rule="nonzero"/><path fill="#000000" d="m546.41473 198.38745l2.8125 -0.375q0.484375 2.390625 1.640625 3.453125q1.171875 1.046875 2.84375 1.046875q1.984375 0 3.34375 -1.375q1.375 -1.375 1.375 -3.40625q0 -1.9375 -1.265625 -3.1875q-1.265625 -1.265625 -3.21875 -1.265625q-0.796875 0 -1.984375 0.3125l0.3125 -2.46875q0.28125 0.03125 0.453125 0.03125q1.796875 0 3.234375 -0.9375q1.4375 -0.9375 1.4375 -2.890625q0 -1.546875 -1.046875 -2.5625q-1.046875 -1.015625 -2.703125 -1.015625q-1.640625 0 -2.734375 1.03125q-1.09375 1.03125 -1.40625 3.09375l-2.8125 -0.5q0.515625 -2.828125 2.34375 -4.375q1.828125 -1.5625 4.546875 -1.5625q1.875 0 3.453125 0.8125q1.578125 0.796875 2.40625 2.1875q0.84375 1.390625 0.84375 2.953125q0 1.484375 -0.796875 2.703125q-0.796875 1.21875 -2.359375 1.9375q2.03125 0.46875 3.15625 1.953125q1.125 1.46875 1.125 3.6875q0 3.0 -2.1875 5.09375q-2.1875 2.078125 -5.53125 2.078125q-3.015625 0 -5.015625 -1.796875q-1.984375 -1.796875 -2.265625 -4.65625zm16.453125 6.4375l6.640625 -23.6875l2.25 0l-6.625 23.6875l-2.265625 0zm25.0 -3.09375l0 2.703125l-15.140625 0q-0.03125 -1.015625 0.328125 -1.953125q0.578125 -1.546875 1.84375 -3.046875q1.28125 -1.5 3.6875 -3.46875q3.734375 -3.0625 5.046875 -4.84375q1.3125 -1.796875 1.3125 -3.390625q0 -1.671875 -1.203125 -2.8125q-1.1875 -1.15625 -3.109375 -1.15625q-2.03125 0 -3.25 1.21875q-1.21875 1.21875 -1.234375 3.375l-2.890625 -0.296875q0.296875 -3.234375 2.234375 -4.921875q1.9375 -1.703125 5.203125 -1.703125q3.296875 0 5.21875 1.828125q1.921875 1.828125 1.921875 4.53125q0 1.375 -0.5625 2.703125q-0.5625 1.328125 -1.875 2.796875q-1.296875 1.46875 -4.328125 4.03125q-2.53125 2.125 -3.25 2.890625q-0.71875 0.75 -1.1875 1.515625l11.234375 0z" fill-rule="nonzero"/><path fill="#000000" d="m595.49286 232.5437l-3.03125 0q7.015625 -11.265625 7.015625 -22.53125q0 -4.40625 -1.015625 -8.75q-0.796875 -3.515625 -2.21875 -6.75q-0.921875 -2.109375 -3.78125 -7.03125l3.03125 0q4.40625 5.890625 6.515625 11.8125q1.796875 5.109375 1.796875 10.6875q0 6.328125 -2.421875 12.25q-2.421875 5.90625 -5.890625 10.3125z" fill-rule="nonzero"/><path fill="#000000" fill-opacity="0.0" d="m273.98032 428.66666l163.65353 0l0 68.44095l-163.65353 0z" fill-rule="evenodd"/><path fill="#000000" d="m285.30844 467.0123q0 -8.5625 4.59375 -13.390625q4.59375 -4.84375 11.859375 -4.84375q4.75 0 8.5625 2.28125q3.828125 2.265625 5.828125 6.328125q2.015625 4.0625 2.015625 9.21875q0 5.234375 -2.109375 9.359375q-2.109375 4.125 -5.984375 6.25q-3.859375 2.125 -8.34375 2.125q-4.84375 0 -8.671875 -2.34375q-3.8125 -2.359375 -5.78125 -6.40625q-1.96875 -4.0625 -1.96875 -8.578125zm4.6875 0.0625q0 6.21875 3.328125 9.796875q3.34375 3.5625 8.390625 3.5625q5.125 0 8.4375 -3.609375q3.328125 -3.609375 3.328125 -10.234375q0 -4.203125 -1.421875 -7.328125q-1.421875 -3.125 -4.15625 -4.84375q-2.71875 -1.734375 -6.125 -1.734375q-4.828125 0 -8.3125 3.328125q-3.46875 3.3125 -3.46875 11.0625zm41.554688 26.78125q-3.5 -4.40625 -5.921875 -10.3125q-2.40625 -5.921875 -2.40625 -12.25q0 -5.578125 1.8125 -10.6875q2.109375 -5.921875 6.515625 -11.8125l3.015625 0q-2.828125 4.875 -3.75 6.96875q-1.421875 3.234375 -2.25 6.75q-1.0 4.375 -1.0 8.8125q0 11.265625 7.0 22.53125l-3.015625 0zm8.40625 -10.109375l0 -34.359375l4.671875 0l18.046875 26.96875l0 -26.96875l4.359375 0l0 34.359375l-4.671875 0l-18.046875 -27.0l0 27.0l-4.359375 0z" fill-rule="nonzero"/><path fill="#000000" d="m387.07407 463.04355l0 2.703125l-15.140625 0q-0.03125 -1.015625 0.328125 -1.953125q0.578125 -1.546875 1.84375 -3.046875q1.28125 -1.5 3.6875 -3.46875q3.734375 -3.0625 5.046875 -4.84375q1.3125 -1.796875 1.3125 -3.390625q0 -1.671875 -1.203125 -2.8125q-1.1875 -1.15625 -3.109375 -1.15625q-2.03125 0 -3.25 1.21875q-1.21875 1.21875 -1.234375 3.375l-2.890625 -0.296875q0.296875 -3.234375 2.234375 -4.921875q1.9375 -1.703125 5.203125 -1.703125q3.296875 0 5.21875 1.828125q1.921875 1.828125 1.921875 4.53125q0 1.375 -0.5625 2.703125q-0.5625 1.328125 -1.875 2.796875q-1.296875 1.46875 -4.328125 4.03125q-2.53125 2.125 -3.25 2.890625q-0.71875 0.75 -1.1875 1.515625l11.234375 0z" fill-rule="nonzero"/><path fill="#000000" d="m394.69907 493.85605l-3.03125 0q7.015625 -11.265625 7.015625 -22.53125q0 -4.40625 -1.015625 -8.75q-0.796875 -3.515625 -2.21875 -6.75q-0.921875 -2.109375 -3.78125 -7.03125l3.03125 0q4.40625 5.890625 6.515625 11.8125q1.796875 5.109375 1.796875 10.6875q0 6.328125 -2.421875 12.25q-2.421875 5.90625 -5.890625 10.3125z" fill-rule="nonzero"/><path fill="#000000" fill-opacity="0.0" d="m324.06824 509.55643l-68.755905 -4.031494" fill-rule="evenodd"/><path stroke="#000000" stroke-width="3.0" stroke-linejoin="round" stroke-linecap="butt" d="m324.06824 509.55643l-50.786774 -2.9779053" fill-rule="evenodd"/><path fill="#000000" stroke="#000000" stroke-width="3.0" stroke-linecap="butt" d="m273.57153 501.63187l-13.881012 4.1497803l13.300903 5.743622z" fill-rule="evenodd"/><path fill="#000000" fill-opacity="0.0" d="m353.7244 508.20996l64.69293 -1.3543091" fill-rule="evenodd"/><path stroke="#000000" stroke-width="3.0" stroke-linejoin="round" stroke-linecap="butt" d="m353.7244 508.20996l46.69687 -0.9775696" fill-rule="evenodd"/><path fill="#000000" stroke="#000000" stroke-width="3.0" stroke-linecap="butt" d="m400.525 512.1865l13.507568 -5.2390747l-13.714996 -4.6691895z" fill-rule="evenodd"/></g></svg>