<svg version="1.1" viewBox="0.0 0.0 321.96062992125985 255.9265091863517" fill="none" stroke="none" stroke-linecap="square" stroke-miterlimit="10" xmlns:xlink="http://www.w3.org/1999/xlink" xmlns="http://www.w3.org/2000/svg"><clipPath id="p.0"><path d="m0 0l321.96063 0l0 255.92651l-321.96063 0l0 -255.92651z" clip-rule="nonzero"/></clipPath><g clip-path="url(#p.0)"><path fill="#000000" fill-opacity="0.0" d="m0 0l321.96063 0l0 255.92651l-321.96063 0z" fill-rule="evenodd"/><path fill="#000000" fill-opacity="0.0" d="m53.385914 114.76584l93.291336 -61.29134" fill-rule="evenodd"/><path stroke="#000000" stroke-width="4.0" stroke-linejoin="round" stroke-linecap="butt" d="m53.385914 114.76584l81.83438 -53.764256" fill-rule="evenodd"/><path fill="#000000" stroke="#000000" stroke-width="4.0" stroke-linecap="butt" d="m135.22029 61.001583l-1.289566 6.2295265l7.8592987 -10.545761l-12.799255 3.0266647z" fill-rule="evenodd"/><path fill="#cfe2f3" d="m4.1889763 135.2441l0 0c0 -15.994514 12.90266 -28.960632 28.818897 -28.960632l0 0c7.6432457 0 14.973446 3.0512009 20.37804 8.482376c5.4045906 5.4311676 8.440857 12.797417 8.440857 20.478256l0 0c0 15.994507 -12.90266 28.960632 -28.818897 28.960632l0 0c-15.916237 0 -28.818897 -12.9661255 -28.818897 -28.960632z" fill-rule="evenodd"/><path stroke="#000000" stroke-width="1.0" stroke-linejoin="round" stroke-linecap="butt" d="m4.1889763 135.2441l0 0c0 -15.994514 12.90266 -28.960632 28.818897 -28.960632l0 0c7.6432457 0 14.973446 3.0512009 20.37804 8.482376c5.4045906 5.4311676 8.440857 12.797417 8.440857 20.478256l0 0c0 15.994507 -12.90266 28.960632 -28.818897 28.960632l0 0c-15.916237 0 -28.818897 -12.9661255 -28.818897 -28.960632z" fill-rule="evenodd"/><path fill="#000000" d="m25.751936 142.1641l5.125 -13.359375l1.9062519 0l5.46875 13.359375l-2.015625 0l-1.546875 -4.046875l-5.593752 0l-1.46875 4.046875l-1.875 0zm3.859375 -5.484375l4.531252 0l-1.40625 -3.703125q-0.625 -1.6875 -0.9375019 -2.765625q-0.265625 1.28125 -0.71875 2.546875l-1.46875 3.921875z" fill-rule="nonzero"/><path fill="#cfe2f3" d="m71.31233 222.27034l0 0c0 -15.994507 12.902664 -28.960632 28.818901 -28.960632l0 0c7.6432495 0 14.97345 3.0512085 20.378036 8.482376c5.4045944 5.4311676 8.440865 12.797424 8.440865 20.478256l0 0c0 15.994522 -12.902664 28.960632 -28.818901 28.960632l0 0c-15.916237 0 -28.818901 -12.96611 -28.818901 -28.960632z" fill-rule="evenodd"/><path stroke="#000000" stroke-width="1.0" stroke-linejoin="round" stroke-linecap="butt" d="m71.31233 222.27034l0 0c0 -15.994507 12.902664 -28.960632 28.818901 -28.960632l0 0c7.6432495 0 14.97345 3.0512085 20.378036 8.482376c5.4045944 5.4311676 8.440865 12.797424 8.440865 20.478256l0 0c0 15.994522 -12.902664 28.960632 -28.818901 28.960632l0 0c-15.916237 0 -28.818901 -12.96611 -28.818901 -28.960632z" fill-rule="evenodd"/><path fill="#000000" d="m95.40525 229.19034l0 -13.359375l9.65625 0l0 1.578125l-7.875 0l0 4.09375l7.375 0l0 1.5625l-7.375 0l0 4.546875l8.1875 0l0 1.578125l-9.96875 0z" fill-rule="nonzero"/><path fill="#cfe2f3" d="m190.33858 222.27034l0 0c0 -15.994507 12.902664 -28.960632 28.818909 -28.960632l0 0c7.6432343 0 14.973434 3.0512085 20.378036 8.482376c5.404587 5.4311676 8.440857 12.797424 8.440857 20.478256l0 0c0 15.994522 -12.902664 28.960632 -28.818893 28.960632l0 0c-15.9162445 0 -28.818909 -12.96611 -28.818909 -28.960632z" fill-rule="evenodd"/><path stroke="#000000" stroke-width="1.0" stroke-linejoin="round" stroke-linecap="butt" d="m190.33858 222.27034l0 0c0 -15.994507 12.902664 -28.960632 28.818909 -28.960632l0 0c7.6432343 0 14.973434 3.0512085 20.378036 8.482376c5.404587 5.4311676 8.440857 12.797424 8.440857 20.478256l0 0c0 15.994522 -12.902664 28.960632 -28.818893 28.960632l0 0c-15.9162445 0 -28.818909 -12.96611 -28.818909 -28.960632z" fill-rule="evenodd"/><path fill="#000000" d="m214.40025 229.19034l0 -13.359375l4.609375 0q1.546875 0 2.375 0.203125q1.140625 0.25 1.953125 0.953125q1.0625 0.890625 1.578125 2.28125q0.53125 1.390625 0.53125 3.171875q0 1.515625 -0.359375 2.703125q-0.359375 1.171875 -0.921875 1.9375q-0.546875 0.765625 -1.203125 1.21875q-0.65625 0.4375 -1.59375 0.671875q-0.9375 0.21875 -2.140625 0.21875l-4.828125 0zm1.765625 -1.578125l2.859375 0q1.3125 0 2.0625 -0.234375q0.75 -0.25 1.203125 -0.703125q0.625 -0.625 0.96875 -1.6875q0.359375 -1.0625 0.359375 -2.578125q0 -2.09375 -0.6875 -3.21875q-0.6875 -1.125 -1.671875 -1.5q-0.703125 -0.28125 -2.28125 -0.28125l-2.8125 0l0 10.203125z" fill-rule="nonzero"/><path fill="#cfe2f3" d="m259.6824 135.2441l0 0c0 -15.994514 12.902679 -28.960632 28.818909 -28.960632l0 0c7.6432495 0 14.97345 3.0512009 20.378052 8.482376c5.4045715 5.4311676 8.440857 12.797417 8.440857 20.478256l0 0c0 15.994507 -12.902679 28.960632 -28.818909 28.960632l0 0c-15.916229 0 -28.818909 -12.9661255 -28.818909 -28.960632z" fill-rule="evenodd"/><path stroke="#000000" stroke-width="1.0" stroke-linejoin="round" stroke-linecap="butt" d="m259.6824 135.2441l0 0c0 -15.994514 12.902679 -28.960632 28.818909 -28.960632l0 0c7.6432495 0 14.97345 3.0512009 20.378052 8.482376c5.4045715 5.4311676 8.440857 12.797417 8.440857 20.478256l0 0c0 15.994507 -12.902679 28.960632 -28.818909 28.960632l0 0c-15.916229 0 -28.818909 -12.9661255 -28.818909 -28.960632z" fill-rule="evenodd"/><path fill="#000000" d="m293.27533 137.4766l1.765625 0.453125q-0.5625 2.171875 -2.0 3.328125q-1.4375 1.140625 -3.53125 1.140625q-2.15625 0 -3.515625 -0.875q-1.34375 -0.890625 -2.0625 -2.546875q-0.703125 -1.671875 -0.703125 -3.59375q0 -2.078125 0.796875 -3.625q0.796875 -1.5625 2.265625 -2.359375q1.484375 -0.8125 3.25 -0.8125q2.0 0 3.359375 1.015625q1.375 1.015625 1.90625 2.875l-1.734375 0.40625q-0.46875 -1.453125 -1.359375 -2.109375q-0.875 -0.671875 -2.203125 -0.671875q-1.546875 0 -2.578125 0.734375q-1.03125 0.734375 -1.453125 1.984375q-0.421875 1.234375 -0.421875 2.5625q0 1.703125 0.5 2.96875q0.5 1.265625 1.546875 1.90625q1.046875 0.625 2.265625 0.625q1.484375 0 2.515625 -0.859375q1.03125 -0.859375 1.390625 -2.546875z" fill-rule="nonzero"/><path fill="#cfe2f3" d="m138.23885 33.0l0 0c0 -15.994514 12.902664 -28.96063 28.818893 -28.96063l0 0c7.6432495 0 14.97345 3.0512004 20.378036 8.482372c5.404602 5.4311714 8.440872 12.797422 8.440872 20.478258l0 0c0 15.994514 -12.902664 28.960629 -28.818909 28.960629l0 0c-15.916229 0 -28.818893 -12.966114 -28.818893 -28.960629z" fill-rule="evenodd"/><path stroke="#000000" stroke-width="1.0" stroke-linejoin="round" stroke-linecap="butt" d="m138.23885 33.0l0 0c0 -15.994514 12.902664 -28.96063 28.818893 -28.96063l0 0c7.6432495 0 14.97345 3.0512004 20.378036 8.482372c5.404602 5.4311714 8.440872 12.797422 8.440872 20.478258l0 0c0 15.994514 -12.902664 28.960629 -28.818909 28.960629l0 0c-15.916229 0 -28.818893 -12.966114 -28.818893 -28.960629z" fill-rule="evenodd"/><path fill="#000000" d="m162.22238 39.92l0 -13.359375l5.015625 0q1.53125 0 2.453125 0.40625q0.921875 0.40625 1.4375 1.25q0.53125 0.84375 0.53125 1.765625q0 0.859375 -0.46875 1.625q-0.453125 0.75 -1.390625 1.203125q1.203125 0.359375 1.859375 1.21875q0.65625 0.859375 0.65625 2.015625q0 0.9375 -0.40625 1.75q-0.390625 0.796875 -0.984375 1.234375q-0.578125 0.4375 -1.453125 0.671875q-0.875 0.21875 -2.15625 0.21875l-5.09375 0zm1.78125 -7.75l2.875 0q1.1875 0 1.6875 -0.140625q0.671875 -0.203125 1.015625 -0.671875q0.34375 -0.46875 0.34375 -1.171875q0 -0.65625 -0.328125 -1.15625q-0.3125 -0.515625 -0.90625 -0.703125q-0.59375 -0.1875 -2.03125 -0.1875l-2.65625 0l0 4.03125zm0 6.171875l3.3125 0q0.859375 0 1.203125 -0.0625q0.609375 -0.109375 1.015625 -0.359375q0.421875 -0.265625 0.6875 -0.75q0.265625 -0.484375 0.265625 -1.125q0 -0.75 -0.390625 -1.296875q-0.375 -0.546875 -1.0625 -0.765625q-0.671875 -0.234375 -1.953125 -0.234375l-3.078125 0l0 4.59375z" fill-rule="nonzero"/><path fill="#000000" fill-opacity="0.0" d="m187.43578 53.478256l80.69292 61.291344" fill-rule="evenodd"/><path stroke="#000000" stroke-width="4.0" stroke-linejoin="round" stroke-linecap="butt" d="m187.43578 53.47826l69.776566 52.99967" fill-rule="evenodd"/><path fill="#000000" stroke="#000000" stroke-width="4.0" stroke-linecap="butt" d="m257.2123 106.47793l-6.3030243 0.86128235l12.56279 3.8933792l-7.1210327 -11.0576935z" fill-rule="evenodd"/><path fill="#000000" fill-opacity="0.0" d="m268.12326 155.72235l-28.598404 46.078735" fill-rule="evenodd"/><path stroke="#000000" stroke-width="4.0" stroke-linejoin="round" stroke-linecap="butt" d="m268.1233 155.72235l-21.369553 34.431335" fill-rule="evenodd"/><path fill="#000000" stroke="#000000" stroke-width="4.0" stroke-linecap="butt" d="m246.75372 190.15369l-1.4499207 -6.194168l-2.6953125 12.873108l10.339401 -8.12886z" fill-rule="evenodd"/><path fill="#000000" fill-opacity="0.0" d="m190.33858 222.27034l-61.38582 0" fill-rule="evenodd"/><path stroke="#000000" stroke-width="4.0" stroke-linejoin="round" stroke-linecap="butt" d="m190.33858 222.27034l-47.677475 0" fill-rule="evenodd"/><path fill="#000000" stroke="#000000" stroke-width="4.0" stroke-linecap="butt" d="m142.6611 222.27034l4.498337 -4.498337l-12.35907 4.498337l12.35907 4.498337z" fill-rule="evenodd"/><path fill="#000000" fill-opacity="0.0" d="m79.7532 201.79208l-26.362206 -46.078735" fill-rule="evenodd"/><path stroke="#000000" stroke-width="4.0" stroke-linejoin="round" stroke-linecap="butt" d="m79.7532 201.79208l-19.554832 -34.18007" fill-rule="evenodd"/><path fill="#000000" stroke="#000000" stroke-width="4.0" stroke-linecap="butt" d="m60.198364 167.61201l6.1383057 1.6706848l-10.04184 -8.493698l2.2328491 12.961319z" fill-rule="evenodd"/></g></svg>