<svg version="1.1" viewBox="0.0 0.0 1002.1391076115485 865.0708661417323" fill="none" stroke="none" stroke-linecap="square" stroke-miterlimit="10" xmlns:xlink="http://www.w3.org/1999/xlink" xmlns="http://www.w3.org/2000/svg"><clipPath id="p.0"><path d="m0 0l1002.1391 0l0 865.07086l-1002.1391 0l0 -865.07086z" clip-rule="nonzero"/></clipPath><g clip-path="url(#p.0)"><path fill="#000000" fill-opacity="0.0" d="m0 0l1002.1391 0l0 865.07086l-1002.1391 0z" fill-rule="evenodd"/><path fill="#000000" fill-opacity="0.0" d="m288.87402 51.614174l684.69293 0l0 168.62991l-684.69293 0z" fill-rule="evenodd"/><path stroke="#000000" stroke-width="3.0" stroke-linejoin="round" stroke-linecap="butt" d="m288.87402 51.614174l684.69293 0l0 168.62991l-684.69293 0z" fill-rule="evenodd"/><path fill="#000000" fill-opacity="0.0" d="m294.93176 270.91077l135.52756 0l0 135.52756l-135.52756 0z" fill-rule="evenodd"/><path stroke="#000000" stroke-width="3.0" stroke-linejoin="round" stroke-linecap="butt" d="m294.93176 270.91077l135.52756 0l0 135.52756l-135.52756 0z" fill-rule="evenodd"/><path fill="#000000" fill-opacity="0.0" d="m21.288713 69.9895l211.11812 0l0 89.732285l-211.11812 0z" fill-rule="evenodd"/><path fill="#000000" d="m32.444965 114.02262l4.296875 -0.375q0.296875 2.578125 1.40625 4.234375q1.125 1.65625 3.46875 2.671875q2.34375 1.015625 5.265625 1.015625q2.609375 0 4.59375 -0.765625q2.0 -0.78125 2.96875 -2.125q0.96875 -1.34375 0.96875 -2.9375q0 -1.625 -0.9375 -2.828125q-0.9375 -1.203125 -3.09375 -2.03125q-1.375 -0.53125 -6.109375 -1.671875q-4.734375 -1.140625 -6.640625 -2.140625q-2.453125 -1.296875 -3.671875 -3.203125q-1.203125 -1.90625 -1.203125 -4.28125q0 -2.59375 1.46875 -4.859375q1.484375 -2.265625 4.3125 -3.4375q2.84375 -1.171875 6.3125 -1.171875q3.828125 0 6.734375 1.234375q2.921875 1.234375 4.484375 3.625q1.578125 2.390625 1.703125 5.40625l-4.359375 0.328125q-0.359375 -3.25 -2.390625 -4.90625q-2.015625 -1.671875 -5.984375 -1.671875q-4.125 0 -6.015625 1.515625q-1.875 1.5 -1.875 3.640625q0 1.84375 1.328125 3.046875q1.3125 1.1875 6.859375 2.453125q5.546875 1.25 7.609375 2.1875q3.0 1.375 4.421875 3.5q1.4375 2.125 1.4375 4.890625q0 2.734375 -1.578125 5.171875q-1.5625 2.421875 -4.515625 3.78125q-2.9375 1.34375 -6.609375 1.34375q-4.671875 0 -7.828125 -1.359375q-3.140625 -1.375 -4.9375 -4.09375q-1.796875 -2.734375 -1.890625 -6.1875zm42.23437 7.265625l0.609375 3.734375q-1.78125 0.375 -3.1875 0.375q-2.296875 0 -3.5625 -0.71875q-1.265625 -0.734375 -1.78125 -1.921875q-0.515625 -1.1875 -0.515625 -4.984375l0 -14.3125l-3.0937462 0l0 -3.28125l3.0937462 0l0 -6.171875l4.203125 -2.53125l0 8.703125l4.234375 0l0 3.28125l-4.234375 0l0 14.546875q0 1.8125 0.21875 2.328125q0.21875 0.515625 0.71875 0.828125q0.515625 0.296875 1.453125 0.296875q0.703125 0 1.84375 -0.171875zm2.5546875 -8.671875q0 -6.90625 3.84375 -10.234375q3.21875 -2.765625 7.828125 -2.765625q5.140625 0 8.390625 3.359375q3.265625 3.359375 3.265625 9.296875q0 4.796875 -1.453125 7.5625q-1.4375 2.75 -4.1875 4.28125q-2.75 1.515625 -6.015625 1.515625q-5.21875 0 -8.453125 -3.34375q-3.21875 -3.359375 -3.21875 -9.671875zm4.34375 0q0 4.78125 2.078125 7.171875q2.09375 2.375 5.25 2.375q3.140625 0 5.21875 -2.390625q2.09375 -2.390625 2.09375 -7.296875q0 -4.609375 -2.09375 -6.984375q-2.09375 -2.390625 -5.21875 -2.390625q-3.15625 0 -5.25 2.375q-2.078125 2.359375 -2.078125 7.140625zm23.882812 12.453125l0 -24.890625l3.796875 0l0 3.765625q1.453125 -2.640625 2.671875 -3.484375q1.234375 -0.84375 2.71875 -0.84375q2.125 0 4.328125 1.359375l-1.453125 3.90625q-1.546875 -0.90625 -3.09375 -0.90625q-1.375 0 -2.484375 0.828125q-1.09375 0.828125 -1.5625 2.3125q-0.703125 2.25 -0.703125 4.921875l0 13.03125l-4.21875 0zm32.265625 -3.078125q-2.34375 2.0 -4.515625 2.828125q-2.15625 0.8125 -4.640625 0.8125q-4.109375 0 -6.3125 -2.0q-2.203125 -2.015625 -2.203125 -5.125q0 -1.828125 0.828125 -3.34375q0.84375 -1.515625 2.1875 -2.421875q1.34375 -0.921875 3.03125 -1.390625q1.25 -0.328125 3.75 -0.625q5.109375 -0.609375 7.53125 -1.453125q0.015625 -0.875 0.015625 -1.109375q0 -2.578125 -1.1875 -3.625q-1.625 -1.4375 -4.8125 -1.4375q-2.96875 0 -4.390625 1.046875q-1.421875 1.046875 -2.09375 3.6875l-4.125 -0.5625q0.5625 -2.640625 1.84375 -4.265625q1.296875 -1.640625 3.734375 -2.515625q2.4375 -0.875 5.640625 -0.875q3.1875 0 5.171875 0.75q2.0 0.75 2.9375 1.890625q0.9375 1.125 1.3125 2.859375q0.21875 1.078125 0.21875 3.890625l0 5.625q0 5.890625 0.265625 7.453125q0.265625 1.546875 1.0625 2.984375l-4.40625 0q-0.65625 -1.3125 -0.84375 -3.078125zm-0.34375 -9.421875q-2.296875 0.9375 -6.890625 1.59375q-2.609375 0.375 -3.6875 0.84375q-1.078125 0.46875 -1.671875 1.375q-0.578125 0.90625 -0.578125 2.0q0 1.6875 1.28125 2.8125q1.28125 1.125 3.734375 1.125q2.4375 0 4.328125 -1.0625q1.90625 -1.0625 2.796875 -2.921875q0.6875 -1.421875 0.6875 -4.21875l0 -1.546875zm10.0234375 14.5625l4.109375 0.609375q0.25 1.9062576 1.421875 2.7656326q1.578125 1.171875 4.296875 1.171875q2.921875 0 4.515625 -1.171875q1.59375 -1.171875 2.15625 -3.2812576q0.328125 -1.28125 0.3125 -5.421875q-2.765625 3.265625 -6.890625 3.265625q-5.140625 0 -7.953125 -3.703125q-2.8125 -3.703125 -2.8125 -8.890625q0 -3.5625 1.28125 -6.5625q1.296875 -3.015625 3.75 -4.65625q2.453125 -1.640625 5.75 -1.640625q4.40625 0 7.265625 3.5625l0 -3.0l3.890625 0l0 21.515625q0 5.8125 -1.1875 8.234383q-1.171875 2.4375 -3.75 3.84375q-2.5625 1.40625 -6.3125 1.40625q-4.453125 0 -7.203125 -2.015625q-2.734375 -2.0 -2.640625 -6.0312576zm3.5 -14.953125q0 4.890625 1.9375 7.140625q1.953125 2.25 4.875 2.25q2.90625 0 4.875 -2.234375q1.96875 -2.234375 1.96875 -7.015625q0 -4.578125 -2.03125 -6.890625q-2.015625 -2.328125 -4.875 -2.328125q-2.8125 0 -4.78125 2.296875q-1.96875 2.28125 -1.96875 6.78125zm41.007812 4.875l4.359375 0.53125q-1.03125 3.828125 -3.828125 5.9375q-2.78125 2.109375 -7.109375 2.109375q-5.46875 0 -8.671875 -3.359375q-3.1875 -3.375 -3.1875 -9.4375q0 -6.28125 3.234375 -9.75q3.234375 -3.46875 8.390625 -3.46875q4.984375 0 8.140625 3.40625q3.171875 3.390625 3.171875 9.546875q0 0.375 -0.015625 1.125l-18.5625 0q0.234375 4.109375 2.3125 6.296875q2.09375 2.171875 5.203125 2.171875q2.328125 0 3.96875 -1.21875q1.640625 -1.21875 2.59375 -3.890625zm-13.84375 -6.828125l13.890625 0q-0.28125 -3.140625 -1.59375 -4.703125q-2.015625 -2.4375 -5.21875 -2.4375q-2.90625 0 -4.890625 1.953125q-1.984375 1.9375 -2.1875 5.1875z" fill-rule="nonzero"/><path fill="#000000" fill-opacity="0.0" d="m21.288713 168.46457l135.52756 0l0 95.62204l-135.52756 0z" fill-rule="evenodd"/><path fill="#000000" d="m33.80434 223.54457l0 -34.359375l4.546875 0l0 30.296875l16.921875 0l0 4.0625l-21.46875 0zm24.773438 -12.453125q0 -6.90625 3.84375 -10.234375q3.2187462 -2.765625 7.828121 -2.765625q5.140625 0 8.390625 3.359375q3.265625 3.359375 3.265625 9.296875q0 4.796875 -1.453125 7.5625q-1.4375 2.75 -4.1875 4.28125q-2.75 1.515625 -6.015625 1.515625q-5.21875 0 -8.453121 -3.34375q-3.21875 -3.359375 -3.21875 -9.671875zm4.34375 0q0 4.78125 2.0781212 7.171875q2.09375 2.375 5.25 2.375q3.140625 0 5.21875 -2.390625q2.09375 -2.390625 2.09375 -7.296875q0 -4.609375 -2.09375 -6.984375q-2.09375 -2.390625 -5.21875 -2.390625q-3.15625 0 -5.25 2.375q-2.0781212 2.359375 -2.0781212 7.140625zm40.16406 9.375q-2.34375 2.0 -4.515625 2.828125q-2.15625 0.8125 -4.640625 0.8125q-4.109375 0 -6.3125 -2.0q-2.203125 -2.015625 -2.203125 -5.125q0 -1.828125 0.828125 -3.34375q0.84375 -1.515625 2.1875 -2.421875q1.34375 -0.921875 3.03125 -1.390625q1.25 -0.328125 3.75 -0.625q5.109375 -0.609375 7.53125 -1.453125q0.015625 -0.875 0.015625 -1.109375q0 -2.578125 -1.1875 -3.625q-1.625 -1.4375 -4.8125 -1.4375q-2.96875 0 -4.390625 1.046875q-1.421875 1.046875 -2.09375 3.6875l-4.125 -0.5625q0.5625 -2.640625 1.84375 -4.265625q1.296875 -1.640625 3.734375 -2.515625q2.4375 -0.875 5.640625 -0.875q3.1875 0 5.171875 0.75q2.0 0.75 2.9375 1.890625q0.9375 1.125 1.3125 2.859375q0.21875 1.078125 0.21875 3.890625l0 5.625q0 5.890625 0.265625 7.453125q0.265625 1.546875 1.0625 2.984375l-4.40625 0q-0.65625 -1.3125 -0.84375 -3.078125zm-0.34375 -9.421875q-2.296875 0.9375 -6.890625 1.59375q-2.609375 0.375 -3.6875 0.84375q-1.078125 0.46875 -1.671875 1.375q-0.578125 0.90625 -0.578125 2.0q0 1.6875 1.28125 2.8125q1.28125 1.125 3.734375 1.125q2.4375 0 4.328125 -1.0625q1.90625 -1.0625 2.796875 -2.921875q0.6875 -1.421875 0.6875 -4.21875l0 -1.546875zm26.945312 12.5l0 -3.140625q-2.359375 3.703125 -6.953125 3.703125q-2.984375 0 -5.484375 -1.640625q-2.484375 -1.640625 -3.859375 -4.578125q-1.375 -2.953125 -1.375 -6.765625q0 -3.734375 1.234375 -6.765625q1.25 -3.03125 3.734375 -4.640625q2.484375 -1.625 5.5625 -1.625q2.25 0 4.0 0.953125q1.765625 0.9375 2.859375 2.46875l0 -12.328125l4.203125 0l0 34.359375l-3.921875 0zm-13.328125 -12.421875q0 4.78125 2.015625 7.15625q2.015625 2.359375 4.75 2.359375q2.765625 0 4.703125 -2.265625q1.9375 -2.265625 1.9375 -6.90625q0 -5.109375 -1.96875 -7.5q-1.96875 -2.390625 -4.859375 -2.390625q-2.8125 0 -4.703125 2.296875q-1.875 2.296875 -1.875 7.25z" fill-rule="nonzero"/><path fill="#ea9999" d="m306.3386 63.204723l75.40155 0l0 58.330708l-75.40155 0z" fill-rule="evenodd"/><path stroke="#000000" stroke-width="1.0" stroke-linejoin="round" stroke-linecap="butt" d="m306.3386 63.204723l75.40155 0l0 58.330708l-75.40155 0z" fill-rule="evenodd"/><path fill="#000000" d="m338.75266 109.45008l-9.46875 -24.890625l4.453125 0l5.34375 14.90625q0.875 2.40625 1.59375 5.015625q0.5625 -1.96875 1.578125 -4.734375l5.53125 -15.1875l4.328125 0l-9.421875 24.890625l-3.9375 0z" fill-rule="nonzero"/><path fill="#f9cb9c" d="m401.8714 63.204723l75.40158 0l0 89.732285l-75.40158 0z" fill-rule="evenodd"/><path stroke="#000000" stroke-width="1.0" stroke-linejoin="round" stroke-linecap="butt" d="m401.8714 63.204723l75.40158 0l0 89.732285l-75.40158 0z" fill-rule="evenodd"/><path fill="#000000" d="m428.0042 125.15086l0 -34.359375l24.84375 0l0 4.046875l-20.296875 0l0 10.53125l19.015625 0l0 4.03125l-19.015625 0l0 11.6875l21.09375 0l0 4.0625l-25.640625 0z" fill-rule="nonzero"/><path fill="#b6d7a8" d="m497.4042 63.204723l75.40158 0l0 142.80315l-75.40158 0z" fill-rule="evenodd"/><path stroke="#000000" stroke-width="1.0" stroke-linejoin="round" stroke-linecap="butt" d="m497.4042 63.204723l75.40158 0l0 142.80315l-75.40158 0z" fill-rule="evenodd"/><path fill="#000000" d="m523.44324 151.6863l0 -34.359375l12.96875 0q3.421875 0 5.21875 0.328125q2.53125 0.421875 4.234375 1.609375q1.71875 1.171875 2.765625 3.3125q1.046875 2.125 1.046875 4.6875q0 4.375 -2.796875 7.421875q-2.78125 3.03125 -10.078125 3.03125l-8.8125 0l0 13.96875l-4.546875 0zm4.546875 -18.03125l8.890625 0q4.40625 0 6.25 -1.640625q1.859375 -1.640625 1.859375 -4.609375q0 -2.15625 -1.09375 -3.6875q-1.09375 -1.546875 -2.875 -2.03125q-1.140625 -0.3125 -4.234375 -0.3125l-8.796875 0l0 12.28125z" fill-rule="nonzero"/><path fill="#000000" fill-opacity="0.0" d="m631.22046 220.2441l-268.53543 50.67717" fill-rule="evenodd"/><path stroke="#000000" stroke-width="3.0" stroke-linejoin="round" stroke-linecap="butt" d="m631.22046 220.2441l-250.84763 47.339188" fill-rule="evenodd"/><path fill="#000000" stroke="#000000" stroke-width="3.0" stroke-linecap="butt" d="m379.45392 262.71402l-12.4592285 7.3939514l14.297058 2.3445435z" fill-rule="evenodd"/><path fill="#b6d7a8" d="m306.3386 288.50656l46.80313 0l0 49.826782l-46.80313 0z" fill-rule="evenodd"/><path stroke="#000000" stroke-width="1.0" stroke-linejoin="round" stroke-linecap="butt" d="m306.3386 288.50656l46.80313 0l0 49.826782l-46.80313 0z" fill-rule="evenodd"/><path fill="#ea9999" d="m306.3386 348.1076l46.80313 0l0 18.70868l-46.80313 0z" fill-rule="evenodd"/><path stroke="#000000" stroke-width="1.0" stroke-linejoin="round" stroke-linecap="butt" d="m306.3386 348.1076l46.80313 0l0 18.70868l-46.80313 0z" fill-rule="evenodd"/><path fill="#f9cb9c" d="m367.65616 288.50656l46.80316 0l0 78.299225l-46.80316 0z" fill-rule="evenodd"/><path stroke="#000000" stroke-width="1.0" stroke-linejoin="round" stroke-linecap="butt" d="m367.65616 288.50656l46.80316 0l0 78.299225l-46.80316 0z" fill-rule="evenodd"/><path fill="#000000" fill-opacity="0.0" d="m468.7454 270.91077l135.52756 0l0 135.52756l-135.52756 0z" fill-rule="evenodd"/><path stroke="#000000" stroke-width="3.0" stroke-linejoin="round" stroke-linecap="butt" d="m468.7454 270.91077l135.52756 0l0 135.52756l-135.52756 0z" fill-rule="evenodd"/><path fill="#000000" fill-opacity="0.0" d="m631.22046 220.2441l-94.70862 50.67717" fill-rule="evenodd"/><path stroke="#000000" stroke-width="3.0" stroke-linejoin="round" stroke-linecap="butt" d="m631.22046 220.2441l-78.83789 42.18492" fill-rule="evenodd"/><path fill="#000000" stroke="#000000" stroke-width="3.0" stroke-linecap="butt" d="m550.0448 258.06l-9.666077 10.792114l14.341675 -2.054016z" fill-rule="evenodd"/><path fill="#b6d7a8" d="m480.15222 288.50656l46.80316 0l0 49.826782l-46.80316 0z" fill-rule="evenodd"/><path stroke="#000000" stroke-width="1.0" stroke-linejoin="round" stroke-linecap="butt" d="m480.15222 288.50656l46.80316 0l0 49.826782l-46.80316 0z" fill-rule="evenodd"/><path fill="#ea9999" d="m480.15222 348.1076l46.80316 0l0 18.70868l-46.80316 0z" fill-rule="evenodd"/><path stroke="#000000" stroke-width="1.0" stroke-linejoin="round" stroke-linecap="butt" d="m480.15222 348.1076l46.80316 0l0 18.70868l-46.80316 0z" fill-rule="evenodd"/><path fill="#f9cb9c" d="m541.4698 288.50656l46.80316 0l0 78.299225l-46.80316 0z" fill-rule="evenodd"/><path stroke="#000000" stroke-width="1.0" stroke-linejoin="round" stroke-linecap="butt" d="m541.4698 288.50656l46.80316 0l0 78.299225l-46.80316 0z" fill-rule="evenodd"/><path fill="#000000" fill-opacity="0.0" d="m838.03937 270.91077l135.52759 0l0 135.52756l-135.52759 0z" fill-rule="evenodd"/><path stroke="#000000" stroke-width="3.0" stroke-linejoin="round" stroke-linecap="butt" d="m838.03937 270.91077l135.52759 0l0 135.52756l-135.52759 0z" fill-rule="evenodd"/><path fill="#000000" fill-opacity="0.0" d="m631.22046 220.2441l274.5827 50.67717" fill-rule="evenodd"/><path stroke="#000000" stroke-width="3.0" stroke-linejoin="round" stroke-linecap="butt" d="m631.22046 220.2441l256.88165 47.410263" fill-rule="evenodd"/><path fill="#000000" stroke="#000000" stroke-width="3.0" stroke-linecap="butt" d="m887.20276 272.52725l14.287537 -2.4019775l-12.488831 -7.3438416z" fill-rule="evenodd"/><path fill="#b6d7a8" d="m849.44617 288.50656l46.80316 0l0 49.826782l-46.80316 0z" fill-rule="evenodd"/><path stroke="#000000" stroke-width="1.0" stroke-linejoin="round" stroke-linecap="butt" d="m849.44617 288.50656l46.80316 0l0 49.826782l-46.80316 0z" fill-rule="evenodd"/><path fill="#ea9999" d="m849.44617 348.1076l46.80316 0l0 18.70868l-46.80316 0z" fill-rule="evenodd"/><path stroke="#000000" stroke-width="1.0" stroke-linejoin="round" stroke-linecap="butt" d="m849.44617 348.1076l46.80316 0l0 18.70868l-46.80316 0z" fill-rule="evenodd"/><path fill="#f9cb9c" d="m910.7638 288.50656l46.80316 0l0 78.299225l-46.80316 0z" fill-rule="evenodd"/><path stroke="#000000" stroke-width="1.0" stroke-linejoin="round" stroke-linecap="butt" d="m910.7638 288.50656l46.80316 0l0 78.299225l-46.80316 0z" fill-rule="evenodd"/><path fill="#000000" fill-opacity="0.0" d="m642.55774 270.91077l135.52759 0l0 135.52756l-135.52759 0z" fill-rule="evenodd"/><path stroke="#000000" stroke-width="3.0" stroke-linejoin="round" stroke-linecap="butt" d="m642.55774 270.91077l135.52759 0l0 135.52756l-135.52759 0z" fill-rule="evenodd"/><path fill="#000000" fill-opacity="0.0" d="m631.22046 220.2441l79.08661 50.67717" fill-rule="evenodd"/><path stroke="#000000" stroke-width="3.0" stroke-linejoin="round" stroke-linecap="butt" d="m631.22046 220.2441l63.93109 40.965805" fill-rule="evenodd"/><path fill="#000000" stroke="#000000" stroke-width="3.0" stroke-linecap="butt" d="m692.47815 265.38205l14.1362915 3.1730347l-8.789429 -11.517334z" fill-rule="evenodd"/><path fill="#b6d7a8" d="m653.96454 288.50656l46.80316 0l0 49.826782l-46.80316 0z" fill-rule="evenodd"/><path stroke="#000000" stroke-width="1.0" stroke-linejoin="round" stroke-linecap="butt" d="m653.96454 288.50656l46.80316 0l0 49.826782l-46.80316 0z" fill-rule="evenodd"/><path fill="#ea9999" d="m653.96454 348.1076l46.80316 0l0 18.70868l-46.80316 0z" fill-rule="evenodd"/><path stroke="#000000" stroke-width="1.0" stroke-linejoin="round" stroke-linecap="butt" d="m653.96454 348.1076l46.80316 0l0 18.70868l-46.80316 0z" fill-rule="evenodd"/><path fill="#f9cb9c" d="m715.28345 288.50656l46.80316 0l0 78.299225l-46.80316 0z" fill-rule="evenodd"/><path stroke="#000000" stroke-width="1.0" stroke-linejoin="round" stroke-linecap="butt" d="m715.28345 288.50656l46.80316 0l0 78.299225l-46.80316 0z" fill-rule="evenodd"/><path fill="#000000" fill-opacity="0.0" d="m291.9029 494.67978l135.52756 0l0 135.52756l-135.52756 0z" fill-rule="evenodd"/><path stroke="#000000" stroke-width="3.0" stroke-linejoin="round" stroke-linecap="butt" d="m291.9029 494.67978l135.52756 0l0 135.52756l-135.52756 0z" fill-rule="evenodd"/><path fill="#b6d7a8" d="m303.30972 512.2756l46.80313 0l0 49.826782l-46.80313 0z" fill-rule="evenodd"/><path stroke="#000000" stroke-width="1.0" stroke-linejoin="round" stroke-linecap="butt" d="m303.30972 512.2756l46.80313 0l0 49.826782l-46.80313 0z" fill-rule="evenodd"/><path fill="#ea9999" d="m303.30972 571.87665l46.80313 0l0 18.70868l-46.80313 0z" fill-rule="evenodd"/><path stroke="#000000" stroke-width="1.0" stroke-linejoin="round" stroke-linecap="butt" d="m303.30972 571.87665l46.80313 0l0 18.70868l-46.80313 0z" fill-rule="evenodd"/><path fill="#f9cb9c" d="m364.6273 512.2756l46.80316 0l0 78.299255l-46.80316 0z" fill-rule="evenodd"/><path stroke="#000000" stroke-width="1.0" stroke-linejoin="round" stroke-linecap="butt" d="m364.6273 512.2756l46.80316 0l0 78.299255l-46.80316 0z" fill-rule="evenodd"/><path fill="#000000" fill-opacity="0.0" d="m465.71652 494.67978l135.52756 0l0 135.52756l-135.52756 0z" fill-rule="evenodd"/><path stroke="#000000" stroke-width="3.0" stroke-linejoin="round" stroke-linecap="butt" d="m465.71652 494.67978l135.52756 0l0 135.52756l-135.52756 0z" fill-rule="evenodd"/><path fill="#b6d7a8" d="m477.12335 512.2756l46.80316 0l0 49.826782l-46.80316 0z" fill-rule="evenodd"/><path stroke="#000000" stroke-width="1.0" stroke-linejoin="round" stroke-linecap="butt" d="m477.12335 512.2756l46.80316 0l0 49.826782l-46.80316 0z" fill-rule="evenodd"/><path fill="#ea9999" d="m477.12335 571.87665l46.80316 0l0 18.70868l-46.80316 0z" fill-rule="evenodd"/><path stroke="#000000" stroke-width="1.0" stroke-linejoin="round" stroke-linecap="butt" d="m477.12335 571.87665l46.80316 0l0 18.70868l-46.80316 0z" fill-rule="evenodd"/><path fill="#f9cb9c" d="m538.4409 512.2756l46.80316 0l0 78.299255l-46.80316 0z" fill-rule="evenodd"/><path stroke="#000000" stroke-width="1.0" stroke-linejoin="round" stroke-linecap="butt" d="m538.4409 512.2756l46.80316 0l0 78.299255l-46.80316 0z" fill-rule="evenodd"/><path fill="#000000" fill-opacity="0.0" d="m835.0105 494.67978l135.52759 0l0 135.52756l-135.52759 0z" fill-rule="evenodd"/><path stroke="#000000" stroke-width="3.0" stroke-linejoin="round" stroke-linecap="butt" d="m835.0105 494.67978l135.52759 0l0 135.52756l-135.52759 0z" fill-rule="evenodd"/><path fill="#b6d7a8" d="m846.4173 512.2756l46.80316 0l0 49.826782l-46.80316 0z" fill-rule="evenodd"/><path stroke="#000000" stroke-width="1.0" stroke-linejoin="round" stroke-linecap="butt" d="m846.4173 512.2756l46.80316 0l0 49.826782l-46.80316 0z" fill-rule="evenodd"/><path fill="#ea9999" d="m846.4173 571.87665l46.80316 0l0 18.70868l-46.80316 0z" fill-rule="evenodd"/><path stroke="#000000" stroke-width="1.0" stroke-linejoin="round" stroke-linecap="butt" d="m846.4173 571.87665l46.80316 0l0 18.70868l-46.80316 0z" fill-rule="evenodd"/><path fill="#f9cb9c" d="m907.7349 512.2756l46.80316 0l0 78.299255l-46.80316 0z" fill-rule="evenodd"/><path stroke="#000000" stroke-width="1.0" stroke-linejoin="round" stroke-linecap="butt" d="m907.7349 512.2756l46.80316 0l0 78.299255l-46.80316 0z" fill-rule="evenodd"/><path fill="#000000" fill-opacity="0.0" d="m639.5289 494.67978l135.52759 0l0 135.52756l-135.52759 0z" fill-rule="evenodd"/><path stroke="#000000" stroke-width="3.0" stroke-linejoin="round" stroke-linecap="butt" d="m639.5289 494.67978l135.52759 0l0 135.52756l-135.52759 0z" fill-rule="evenodd"/><path fill="#b6d7a8" d="m650.93567 512.2756l46.80316 0l0 49.826782l-46.80316 0z" fill-rule="evenodd"/><path stroke="#000000" stroke-width="1.0" stroke-linejoin="round" stroke-linecap="butt" d="m650.93567 512.2756l46.80316 0l0 49.826782l-46.80316 0z" fill-rule="evenodd"/><path fill="#ea9999" d="m650.93567 571.87665l46.80316 0l0 18.70868l-46.80316 0z" fill-rule="evenodd"/><path stroke="#000000" stroke-width="1.0" stroke-linejoin="round" stroke-linecap="butt" d="m650.93567 571.87665l46.80316 0l0 18.70868l-46.80316 0z" fill-rule="evenodd"/><path fill="#f9cb9c" d="m712.2546 512.2756l46.80316 0l0 78.299255l-46.80316 0z" fill-rule="evenodd"/><path stroke="#000000" stroke-width="1.0" stroke-linejoin="round" stroke-linecap="butt" d="m712.2546 512.2756l46.80316 0l0 78.299255l-46.80316 0z" fill-rule="evenodd"/><path fill="#000000" fill-opacity="0.0" d="m291.9029 726.3307l135.52756 0l0 135.52759l-135.52756 0z" fill-rule="evenodd"/><path stroke="#000000" stroke-width="3.0" stroke-linejoin="round" stroke-linecap="butt" d="m291.9029 726.3307l135.52756 0l0 135.52759l-135.52756 0z" fill-rule="evenodd"/><path fill="#b6d7a8" d="m303.30972 743.9265l46.80313 0l0 49.826782l-46.80313 0z" fill-rule="evenodd"/><path stroke="#000000" stroke-width="1.0" stroke-linejoin="round" stroke-linecap="butt" d="m303.30972 743.9265l46.80313 0l0 49.826782l-46.80313 0z" fill-rule="evenodd"/><path fill="#ea9999" d="m303.30972 803.5276l46.80313 0l0 18.708618l-46.80313 0z" fill-rule="evenodd"/><path stroke="#000000" stroke-width="1.0" stroke-linejoin="round" stroke-linecap="butt" d="m303.30972 803.5276l46.80313 0l0 18.708618l-46.80313 0z" fill-rule="evenodd"/><path fill="#f9cb9c" d="m364.6273 743.9265l46.80316 0l0 78.299194l-46.80316 0z" fill-rule="evenodd"/><path stroke="#000000" stroke-width="1.0" stroke-linejoin="round" stroke-linecap="butt" d="m364.6273 743.9265l46.80316 0l0 78.299194l-46.80316 0z" fill-rule="evenodd"/><path fill="#000000" fill-opacity="0.0" d="m465.71652 726.3307l135.52756 0l0 135.52759l-135.52756 0z" fill-rule="evenodd"/><path stroke="#000000" stroke-width="3.0" stroke-linejoin="round" stroke-linecap="butt" d="m465.71652 726.3307l135.52756 0l0 135.52759l-135.52756 0z" fill-rule="evenodd"/><path fill="#b6d7a8" d="m477.12335 743.9265l46.80316 0l0 49.826782l-46.80316 0z" fill-rule="evenodd"/><path stroke="#000000" stroke-width="1.0" stroke-linejoin="round" stroke-linecap="butt" d="m477.12335 743.9265l46.80316 0l0 49.826782l-46.80316 0z" fill-rule="evenodd"/><path fill="#ea9999" d="m477.12335 803.5276l46.80316 0l0 18.708618l-46.80316 0z" fill-rule="evenodd"/><path stroke="#000000" stroke-width="1.0" stroke-linejoin="round" stroke-linecap="butt" d="m477.12335 803.5276l46.80316 0l0 18.708618l-46.80316 0z" fill-rule="evenodd"/><path fill="#f9cb9c" d="m538.4409 743.9265l46.80316 0l0 78.299194l-46.80316 0z" fill-rule="evenodd"/><path stroke="#000000" stroke-width="1.0" stroke-linejoin="round" stroke-linecap="butt" d="m538.4409 743.9265l46.80316 0l0 78.299194l-46.80316 0z" fill-rule="evenodd"/><path fill="#000000" fill-opacity="0.0" d="m835.0105 726.3307l135.52759 0l0 135.52759l-135.52759 0z" fill-rule="evenodd"/><path stroke="#000000" stroke-width="3.0" stroke-linejoin="round" stroke-linecap="butt" d="m835.0105 726.3307l135.52759 0l0 135.52759l-135.52759 0z" fill-rule="evenodd"/><path fill="#b6d7a8" d="m846.4173 743.9265l46.80316 0l0 49.826782l-46.80316 0z" fill-rule="evenodd"/><path stroke="#000000" stroke-width="1.0" stroke-linejoin="round" stroke-linecap="butt" d="m846.4173 743.9265l46.80316 0l0 49.826782l-46.80316 0z" fill-rule="evenodd"/><path fill="#ea9999" d="m846.4173 803.5276l46.80316 0l0 18.708618l-46.80316 0z" fill-rule="evenodd"/><path stroke="#000000" stroke-width="1.0" stroke-linejoin="round" stroke-linecap="butt" d="m846.4173 803.5276l46.80316 0l0 18.708618l-46.80316 0z" fill-rule="evenodd"/><path fill="#f9cb9c" d="m907.7349 743.9265l46.80316 0l0 78.299194l-46.80316 0z" fill-rule="evenodd"/><path stroke="#000000" stroke-width="1.0" stroke-linejoin="round" stroke-linecap="butt" d="m907.7349 743.9265l46.80316 0l0 78.299194l-46.80316 0z" fill-rule="evenodd"/><path fill="#000000" fill-opacity="0.0" d="m639.5289 726.3307l135.52759 0l0 135.52759l-135.52759 0z" fill-rule="evenodd"/><path stroke="#000000" stroke-width="3.0" stroke-linejoin="round" stroke-linecap="butt" d="m639.5289 726.3307l135.52759 0l0 135.52759l-135.52759 0z" fill-rule="evenodd"/><path fill="#b6d7a8" d="m650.93567 743.9265l46.80316 0l0 49.826782l-46.80316 0z" fill-rule="evenodd"/><path stroke="#000000" stroke-width="1.0" stroke-linejoin="round" stroke-linecap="butt" d="m650.93567 743.9265l46.80316 0l0 49.826782l-46.80316 0z" fill-rule="evenodd"/><path fill="#ea9999" d="m650.93567 803.5276l46.80316 0l0 18.708618l-46.80316 0z" fill-rule="evenodd"/><path stroke="#000000" stroke-width="1.0" stroke-linejoin="round" stroke-linecap="butt" d="m650.93567 803.5276l46.80316 0l0 18.708618l-46.80316 0z" fill-rule="evenodd"/><path fill="#f9cb9c" d="m712.2546 743.9265l46.80316 0l0 78.299194l-46.80316 0z" fill-rule="evenodd"/><path stroke="#000000" stroke-width="1.0" stroke-linejoin="round" stroke-linecap="butt" d="m712.2546 743.9265l46.80316 0l0 78.299194l-46.80316 0z" fill-rule="evenodd"/><path fill="#000000" fill-opacity="0.0" d="m24.671917 509.51312l284.69293 0l0 95.62207l-284.69293 0z" fill-rule="evenodd"/><path fill="#000000" d="m46.046917 560.8119l0.609375 3.734375q-1.78125 0.375 -3.1875 0.375q-2.296875 0 -3.5625 -0.71875q-1.265625 -0.734375 -1.78125 -1.921875q-0.515625 -1.1875 -0.515625 -4.984375l0 -14.3125l-3.09375 0l0 -3.28125l3.09375 0l0 -6.171875l4.203125 -2.53125l0 8.703125l4.234375 0l0 3.28125l-4.234375 0l0 14.546875q0 1.8125 0.21875 2.328125q0.21875 0.515625 0.71875 0.828125q0.515625 0.296875 1.453125 0.296875q0.703125 0 1.84375 -0.171875zm4.0859375 3.78125l0 -24.890625l3.796875 0l0 3.765625q1.453125 -2.640625 2.671875 -3.484375q1.234375 -0.84375 2.71875 -0.84375q2.125 0 4.328125 1.359375l-1.453125 3.90625q-1.546875 -0.90625 -3.09375 -0.90625q-1.375 0 -2.484375 0.828125q-1.09375 0.828125 -1.5625 2.3125q-0.703125 2.25 -0.703125 4.921875l0 13.03125l-4.21875 0zm16.046871 -29.515625l0 -4.84375l4.21875 0l0 4.84375l-4.21875 0zm0 29.515625l0 -24.890625l4.21875 0l0 24.890625l-4.21875 0zm26.882812 -3.078125q-2.34375 2.0 -4.515625 2.828125q-2.15625 0.8125 -4.640625 0.8125q-4.109375 0 -6.3125 -2.0q-2.203125 -2.015625 -2.203125 -5.125q0 -1.828125 0.828125 -3.34375q0.84375 -1.515625 2.1875 -2.421875q1.34375 -0.921875 3.03125 -1.390625q1.25 -0.328125 3.75 -0.625q5.109375 -0.609375 7.53125 -1.453125q0.015625 -0.875 0.015625 -1.109375q0 -2.578125 -1.1875 -3.625q-1.625 -1.4375 -4.8125 -1.4375q-2.96875 0 -4.390625 1.046875q-1.421875 1.046875 -2.09375 3.6875l-4.125 -0.5625q0.5625 -2.640625 1.84375 -4.265625q1.296875 -1.640625 3.734375 -2.515625q2.4375 -0.875 5.640625 -0.875q3.1875 0 5.171875 0.75q2.0 0.75 2.9375 1.890625q0.9375 1.125 1.3125 2.859375q0.21875 1.078125 0.21875 3.890625l0 5.625q0 5.890625 0.265625 7.453125q0.265625 1.546875 1.0625 2.984375l-4.40625 0q-0.65625 -1.3125 -0.84375 -3.078125zm-0.34375 -9.421875q-2.296875 0.9375 -6.890625 1.59375q-2.609375 0.375 -3.6875 0.84375q-1.078125 0.46875 -1.671875 1.375q-0.578125 0.90625 -0.578125 2.0q0 1.6875 1.28125 2.8125q1.28125 1.125 3.734375 1.125q2.4375 0 4.328125 -1.0625q1.90625 -1.0625 2.796875 -2.921875q0.6875 -1.421875 0.6875 -4.21875l0 -1.546875zm10.8046875 12.5l0 -24.890625l3.796875 0l0 3.53125q2.734375 -4.09375 7.921875 -4.09375q2.25 0 4.125 0.8125q1.890625 0.796875 2.828125 2.109375q0.9375 1.3125 1.3125 3.125q0.234375 1.171875 0.234375 4.09375l0 15.3125l-4.21875 0l0 -15.140625q0 -2.578125 -0.5 -3.859375q-0.484375 -1.28125 -1.734375 -2.03125q-1.25 -0.765625 -2.9375 -0.765625q-2.703125 0 -4.65625 1.71875q-1.953125 1.703125 -1.953125 6.484375l0 13.59375l-4.21875 0zm25.91407 2.0625l4.109375 0.609375q0.25 1.90625 1.421875 2.765625q1.578125 1.171875 4.296875 1.171875q2.921875 0 4.515625 -1.171875q1.59375 -1.171875 2.15625 -3.28125q0.328125 -1.28125 0.3125 -5.421875q-2.765625 3.265625 -6.890625 3.265625q-5.140625 0 -7.953125 -3.703125q-2.8125 -3.703125 -2.8125 -8.890625q0 -3.5625 1.28125 -6.5625q1.296875 -3.015625 3.75 -4.65625q2.453125 -1.640625 5.75 -1.640625q4.40625 0 7.265625 3.5625l0 -3.0l3.890625 0l0 21.515625q0 5.8125 -1.1875 8.234375q-1.171875 2.4375 -3.75 3.84375q-2.5625 1.40625 -6.3125 1.40625q-4.453125 0 -7.203125 -2.015625q-2.734375 -2.0 -2.640625 -6.03125zm3.5 -14.953125q0 4.890625 1.9375 7.140625q1.953125 2.25 4.875 2.25q2.90625 0 4.875 -2.234375q1.96875 -2.234375 1.96875 -7.015625q0 -4.578125 -2.03125 -6.890625q-2.015625 -2.328125 -4.875 -2.328125q-2.8125 0 -4.78125 2.296875q-1.96875 2.28125 -1.96875 6.78125zm23.882812 12.890625l0 -34.359375l4.21875 0l0 34.359375l-4.21875 0zm27.789062 -8.015625l4.359375 0.53125q-1.03125 3.828125 -3.828125 5.9375q-2.78125 2.109375 -7.109375 2.109375q-5.46875 0 -8.671875 -3.359375q-3.1875 -3.375 -3.1875 -9.4375q0 -6.28125 3.234375 -9.75q3.234375 -3.46875 8.390625 -3.46875q4.984375 0 8.140625 3.40625q3.171875 3.390625 3.171875 9.546875q0 0.375 -0.015625 1.125l-18.5625 0q0.234375 4.109375 2.3125 6.296875q2.09375 2.171875 5.203125 2.171875q2.328125 0 3.96875 -1.21875q1.640625 -1.21875 2.59375 -3.890625zm-13.84375 -6.828125l13.890625 0q-0.28125 -3.140625 -1.59375 -4.703125q-2.015625 -2.4375 -5.21875 -2.4375q-2.90625 0 -4.890625 1.953125q-1.984375 1.9375 -2.1875 5.1875zm21.820312 7.40625l4.171875 -0.65625q0.34375 2.515625 1.953125 3.859375q1.609375 1.328125 4.484375 1.328125q2.90625 0 4.3125 -1.1875q1.40625 -1.1875 1.40625 -2.78125q0 -1.421875 -1.234375 -2.25q-0.875 -0.5625 -4.3125 -1.421875q-4.640625 -1.171875 -6.4375 -2.03125q-1.796875 -0.859375 -2.71875 -2.359375q-0.921875 -1.515625 -0.921875 -3.34375q0 -1.671875 0.75 -3.078125q0.765625 -1.421875 2.078125 -2.359375q0.984375 -0.734375 2.6875 -1.234375q1.703125 -0.5 3.640625 -0.5q2.9375 0 5.140625 0.84375q2.21875 0.84375 3.265625 2.28125q1.0625 1.4375 1.46875 3.859375l-4.125 0.5625q-0.28125 -1.921875 -1.640625 -3.0q-1.34375 -1.078125 -3.796875 -1.078125q-2.90625 0 -4.15625 0.96875q-1.234375 0.953125 -1.234375 2.234375q0 0.828125 0.515625 1.484375q0.515625 0.671875 1.609375 1.125q0.640625 0.234375 3.734375 1.078125q4.46875 1.1875 6.234375 1.953125q1.78125 0.765625 2.78125 2.21875q1.015625 1.453125 1.015625 3.609375q0 2.109375 -1.234375 3.96875q-1.234375 1.859375 -3.5625 2.890625q-2.3125 1.015625 -5.234375 1.015625q-4.859375 0 -7.40625 -2.015625q-2.53125 -2.015625 -3.234375 -5.984375z" fill-rule="nonzero"/><path fill="#000000" fill-opacity="0.0" d="m24.671917 741.16406l284.69293 0l0 95.62201l-284.69293 0z" fill-rule="evenodd"/><path fill="#000000" d="m35.671917 787.244l4.421875 -0.375q0.5 3.234375 2.28125 4.859375q1.796875 1.625 4.328125 1.625q3.046875 0 5.15625 -2.296875q2.109375 -2.296875 2.109375 -6.09375q0 -3.609375 -2.03125 -5.6875q-2.015625 -2.09375 -5.296875 -2.09375q-2.046875 0 -3.6875 0.9375q-1.640625 0.921875 -2.578125 2.390625l-3.953125 -0.515625l3.328125 -17.640625l17.078125 0l0 4.03125l-13.703125 0l-1.859375 9.234375q3.09375 -2.15625 6.5 -2.15625q4.5 0 7.59375 3.125q3.09375 3.109375 3.09375 8.0q0 4.671875 -2.71875 8.0625q-3.3125 4.1875 -9.03125 4.1875q-4.6875 0 -7.65625 -2.625q-2.953125 -2.640625 -3.375 -6.96875zm26.226562 -1.3125l0 -4.25l12.953121 0l0 4.25l-12.953121 0zm33.85937 1.1875l4.15625 0.546875q-0.6875 4.28125 -3.484375 6.71875q-2.796875 2.421875 -6.875 2.421875q-5.109375 0 -8.21875 -3.34375q-3.109375 -3.34375 -3.109375 -9.578125q0 -4.03125 1.328125 -7.046875q1.34375 -3.03125 4.078125 -4.53125q2.734375 -1.515625 5.9375 -1.515625q4.0625 0 6.640625 2.046875q2.578125 2.046875 3.296875 5.828125l-4.09375 0.625q-0.59375 -2.5 -2.078125 -3.765625q-1.484375 -1.265625 -3.59375 -1.265625q-3.1875 0 -5.1875 2.28125q-1.984375 2.28125 -1.984375 7.234375q0 5.015625 1.921875 7.296875q1.921875 2.265625 5.015625 2.265625q2.484375 0 4.140625 -1.515625q1.671875 -1.53125 2.109375 -4.703125zm7.671875 9.125l0 -34.359375l4.21875 0l0 34.359375l-4.21875 0zm10.7734375 -29.515625l0 -4.84375l4.21875 0l0 4.84375l-4.21875 0zm0 29.515625l0 -24.890625l4.21875 0l0 24.890625l-4.21875 0zm26.50782 9.546875l0 -12.203125q-0.984375 1.390625 -2.75 2.3125q-1.765625 0.90625 -3.765625 0.90625q-4.421875 0 -7.6250076 -3.53125q-3.203125 -3.546875 -3.203125 -9.71875q0 -3.75 1.296875 -6.71875q1.3125 -2.984375 3.7812576 -4.515625q2.46875 -1.53125 5.421875 -1.53125q4.625 0 7.265625 3.890625l0 -3.328125l3.796875 0l0 34.4375l-4.21875 0zm-13.000008 -22.0625q0 4.796875 2.0156326 7.203125q2.015625 2.40625 4.828125 2.40625q2.6875 0 4.625 -2.28125q1.953125 -2.296875 1.953125 -6.953125q0 -4.96875 -2.046875 -7.46875q-2.046875 -2.515625 -4.8125 -2.515625q-2.75 0 -4.65625 2.328125q-1.9062576 2.328125 -1.9062576 7.28125zm40.148445 12.515625l0 -3.65625q-2.90625 4.21875 -7.90625 4.21875q-2.203125 0 -4.109375 -0.84375q-1.90625 -0.84375 -2.84375 -2.125q-0.921875 -1.28125 -1.296875 -3.125q-0.25 -1.25 -0.25 -3.9375l0 -15.421875l4.21875 0l0 13.796875q0 3.3125 0.25 4.453125q0.40625 1.671875 1.6875 2.625q1.296875 0.9375 3.1875 0.9375q1.90625 0 3.5625 -0.96875q1.671875 -0.96875 2.359375 -2.640625q0.6875 -1.6875 0.6875 -4.875l0 -13.328125l4.21875 0l0 24.890625l-3.765625 0zm27.414062 -8.015625l4.359375 0.53125q-1.03125 3.828125 -3.828125 5.9375q-2.78125 2.109375 -7.109375 2.109375q-5.46875 0 -8.671875 -3.359375q-3.1875 -3.375 -3.1875 -9.4375q0 -6.28125 3.234375 -9.75q3.234375 -3.46875 8.390625 -3.46875q4.984375 0 8.140625 3.40625q3.171875 3.390625 3.171875 9.546875q0 0.375 -0.015625 1.125l-18.5625 0q0.234375 4.109375 2.3125 6.296875q2.09375 2.171875 5.203125 2.171875q2.328125 0 3.96875 -1.21875q1.640625 -1.21875 2.59375 -3.890625zm-13.84375 -6.828125l13.890625 0q-0.28125 -3.140625 -1.59375 -4.703125q-2.015625 -2.4375 -5.21875 -2.4375q-2.90625 0 -4.890625 1.953125q-1.984375 1.9375 -2.1875 5.1875z" fill-rule="nonzero"/></g></svg>