<svg version="1.1" viewBox="0.0 0.0 360.88451443569556 219.43832020997377" fill="none" stroke="none" stroke-linecap="square" stroke-miterlimit="10" xmlns:xlink="http://www.w3.org/1999/xlink" xmlns="http://www.w3.org/2000/svg"><clipPath id="p.0"><path d="m0 0l360.88452 0l0 219.43832l-360.88452 0l0 -219.43832z" clip-rule="nonzero"/></clipPath><g clip-path="url(#p.0)"><path fill="#000000" fill-opacity="0.0" d="m0 0l360.88452 0l0 219.43832l-360.88452 0z" fill-rule="evenodd"/><path fill="#cfe2f3" d="m3.5853019 110.91076l0 0c0 -15.994514 12.90266 -28.960625 28.818895 -28.960625l0 0c7.6432495 0 14.97345 3.0512009 20.37804 8.482368c5.4045906 5.431175 8.440861 12.797424 8.440861 20.478256l0 0c0 15.994514 -12.90266 28.960625 -28.818901 28.960625l0 0c-15.916235 0 -28.818895 -12.96611 -28.818895 -28.960625z" fill-rule="evenodd"/><path stroke="#000000" stroke-width="1.0" stroke-linejoin="round" stroke-linecap="butt" d="m3.5853019 110.91076l0 0c0 -15.994514 12.90266 -28.960625 28.818895 -28.960625l0 0c7.6432495 0 14.97345 3.0512009 20.37804 8.482368c5.4045906 5.431175 8.440861 12.797424 8.440861 20.478256l0 0c0 15.994514 -12.90266 28.960625 -28.818901 28.960625l0 0c-15.916235 0 -28.818895 -12.96611 -28.818895 -28.960625z" fill-rule="evenodd"/><path fill="#000000" d="m25.148262 117.83076l5.125 -13.359375l1.90625 0l5.46875 13.359375l-2.015625 0l-1.546875 -4.046875l-5.59375 0l-1.46875 4.046875l-1.875 0zm3.859375 -5.484375l4.53125 0l-1.40625 -3.703125q-0.625 -1.6875 -0.9375 -2.765625q-0.265625 1.28125 -0.71875 2.546875l-1.46875 3.921875z" fill-rule="nonzero"/><path fill="#000000" fill-opacity="0.0" d="m52.782238 90.4325l100.85039 -57.76378" fill-rule="evenodd"/><path stroke="#000000" stroke-width="4.0" stroke-linejoin="round" stroke-linecap="butt" d="m52.782238 90.43251l88.95508 -50.950542" fill-rule="evenodd"/><path fill="#000000" stroke="#000000" stroke-width="4.0" stroke-linecap="butt" d="m141.73732 39.481968l-1.6676636 6.1391335l8.488754 -10.046032l-12.96022 2.2392387z" fill-rule="evenodd"/><path fill="#cfe2f3" d="m153.62466 110.91076l0 0c0 -15.994514 12.902664 -28.960625 28.818909 -28.960625l0 0c7.6432495 0 14.97345 3.0512009 20.378036 8.482368c5.404587 5.431175 8.440857 12.797424 8.440857 20.478256l0 0c0 15.994514 -12.902664 28.960625 -28.818893 28.960625l0 0c-15.9162445 0 -28.818909 -12.96611 -28.818909 -28.960625z" fill-rule="evenodd"/><path stroke="#000000" stroke-width="1.0" stroke-linejoin="round" stroke-linecap="butt" d="m153.62466 110.91076l0 0c0 -15.994514 12.902664 -28.960625 28.818909 -28.960625l0 0c7.6432495 0 14.97345 3.0512009 20.378036 8.482368c5.404587 5.431175 8.440857 12.797424 8.440857 20.478256l0 0c0 15.994514 -12.902664 28.960625 -28.818893 28.960625l0 0c-15.9162445 0 -28.818909 -12.96611 -28.818909 -28.960625z" fill-rule="evenodd"/><path fill="#000000" d="m172.42491 117.83076l0 -13.359375l1.78125 0l0 6.625l6.625 -6.625l2.390625 0l-5.59375 5.421875l5.84375 7.9375l-2.328125 0l-4.765625 -6.765625l-2.171875 2.140625l0 4.625l-1.78125 0z" fill-rule="nonzero"/><path fill="#000000" d="m189.77473 123.78388l0 1.046875l-5.890625 0q-0.015625 -0.390625 0.125 -0.765625q0.234375 -0.59375 0.71875 -1.171875q0.5 -0.59375 1.4375 -1.359375q1.453125 -1.1875 1.953125 -1.875q0.515625 -0.703125 0.515625 -1.3125q0 -0.65625 -0.46875 -1.09375q-0.453125 -0.453125 -1.203125 -0.453125q-0.796875 0 -1.265625 0.46875q-0.46875 0.46875 -0.484375 1.3125l-1.125 -0.109375q0.125 -1.265625 0.875 -1.921875q0.75 -0.65625 2.015625 -0.65625q1.28125 0 2.03125 0.71875q0.75 0.703125 0.75 1.75q0 0.53125 -0.21875 1.046875q-0.21875 0.515625 -0.734375 1.09375q-0.5 0.5625 -1.671875 1.5625q-0.984375 0.828125 -1.265625 1.125q-0.28125 0.296875 -0.46875 0.59375l4.375 0z" fill-rule="nonzero"/><path fill="#cfe2f3" d="m153.63518 187.59317l0 0c0 -15.994507 12.902649 -28.960617 28.818893 -28.960617l0 0c7.6432495 0 14.97345 3.0511932 20.378036 8.482361c5.404587 5.431183 8.440857 12.797424 8.440857 20.478256l0 0c0 15.994522 -12.902664 28.960632 -28.818893 28.960632l0 0c-15.9162445 0 -28.818893 -12.96611 -28.818893 -28.960632z" fill-rule="evenodd"/><path stroke="#000000" stroke-width="1.0" stroke-linejoin="round" stroke-linecap="butt" d="m153.63518 187.59317l0 0c0 -15.994507 12.902649 -28.960617 28.818893 -28.960617l0 0c7.6432495 0 14.97345 3.0511932 20.378036 8.482361c5.404587 5.431183 8.440857 12.797424 8.440857 20.478256l0 0c0 15.994522 -12.902664 28.960632 -28.818893 28.960632l0 0c-15.9162445 0 -28.818893 -12.96611 -28.818893 -28.960632z" fill-rule="evenodd"/><path fill="#000000" d="m172.43541 194.51317l0 -13.359375l1.78125 0l0 6.625l6.625 -6.625l2.390625 0l-5.59375 5.421875l5.84375 7.9375l-2.328125 0l-4.765625 -6.765625l-2.171875 2.140625l0 4.625l-1.78125 0z" fill-rule="nonzero"/><path fill="#000000" d="m184.03523 199.16942l1.09375 -0.15625q0.1875 0.9375 0.640625 1.34375q0.453125 0.40625 1.109375 0.40625q0.765625 0 1.296875 -0.53125q0.53125 -0.53125 0.53125 -1.328125q0 -0.75 -0.5 -1.234375q-0.484375 -0.5 -1.234375 -0.5q-0.3125 0 -0.78125 0.125l0.125 -0.953125q0.109375 0.015625 0.171875 0.015625q0.703125 0 1.265625 -0.359375q0.5625 -0.375 0.5625 -1.140625q0 -0.59375 -0.40625 -0.984375q-0.40625 -0.40625 -1.0625 -0.40625q-0.625 0 -1.0625 0.40625q-0.421875 0.40625 -0.546875 1.203125l-1.09375 -0.1875q0.203125 -1.109375 0.90625 -1.703125q0.71875 -0.609375 1.78125 -0.609375q0.71875 0 1.328125 0.3125q0.625 0.3125 0.953125 0.859375q0.328125 0.53125 0.328125 1.140625q0 0.578125 -0.3125 1.0625q-0.3125 0.46875 -0.921875 0.734375q0.796875 0.1875 1.234375 0.765625q0.4375 0.578125 0.4375 1.4375q0 1.15625 -0.859375 1.96875q-0.84375 0.8125 -2.140625 0.8125q-1.171875 0 -1.953125 -0.6875q-0.78125 -0.703125 -0.890625 -1.8125z" fill-rule="nonzero"/><path fill="#cfe2f3" d="m153.63518 32.666668l0 0c0 -15.994516 12.902649 -28.96063 28.818893 -28.96063l0 0c7.6432495 0 14.97345 3.0512006 20.378036 8.482372c5.404587 5.4311724 8.440857 12.797421 8.440857 20.47826l0 0c0 15.994514 -12.902664 28.960629 -28.818893 28.960629l0 0c-15.9162445 0 -28.818893 -12.966114 -28.818893 -28.960629z" fill-rule="evenodd"/><path stroke="#000000" stroke-width="1.0" stroke-linejoin="round" stroke-linecap="butt" d="m153.63518 32.666668l0 0c0 -15.994516 12.902649 -28.96063 28.818893 -28.96063l0 0c7.6432495 0 14.97345 3.0512006 20.378036 8.482372c5.404587 5.4311724 8.440857 12.797421 8.440857 20.47826l0 0c0 15.994514 -12.902664 28.960629 -28.818893 28.960629l0 0c-15.9162445 0 -28.818893 -12.966114 -28.818893 -28.960629z" fill-rule="evenodd"/><path fill="#000000" d="m172.43541 39.586666l0 -13.359375l1.78125 0l0 6.625l6.625 -6.625l2.390625 0l-5.59375 5.421875l5.84375 7.9375l-2.328125 0l-4.765625 -6.765625l-2.171875 2.140625l0 4.625l-1.78125 0z" fill-rule="nonzero"/><path fill="#000000" d="m188.16023 46.586662l-1.09375 0l0 -6.96875q-0.40625 0.375 -1.046875 0.75q-0.640625 0.375 -1.140625 0.578125l0 -1.0625q0.90625 -0.4375 1.59375 -1.046875q0.6875 -0.609375 0.96875 -1.1875l0.71875 0l0 8.9375z" fill-rule="nonzero"/><path fill="#cfe2f3" d="m298.03412 110.91076l0 0c0 -15.994514 12.902649 -28.960625 28.818909 -28.960625l0 0c7.6432495 0 14.97345 3.0512009 20.378021 8.482368c5.404602 5.431175 8.440857 12.797424 8.440857 20.478256l0 0c0 15.994514 -12.902649 28.960625 -28.818878 28.960625l0 0c-15.91626 0 -28.818909 -12.96611 -28.818909 -28.960625z" fill-rule="evenodd"/><path stroke="#000000" stroke-width="1.0" stroke-linejoin="round" stroke-linecap="butt" d="m298.03412 110.91076l0 0c0 -15.994514 12.902649 -28.960625 28.818909 -28.960625l0 0c7.6432495 0 14.97345 3.0512009 20.378021 8.482368c5.404602 5.431175 8.440857 12.797424 8.440857 20.478256l0 0c0 15.994514 -12.902649 28.960625 -28.818878 28.960625l0 0c-15.91626 0 -28.818909 -12.96611 -28.818909 -28.960625z" fill-rule="evenodd"/><path fill="#000000" d="m322.01767 117.83076l0 -13.359375l5.015625 0q1.53125 0 2.453125 0.40625q0.921875 0.40625 1.4375 1.25q0.53125 0.84375 0.53125 1.765625q0 0.859375 -0.46875 1.625q-0.453125 0.75 -1.390625 1.203125q1.203125 0.359375 1.859375 1.21875q0.65625 0.859375 0.65625 2.015625q0 0.9375 -0.40625 1.75q-0.390625 0.796875 -0.984375 1.234375q-0.578125 0.4375 -1.453125 0.671875q-0.875 0.21875 -2.15625 0.21875l-5.09375 0zm1.78125 -7.75l2.875 0q1.1875 0 1.6875 -0.140625q0.671875 -0.203125 1.015625 -0.671875q0.34375 -0.46875 0.34375 -1.171875q0 -0.65625 -0.328125 -1.15625q-0.3125 -0.515625 -0.90625 -0.703125q-0.59375 -0.1875 -2.03125 -0.1875l-2.65625 0l0 4.03125zm0 6.171875l3.3125 0q0.859375 0 1.203125 -0.0625q0.609375 -0.109375 1.015625 -0.359375q0.421875 -0.265625 0.6875 -0.75q0.265625 -0.484375 0.265625 -1.125q0 -0.75 -0.390625 -1.296875q-0.375 -0.546875 -1.0625 -0.765625q-0.671875 -0.234375 -1.953125 -0.234375l-3.078125 0l0 4.59375z" fill-rule="nonzero"/><path fill="#000000" fill-opacity="0.0" d="m61.2231 110.91076l92.409454 0" fill-rule="evenodd"/><path stroke="#000000" stroke-width="4.0" stroke-linejoin="round" stroke-linecap="butt" d="m61.2231 110.91076l78.70111 0" fill-rule="evenodd"/><path fill="#000000" stroke="#000000" stroke-width="4.0" stroke-linecap="butt" d="m139.9242 110.91076l-4.4983215 4.498337l12.35907 -4.498337l-12.35907 -4.498329z" fill-rule="evenodd"/><path fill="#000000" fill-opacity="0.0" d="m52.782238 131.38902l100.85039 56.188965" fill-rule="evenodd"/><path stroke="#000000" stroke-width="4.0" stroke-linejoin="round" stroke-linecap="butt" d="m52.782238 131.38902l88.87526 49.51703" fill-rule="evenodd"/><path fill="#000000" stroke="#000000" stroke-width="4.0" stroke-linecap="butt" d="m141.6575 180.90604l-6.1189575 1.7402039l12.985825 2.085678l-8.607071 -9.9448395z" fill-rule="evenodd"/><path fill="#000000" fill-opacity="0.0" d="m211.26247 110.91076l86.77165 0" fill-rule="evenodd"/><path stroke="#000000" stroke-width="4.0" stroke-linejoin="round" stroke-linecap="butt" d="m211.26247 110.91076l73.06331 0" fill-rule="evenodd"/><path fill="#000000" stroke="#000000" stroke-width="4.0" stroke-linecap="butt" d="m284.32578 110.91076l-4.4983215 4.498337l12.35907 -4.498337l-12.35907 -4.498329z" fill-rule="evenodd"/><path fill="#000000" fill-opacity="0.0" d="m211.27296 187.59317l95.2126 -56.188965" fill-rule="evenodd"/><path stroke="#000000" stroke-width="4.0" stroke-linejoin="round" stroke-linecap="butt" d="m211.27296 187.59317l83.40675 -49.221848" fill-rule="evenodd"/><path fill="#000000" stroke="#000000" stroke-width="4.0" stroke-linecap="butt" d="m294.67972 138.37132l-1.5877991 6.1602783l8.357605 -10.155411l-12.930084 2.4073334z" fill-rule="evenodd"/><path fill="#000000" fill-opacity="0.0" d="m211.27296 32.666668l95.2126 57.763775" fill-rule="evenodd"/><path stroke="#000000" stroke-width="4.0" stroke-linejoin="round" stroke-linecap="butt" d="m211.27296 32.666668l83.49248 50.653393" fill-rule="evenodd"/><path fill="#000000" stroke="#000000" stroke-width="4.0" stroke-linecap="butt" d="m294.76544 83.32006l-6.179138 1.5126648l12.89978 2.564621l-8.233307 -10.256432z" fill-rule="evenodd"/></g></svg>