<svg version="1.1" viewBox="0.0 0.0 203.75590551181102 225.50918635170603" fill="none" stroke="none" stroke-linecap="square" stroke-miterlimit="10" xmlns:xlink="http://www.w3.org/1999/xlink" xmlns="http://www.w3.org/2000/svg"><clipPath id="p.0"><path d="m0 0l203.7559 0l0 225.50919l-203.7559 0l0 -225.50919z" clip-rule="nonzero"/></clipPath><g clip-path="url(#p.0)"><path fill="#000000" fill-opacity="0.0" d="m0 0l203.7559 0l0 225.50919l-203.7559 0z" fill-rule="evenodd"/><path fill="#cfe2f3" d="m77.80315 39.31496l0 0c0 -15.994514 11.21051 -28.960629 25.039375 -28.960629l0 0c6.640854 0 13.009712 3.0512 17.705505 8.482371c4.695793 5.4311714 7.3338623 12.797422 7.3338623 20.478258l0 0c0 15.994514 -11.21051 28.960629 -25.039368 28.960629l0 0c-13.828865 0 -25.039375 -12.966114 -25.039375 -28.960629z" fill-rule="evenodd"/><path stroke="#000000" stroke-width="1.0" stroke-linejoin="round" stroke-linecap="butt" d="m77.80315 39.31496l0 0c0 -15.994514 11.21051 -28.960629 25.039375 -28.960629l0 0c6.640854 0 13.009712 3.0512 17.705505 8.482371c4.695793 5.4311714 7.3338623 12.797422 7.3338623 20.478258l0 0c0 15.994514 -11.21051 28.960629 -25.039368 28.960629l0 0c-13.828865 0 -25.039375 -12.966114 -25.039375 -28.960629z" fill-rule="evenodd"/><path fill="#000000" d="m94.10576 46.23496l5.125 -13.359375l1.90625 0l5.46875 13.359375l-2.015625 0l-1.546875 -4.046875l-5.59375 0l-1.46875 4.046875l-1.875 0zm3.859375 -5.484375l4.53125 0l-1.40625 -3.703125q-0.625 -1.6875 -0.9375 -2.765625q-0.265625 1.28125 -0.71875 2.546875l-1.46875 3.921875z" fill-rule="nonzero"/><path fill="#cfe2f3" d="m9.724409 174.61679l0 0c0 -15.994507 11.210508 -28.960617 25.03937 -28.960617l0 0c6.640854 0 13.009716 3.0511932 17.70551 8.482361c4.695793 5.431183 7.3338623 12.797424 7.3338623 20.478256l0 0c0 15.994522 -11.21051 28.960632 -25.039371 28.960632l0 0c-13.828861 0 -25.03937 -12.96611 -25.03937 -28.960632z" fill-rule="evenodd"/><path stroke="#000000" stroke-width="1.0" stroke-linejoin="round" stroke-linecap="butt" d="m9.724409 174.61679l0 0c0 -15.994507 11.210508 -28.960617 25.03937 -28.960617l0 0c6.640854 0 13.009716 3.0511932 17.70551 8.482361c4.695793 5.431183 7.3338623 12.797424 7.3338623 20.478256l0 0c0 15.994522 -11.21051 28.960632 -25.039371 28.960632l0 0c-13.828861 0 -25.03937 -12.96611 -25.03937 -28.960632z" fill-rule="evenodd"/><path fill="#000000" d="m27.417646 181.53679l0 -13.359375l5.015623 0q1.53125 0 2.453125 0.40625q0.921875 0.40625 1.4375 1.25q0.53125 0.84375 0.53125 1.765625q0 0.859375 -0.46875 1.625q-0.453125 0.75 -1.390625 1.203125q1.203125 0.359375 1.859375 1.21875q0.65625 0.859375 0.65625 2.015625q0 0.9375 -0.40625 1.75q-0.390625 0.796875 -0.984375 1.234375q-0.578125 0.4375 -1.453125 0.671875q-0.875 0.21875 -2.15625 0.21875l-5.093748 0zm1.78125 -7.75l2.874998 0q1.1875 0 1.6875 -0.140625q0.671875 -0.203125 1.015625 -0.671875q0.34375 -0.46875 0.34375 -1.171875q0 -0.65625 -0.328125 -1.15625q-0.3125 -0.515625 -0.90625 -0.703125q-0.59375 -0.1875 -2.031248 -0.1875l-2.65625 0l0 4.03125zm0 6.171875l3.312498 0q0.859375 0 1.203125 -0.0625q0.609375 -0.109375 1.015625 -0.359375q0.421875 -0.265625 0.6875 -0.75q0.265625 -0.484375 0.265625 -1.125q0 -0.75 -0.390625 -1.296875q-0.375 -0.546875 -1.0625 -0.765625q-0.671875 -0.234375 -1.953125 -0.234375l-3.078123 0l0 4.59375z" fill-rule="nonzero"/><path fill="#cfe2f3" d="m145.88977 174.61679l0 0c0 -15.994507 11.210495 -28.960617 25.039368 -28.960617l0 0c6.640854 0 13.009705 3.0511932 17.705505 8.482361c4.6957855 5.431183 7.3338623 12.797424 7.3338623 20.478256l0 0c0 15.994522 -11.21051 28.960632 -25.039368 28.960632l0 0c-13.828873 0 -25.039368 -12.96611 -25.039368 -28.960632z" fill-rule="evenodd"/><path stroke="#000000" stroke-width="1.0" stroke-linejoin="round" stroke-linecap="butt" d="m145.88977 174.61679l0 0c0 -15.994507 11.210495 -28.960617 25.039368 -28.960617l0 0c6.640854 0 13.009705 3.0511932 17.705505 8.482361c4.6957855 5.431183 7.3338623 12.797424 7.3338623 20.478256l0 0c0 15.994522 -11.21051 28.960632 -25.039368 28.960632l0 0c-13.828873 0 -25.039368 -12.96611 -25.039368 -28.960632z" fill-rule="evenodd"/><path fill="#000000" d="m173.19238 176.84929l1.765625 0.453125q-0.5625 2.171875 -2.0 3.328125q-1.4375 1.140625 -3.53125 1.140625q-2.15625 0 -3.515625 -0.875q-1.34375 -0.890625 -2.0625 -2.546875q-0.703125 -1.671875 -0.703125 -3.59375q0 -2.078125 0.796875 -3.625q0.796875 -1.5625 2.265625 -2.359375q1.484375 -0.8125 3.25 -0.8125q2.0 0 3.359375 1.015625q1.375 1.015625 1.90625 2.875l-1.734375 0.40625q-0.46875 -1.453125 -1.359375 -2.109375q-0.875 -0.671875 -2.203125 -0.671875q-1.546875 0 -2.578125 0.734375q-1.03125 0.734375 -1.453125 1.984375q-0.421875 1.234375 -0.421875 2.5625q0 1.703125 0.5 2.96875q0.5 1.265625 1.546875 1.90625q1.046875 0.625 2.265625 0.625q1.484375 0 2.515625 -0.859375q1.03125 -0.859375 1.390625 -2.546875z" fill-rule="nonzero"/><path fill="#000000" fill-opacity="0.0" d="m85.13701 59.793217l-50.3622 85.85828" fill-rule="evenodd"/><path stroke="#000000" stroke-width="4.0" stroke-linejoin="round" stroke-linecap="butt" d="m85.13701 59.79322l-38.21928 65.15683" fill-rule="evenodd"/><path fill="#000000" stroke="#000000" stroke-width="4.0" stroke-linecap="butt" d="m41.218853 121.60724l-3.4854202 19.000336l14.883167 -12.314713z" fill-rule="evenodd"/><path fill="#000000" fill-opacity="0.0" d="m170.92914 145.65617l-50.393707 -85.85828" fill-rule="evenodd"/><path stroke="#000000" stroke-width="4.0" stroke-linejoin="round" stroke-linecap="butt" d="m170.92914 145.65617l-38.245132 -65.16015" fill-rule="evenodd"/><path fill="#000000" stroke="#000000" stroke-width="4.0" stroke-linecap="butt" d="m138.38196 77.15166l-14.88652 -12.310654l3.4906006 18.999382z" fill-rule="evenodd"/><path fill="#000000" fill-opacity="0.0" d="m59.80315 174.61679l86.07875 0" fill-rule="evenodd"/><path stroke="#000000" stroke-width="4.0" stroke-linejoin="round" stroke-linecap="butt" d="m59.80315 174.61679l62.07874 0" fill-rule="evenodd"/><path fill="#000000" stroke="#000000" stroke-width="4.0" stroke-linecap="butt" d="m121.88189 181.22372l18.152397 -6.6069336l-18.152397 -6.6069183z" fill-rule="evenodd"/><path fill="#000000" fill-opacity="0.0" d="m295.09186 393.56168l54.551178 0l0 89.700806l-54.551178 0z" fill-rule="evenodd"/><path fill="#000000" d="m316.54498 448.64166l0 -30.3125l-11.328125 0l0 -4.046875l27.234375 0l0 4.046875l-11.359375 0l0 30.3125l-4.546875 0z" fill-rule="nonzero"/><path fill="#000000" fill-opacity="0.0" d="m143.09973 37.72966l34.173233 0l0 52.06299l-34.173233 0z" fill-rule="evenodd"/><path fill="#000000" d="m164.55286 92.809654l0 -30.312496l-11.328125 0l0 -4.046875l27.234375 0l0 4.046875l-11.359375 0l0 30.312496l-4.546875 0z" fill-rule="nonzero"/><path fill="#000000" fill-opacity="0.0" d="m10.916011 37.72966l21.51181 0l0 46.677162l-21.51181 0z" fill-rule="evenodd"/><path fill="#000000" d="m23.69726 92.809654l0 -34.35937l15.234377 0q4.59375 0 6.984375 0.921875q2.390625 0.921875 3.8125 3.265625q1.4375 2.3437462 1.4375 5.187496q0 3.65625 -2.375 6.171875q-2.359375 2.5 -7.3125 3.171875q1.8125 0.875 2.75 1.71875q1.984375 1.828125 3.765625 4.5625l5.984375 9.359375l-5.71875 0l-4.546875 -7.15625q-2.0 -3.09375 -3.296875 -4.734375q-1.28125 -1.640625 -2.296875 -2.296875q-1.015625 -0.65625 -2.078125 -0.90625q-0.765625 -0.171875 -2.53125 -0.171875l-5.265627 0l0 15.265625l-4.546875 0zm4.546875 -19.203125l9.765627 0q3.125 0 4.875 -0.640625q1.765625 -0.640625 2.671875 -2.0625q0.921875 -1.421875 0.921875 -3.078125q0 -2.4375 -1.78125 -3.9999962q-1.765625 -1.578125 -5.578125 -1.578125l-10.875002 0l0 11.359371z" fill-rule="nonzero"/><path fill="#000000" fill-opacity="0.0" d="m75.073494 166.92651l43.244095 0l0 60.72441l-43.244095 0z" fill-rule="evenodd"/><path fill="#000000" d="m86.167244 209.99213l4.171875 -0.359375q0.296875 2.5 1.375 4.109375q1.078125 1.609375 3.359375 2.609375q2.28125 0.984375 5.125 0.984375q2.53125 0 4.46875 -0.75q1.9375 -0.75 2.875 -2.0625q0.953125 -1.3125 0.953125 -2.859375q0 -1.578125 -0.921875 -2.75q-0.90625 -1.171875 -3.0 -1.96875q-1.34375 -0.53125 -5.953125 -1.625q-4.59375 -1.109375 -6.4375 -2.09375q-2.390625 -1.25 -3.5625 -3.109375q-1.171875 -1.859375 -1.171875 -4.15625q0 -2.53125 1.421875 -4.71875q1.4375 -2.203125 4.1875 -3.34375q2.765625 -1.140625 6.140625 -1.140625q3.71875 0 6.546875 1.203125q2.84375 1.1875 4.359375 3.515625q1.53125 2.328125 1.640625 5.265625l-4.234375 0.3125q-0.34375 -3.171875 -2.3125 -4.78125q-1.96875 -1.625 -5.8125 -1.625q-4.015625 0 -5.859375 1.484375q-1.828125 1.46875 -1.828125 3.53125q0 1.796875 1.3125 2.96875q1.265625 1.15625 6.65625 2.375q5.390625 1.21875 7.390625 2.125q2.921875 1.34375 4.3125 3.40625q1.390625 2.0625 1.390625 4.75q0 2.671875 -1.53125 5.03125q-1.53125 2.359375 -4.390625 3.671875q-2.859375 1.296875 -6.4375 1.296875q-4.53125 0 -7.59375 -1.3125q-3.0625 -1.328125 -4.8125 -3.96875q-1.734375 -2.65625 -1.828125 -6.015625z" fill-rule="nonzero"/></g></svg>